<svg xmlns="http://www.w3.org/2000/svg" xmlns:xlink="http://www.w3.org/1999/xlink" width="460" zoomAndPan="magnify" viewBox="0 0 345 60" height="80" preserveAspectRatio="xMidYMid meet" version="1.0"><defs><g/><clipPath id="52bcdda870"><path d="M 45.003906 3.195312 L 345 3.195312 L 345 55.605469 L 45.003906 55.605469 Z M 45.003906 3.195312 " clip-rule="nonzero"/></clipPath><clipPath id="9ef8704b6b"><path d="M 54.003906 3.195312 L 336 3.195312 C 340.96875 3.195312 345 7.226562 345 12.195312 L 345 46.605469 C 345 51.578125 340.96875 55.605469 336 55.605469 L 54.003906 55.605469 C 49.035156 55.605469 45.003906 51.578125 45.003906 46.605469 L 45.003906 12.195312 C 45.003906 7.226562 49.035156 3.195312 54.003906 3.195312 Z M 54.003906 3.195312 " clip-rule="nonzero"/></clipPath><clipPath id="6d2e41ea96"><path d="M 0.00390625 0.195312 L 300 0.195312 L 300 52.605469 L 0.00390625 52.605469 Z M 0.00390625 0.195312 " clip-rule="nonzero"/></clipPath><clipPath id="a80b5dbeb8"><path d="M 9.003906 0.195312 L 291 0.195312 C 295.96875 0.195312 300 4.226562 300 9.195312 L 300 43.605469 C 300 48.578125 295.96875 52.605469 291 52.605469 L 9.003906 52.605469 C 4.035156 52.605469 0.00390625 48.578125 0.00390625 43.605469 L 0.00390625 9.195312 C 0.00390625 4.226562 4.035156 0.195312 9.003906 0.195312 Z M 9.003906 0.195312 " clip-rule="nonzero"/></clipPath><clipPath id="59697fc72f"><rect x="0" width="300" y="0" height="53"/></clipPath><clipPath id="04e13ffa3a"><path d="M 0 0 L 58.804688 0 L 58.804688 58.804688 L 0 58.804688 Z M 0 0 " clip-rule="nonzero"/></clipPath><clipPath id="4db97f39c1"><path d="M 9 0 L 49.804688 0 C 54.773438 0 58.804688 4.03125 58.804688 9 L 58.804688 49.804688 C 58.804688 54.773438 54.773438 58.804688 49.804688 58.804688 L 9 58.804688 C 4.03125 58.804688 0 54.773438 0 49.804688 L 0 9 C 0 4.03125 4.03125 0 9 0 Z M 9 0 " clip-rule="nonzero"/></clipPath><clipPath id="aac4bd5343"><path d="M 0 0 L 58.804688 0 L 58.804688 58.804688 L 0 58.804688 Z M 0 0 " clip-rule="nonzero"/></clipPath><clipPath id="113d1be7a3"><path d="M 9 0 L 49.804688 0 C 54.773438 0 58.804688 4.03125 58.804688 9 L 58.804688 49.804688 C 58.804688 54.773438 54.773438 58.804688 49.804688 58.804688 L 9 58.804688 C 4.03125 58.804688 0 54.773438 0 49.804688 L 0 9 C 0 4.03125 4.03125 0 9 0 Z M 9 0 " clip-rule="nonzero"/></clipPath><clipPath id="338535635e"><rect x="0" width="59" y="0" height="59"/></clipPath><clipPath id="def86f282c"><rect x="0" width="29" y="0" height="54"/></clipPath></defs><g clip-path="url(#52bcdda870)"><g clip-path="url(#9ef8704b6b)"><g transform="matrix(1, 0, 0, 1, 45, 3)"><g clip-path="url(#59697fc72f)"><g clip-path="url(#6d2e41ea96)"><g clip-path="url(#a80b5dbeb8)"><path fill="#a4e2ff" d="M 0.00390625 0.195312 L 299.921875 0.195312 L 299.921875 52.605469 L 0.00390625 52.605469 Z M 0.00390625 0.195312 " fill-opacity="1" fill-rule="nonzero"/></g></g></g></g></g></g><g clip-path="url(#04e13ffa3a)"><g clip-path="url(#4db97f39c1)"><g transform="matrix(1, 0, 0, 1, 0, -0.000000000000001479)"><g clip-path="url(#338535635e)"><g clip-path="url(#aac4bd5343)"><g clip-path="url(#113d1be7a3)"><path fill="#00a0e9" d="M 0 0 L 58.804688 0 L 58.804688 58.804688 L 0 58.804688 Z M 0 0 " fill-opacity="1" fill-rule="nonzero"/></g></g></g></g></g></g><g transform="matrix(1, 0, 0, 1, 16, 3)"><g clip-path="url(#def86f282c)"><g fill="#ffffff" fill-opacity="1"><g transform="translate(0.680312, 44.051311)"><g><path d="M 17.578125 -31.5 L 17.578125 0 L 11.1875 0 L 11.1875 -25.71875 L 4.75 -23.84375 L 4.75 -29.203125 L 12.09375 -31.5 Z M 17.578125 -31.5 "/></g></g></g></g></g><g fill="#000000" fill-opacity="1"><g transform="translate(67.369156, 35.776738)"><g><path d="M 4.296875 -8.390625 L 10.53125 -8.390625 L 10.53125 -14.15625 L 13.390625 -14.15625 L 13.390625 0 L 10.53125 0 L 10.53125 -6 L 4.296875 -6 L 4.296875 0 L 1.421875 0 L 1.421875 -14.15625 L 4.296875 -14.15625 Z M 4.296875 -8.390625 "/></g></g></g><g fill="#000000" fill-opacity="1"><g transform="translate(82.18613, 35.776738)"><g><path d="M 10.734375 -5.640625 L 10.734375 -4.84375 L 3.359375 -4.84375 C 3.367188 -3.820312 3.585938 -3.050781 4.015625 -2.53125 C 4.453125 -2.007812 5.015625 -1.75 5.703125 -1.75 C 6.273438 -1.75 6.742188 -1.863281 7.109375 -2.09375 C 7.484375 -2.320312 7.722656 -2.628906 7.828125 -3.015625 L 10.609375 -3.015625 C 10.429688 -2.054688 9.921875 -1.269531 9.078125 -0.65625 C 8.242188 -0.0390625 7.101562 0.265625 5.65625 0.265625 C 4.039062 0.265625 2.765625 -0.1875 1.828125 -1.09375 C 0.898438 -2 0.4375 -3.34375 0.4375 -5.125 L 0.4375 -5.203125 C 0.4375 -6.359375 0.671875 -7.335938 1.140625 -8.140625 C 1.617188 -8.941406 2.253906 -9.554688 3.046875 -9.984375 C 3.835938 -10.421875 4.703125 -10.640625 5.640625 -10.640625 C 7.171875 -10.640625 8.398438 -10.21875 9.328125 -9.375 C 10.265625 -8.539062 10.734375 -7.296875 10.734375 -5.640625 Z M 3.421875 -6.578125 L 7.828125 -6.578125 C 7.816406 -7.222656 7.609375 -7.738281 7.203125 -8.125 C 6.804688 -8.507812 6.285156 -8.703125 5.640625 -8.703125 C 5.046875 -8.703125 4.550781 -8.515625 4.15625 -8.140625 C 3.769531 -7.765625 3.523438 -7.242188 3.421875 -6.578125 Z M 3.421875 -6.578125 "/></g></g></g><g fill="#000000" fill-opacity="1"><g transform="translate(93.450824, 35.776738)"><g><path d="M 3.875 -14.6875 L 3.875 0 L 1.109375 0 L 1.109375 -14.6875 Z M 3.875 -14.6875 "/></g></g></g><g fill="#000000" fill-opacity="1"><g transform="translate(98.427802, 35.776738)"><g><path d="M 3.875 -14.6875 L 3.875 0 L 1.109375 0 L 1.109375 -14.6875 Z M 3.875 -14.6875 "/></g></g></g><g fill="#000000" fill-opacity="1"><g transform="translate(103.40478, 35.776738)"><g><path d="M 5.78125 0.265625 C 4.738281 0.265625 3.816406 0.0664062 3.015625 -0.328125 C 2.210938 -0.734375 1.582031 -1.332031 1.125 -2.125 C 0.664062 -2.925781 0.4375 -3.925781 0.4375 -5.125 L 0.4375 -5.1875 C 0.4375 -6.363281 0.679688 -7.359375 1.171875 -8.171875 C 1.671875 -8.984375 2.328125 -9.597656 3.140625 -10.015625 C 3.960938 -10.429688 4.84375 -10.640625 5.78125 -10.640625 C 6.800781 -10.640625 7.707031 -10.4375 8.5 -10.03125 C 9.300781 -9.632812 9.929688 -9.039062 10.390625 -8.25 C 10.847656 -7.457031 11.078125 -6.46875 11.078125 -5.28125 L 11.078125 -5.171875 C 11.078125 -4.003906 10.828125 -3.015625 10.328125 -2.203125 C 9.828125 -1.390625 9.171875 -0.773438 8.359375 -0.359375 C 7.554688 0.0546875 6.695312 0.265625 5.78125 0.265625 Z M 5.78125 -1.859375 C 6.195312 -1.859375 6.582031 -1.957031 6.9375 -2.15625 C 7.289062 -2.363281 7.570312 -2.703125 7.78125 -3.171875 C 8 -3.648438 8.109375 -4.3125 8.109375 -5.15625 L 8.109375 -5.203125 C 8.109375 -6.054688 8 -6.722656 7.78125 -7.203125 C 7.570312 -7.679688 7.289062 -8.019531 6.9375 -8.21875 C 6.59375 -8.425781 6.207031 -8.53125 5.78125 -8.53125 C 5.363281 -8.53125 4.972656 -8.425781 4.609375 -8.21875 C 4.242188 -8.007812 3.953125 -7.660156 3.734375 -7.171875 C 3.515625 -6.691406 3.40625 -6.03125 3.40625 -5.1875 L 3.40625 -5.125 C 3.40625 -4.300781 3.507812 -3.648438 3.71875 -3.171875 C 3.925781 -2.703125 4.207031 -2.363281 4.5625 -2.15625 C 4.925781 -1.957031 5.332031 -1.859375 5.78125 -1.859375 Z M 5.78125 -1.859375 "/></g></g></g><g fill="#000000" fill-opacity="1"><g transform="translate(114.916426, 35.776738)"><g/></g></g><g fill="#000000" fill-opacity="1"><g transform="translate(120.615263, 35.776738)"><g><path d="M 6.921875 0.25 C 5.671875 0.25 4.582031 -0.0234375 3.65625 -0.578125 C 2.726562 -1.128906 2.003906 -1.929688 1.484375 -2.984375 C 0.972656 -4.035156 0.71875 -5.304688 0.71875 -6.796875 L 0.71875 -6.96875 C 0.71875 -8.488281 1.007812 -9.796875 1.59375 -10.890625 C 2.175781 -11.992188 2.988281 -12.835938 4.03125 -13.421875 C 5.082031 -14.015625 6.285156 -14.3125 7.640625 -14.3125 C 8.828125 -14.3125 9.859375 -14.128906 10.734375 -13.765625 C 11.617188 -13.398438 12.320312 -12.898438 12.84375 -12.265625 C 13.375 -11.640625 13.691406 -10.914062 13.796875 -10.09375 L 10.71875 -10.09375 C 10.507812 -10.570312 10.132812 -10.984375 9.59375 -11.328125 C 9.0625 -11.671875 8.363281 -11.84375 7.5 -11.84375 C 6.414062 -11.84375 5.519531 -11.445312 4.8125 -10.65625 C 4.101562 -9.863281 3.75 -8.65625 3.75 -7.03125 L 3.75 -6.875 C 3.75 -5.382812 4.097656 -4.242188 4.796875 -3.453125 C 5.503906 -2.671875 6.429688 -2.28125 7.578125 -2.28125 C 8.734375 -2.28125 9.566406 -2.515625 10.078125 -2.984375 C 10.585938 -3.460938 10.867188 -4.132812 10.921875 -5 L 7.9375 -5 L 7.9375 -7.234375 L 13.921875 -7.234375 L 13.921875 0 L 11.40625 0 L 11.40625 -0.515625 C 11.40625 -0.765625 11.40625 -0.992188 11.40625 -1.203125 C 11.40625 -1.410156 11.410156 -1.753906 11.421875 -2.234375 L 11.375 -2.234375 C 11.125 -1.390625 10.597656 -0.765625 9.796875 -0.359375 C 8.992188 0.046875 8.035156 0.25 6.921875 0.25 Z M 6.921875 0.25 "/></g></g></g><g fill="#000000" fill-opacity="1"><g transform="translate(135.6032, 35.776738)"><g><path d="M 5.78125 0.265625 C 4.738281 0.265625 3.816406 0.0664062 3.015625 -0.328125 C 2.210938 -0.734375 1.582031 -1.332031 1.125 -2.125 C 0.664062 -2.925781 0.4375 -3.925781 0.4375 -5.125 L 0.4375 -5.1875 C 0.4375 -6.363281 0.679688 -7.359375 1.171875 -8.171875 C 1.671875 -8.984375 2.328125 -9.597656 3.140625 -10.015625 C 3.960938 -10.429688 4.84375 -10.640625 5.78125 -10.640625 C 6.800781 -10.640625 7.707031 -10.4375 8.5 -10.03125 C 9.300781 -9.632812 9.929688 -9.039062 10.390625 -8.25 C 10.847656 -7.457031 11.078125 -6.46875 11.078125 -5.28125 L 11.078125 -5.171875 C 11.078125 -4.003906 10.828125 -3.015625 10.328125 -2.203125 C 9.828125 -1.390625 9.171875 -0.773438 8.359375 -0.359375 C 7.554688 0.0546875 6.695312 0.265625 5.78125 0.265625 Z M 5.78125 -1.859375 C 6.195312 -1.859375 6.582031 -1.957031 6.9375 -2.15625 C 7.289062 -2.363281 7.570312 -2.703125 7.78125 -3.171875 C 8 -3.648438 8.109375 -4.3125 8.109375 -5.15625 L 8.109375 -5.203125 C 8.109375 -6.054688 8 -6.722656 7.78125 -7.203125 C 7.570312 -7.679688 7.289062 -8.019531 6.9375 -8.21875 C 6.59375 -8.425781 6.207031 -8.53125 5.78125 -8.53125 C 5.363281 -8.53125 4.972656 -8.425781 4.609375 -8.21875 C 4.242188 -8.007812 3.953125 -7.660156 3.734375 -7.171875 C 3.515625 -6.691406 3.40625 -6.03125 3.40625 -5.1875 L 3.40625 -5.125 C 3.40625 -4.300781 3.507812 -3.648438 3.71875 -3.171875 C 3.925781 -2.703125 4.207031 -2.363281 4.5625 -2.15625 C 4.925781 -1.957031 5.332031 -1.859375 5.78125 -1.859375 Z M 5.78125 -1.859375 "/></g></g></g><g fill="#000000" fill-opacity="1"><g transform="translate(147.114846, 35.776738)"><g><path d="M 5.78125 0.265625 C 4.738281 0.265625 3.816406 0.0664062 3.015625 -0.328125 C 2.210938 -0.734375 1.582031 -1.332031 1.125 -2.125 C 0.664062 -2.925781 0.4375 -3.925781 0.4375 -5.125 L 0.4375 -5.1875 C 0.4375 -6.363281 0.679688 -7.359375 1.171875 -8.171875 C 1.671875 -8.984375 2.328125 -9.597656 3.140625 -10.015625 C 3.960938 -10.429688 4.84375 -10.640625 5.78125 -10.640625 C 6.800781 -10.640625 7.707031 -10.4375 8.5 -10.03125 C 9.300781 -9.632812 9.929688 -9.039062 10.390625 -8.25 C 10.847656 -7.457031 11.078125 -6.46875 11.078125 -5.28125 L 11.078125 -5.171875 C 11.078125 -4.003906 10.828125 -3.015625 10.328125 -2.203125 C 9.828125 -1.390625 9.171875 -0.773438 8.359375 -0.359375 C 7.554688 0.0546875 6.695312 0.265625 5.78125 0.265625 Z M 5.78125 -1.859375 C 6.195312 -1.859375 6.582031 -1.957031 6.9375 -2.15625 C 7.289062 -2.363281 7.570312 -2.703125 7.78125 -3.171875 C 8 -3.648438 8.109375 -4.3125 8.109375 -5.15625 L 8.109375 -5.203125 C 8.109375 -6.054688 8 -6.722656 7.78125 -7.203125 C 7.570312 -7.679688 7.289062 -8.019531 6.9375 -8.21875 C 6.59375 -8.425781 6.207031 -8.53125 5.78125 -8.53125 C 5.363281 -8.53125 4.972656 -8.425781 4.609375 -8.21875 C 4.242188 -8.007812 3.953125 -7.660156 3.734375 -7.171875 C 3.515625 -6.691406 3.40625 -6.03125 3.40625 -5.1875 L 3.40625 -5.125 C 3.40625 -4.300781 3.507812 -3.648438 3.71875 -3.171875 C 3.925781 -2.703125 4.207031 -2.363281 4.5625 -2.15625 C 4.925781 -1.957031 5.332031 -1.859375 5.78125 -1.859375 Z M 5.78125 -1.859375 "/></g></g></g><g fill="#000000" fill-opacity="1"><g transform="translate(158.626492, 35.776738)"><g><path d="M 8.1875 -9.046875 L 8.1875 -14.6875 L 10.96875 -14.6875 L 10.96875 0 L 8.421875 0 L 8.453125 -2.015625 C 8.234375 -1.410156 7.9375 -0.945312 7.5625 -0.625 C 7.195312 -0.3125 6.78125 -0.0976562 6.3125 0.015625 C 5.84375 0.140625 5.34375 0.203125 4.8125 0.203125 C 4.082031 0.203125 3.378906 0.03125 2.703125 -0.3125 C 2.035156 -0.664062 1.488281 -1.222656 1.0625 -1.984375 C 0.644531 -2.753906 0.4375 -3.753906 0.4375 -4.984375 L 0.4375 -5.125 C 0.4375 -6.382812 0.648438 -7.414062 1.078125 -8.21875 C 1.515625 -9.03125 2.070312 -9.632812 2.75 -10.03125 C 3.425781 -10.4375 4.128906 -10.640625 4.859375 -10.640625 C 5.585938 -10.640625 6.234375 -10.53125 6.796875 -10.3125 C 7.367188 -10.101562 7.832031 -9.679688 8.1875 -9.046875 Z M 5.75 -1.953125 C 6.144531 -1.953125 6.523438 -2.046875 6.890625 -2.234375 C 7.265625 -2.421875 7.570312 -2.742188 7.8125 -3.203125 C 8.0625 -3.671875 8.1875 -4.332031 8.1875 -5.1875 C 8.1875 -6.40625 7.957031 -7.257812 7.5 -7.75 C 7.050781 -8.25 6.484375 -8.5 5.796875 -8.5 C 5.097656 -8.5 4.53125 -8.210938 4.09375 -7.640625 C 3.65625 -7.066406 3.4375 -6.253906 3.4375 -5.203125 L 3.4375 -5.109375 C 3.4375 -4.035156 3.65625 -3.238281 4.09375 -2.71875 C 4.539062 -2.207031 5.09375 -1.953125 5.75 -1.953125 Z M 5.75 -1.953125 "/></g></g></g><g fill="#000000" fill-opacity="1"><g transform="translate(170.632042, 35.776738)"><g><path d="M 7.109375 -10.609375 C 7.878906 -10.609375 8.601562 -10.429688 9.28125 -10.078125 C 9.957031 -9.734375 10.503906 -9.175781 10.921875 -8.40625 C 11.335938 -7.644531 11.546875 -6.640625 11.546875 -5.390625 L 11.546875 -5.28125 C 11.546875 -4.03125 11.320312 -2.992188 10.875 -2.171875 C 10.4375 -1.359375 9.863281 -0.753906 9.15625 -0.359375 C 8.445312 0.0351562 7.703125 0.234375 6.921875 0.234375 C 6.234375 0.234375 5.613281 0.117188 5.0625 -0.109375 C 4.507812 -0.347656 4.070312 -0.804688 3.75 -1.484375 L 3.75 0 L 1.046875 0 L 1.046875 -14.6875 L 3.8125 -14.6875 L 3.8125 -10.640625 L 3.765625 -8.625 C 4.117188 -9.40625 4.585938 -9.929688 5.171875 -10.203125 C 5.765625 -10.472656 6.410156 -10.609375 7.109375 -10.609375 Z M 8.546875 -5.1875 L 8.546875 -5.296875 C 8.546875 -6.378906 8.332031 -7.175781 7.90625 -7.6875 C 7.476562 -8.195312 6.925781 -8.453125 6.25 -8.453125 C 5.875 -8.453125 5.5 -8.359375 5.125 -8.171875 C 4.75 -7.984375 4.4375 -7.65625 4.1875 -7.1875 C 3.9375 -6.71875 3.8125 -6.054688 3.8125 -5.203125 C 3.8125 -3.984375 4.039062 -3.128906 4.5 -2.640625 C 4.957031 -2.160156 5.53125 -1.921875 6.21875 -1.921875 C 6.914062 -1.921875 7.476562 -2.203125 7.90625 -2.765625 C 8.332031 -3.335938 8.546875 -4.144531 8.546875 -5.1875 Z M 8.546875 -5.1875 "/></g></g></g><g fill="#000000" fill-opacity="1"><g transform="translate(182.618594, 35.776738)"><g><path d="M 2.296875 3.90625 C 2.015625 3.90625 1.800781 3.898438 1.65625 3.890625 C 1.507812 3.890625 1.375 3.875 1.25 3.84375 L 1.25 1.59375 C 1.394531 1.601562 1.519531 1.613281 1.625 1.625 C 1.726562 1.644531 1.859375 1.65625 2.015625 1.65625 C 2.378906 1.65625 2.710938 1.578125 3.015625 1.421875 C 3.328125 1.273438 3.5625 1.003906 3.71875 0.609375 C 3.769531 0.492188 3.8125 0.390625 3.84375 0.296875 C 3.875 0.203125 3.894531 0.125 3.90625 0.0625 L 0.09375 -10.390625 L 3.078125 -10.390625 L 5.59375 -2.734375 L 5.625 -2.734375 L 8.015625 -10.390625 L 10.875 -10.390625 L 7.03125 -0.078125 C 6.71875 0.785156 6.363281 1.515625 5.96875 2.109375 C 5.570312 2.703125 5.082031 3.148438 4.5 3.453125 C 3.914062 3.753906 3.179688 3.90625 2.296875 3.90625 Z M 2.296875 3.90625 "/></g></g></g><g fill="#000000" fill-opacity="1"><g transform="translate(193.579356, 35.776738)"><g><path d="M 10.734375 -5.640625 L 10.734375 -4.84375 L 3.359375 -4.84375 C 3.367188 -3.820312 3.585938 -3.050781 4.015625 -2.53125 C 4.453125 -2.007812 5.015625 -1.75 5.703125 -1.75 C 6.273438 -1.75 6.742188 -1.863281 7.109375 -2.09375 C 7.484375 -2.320312 7.722656 -2.628906 7.828125 -3.015625 L 10.609375 -3.015625 C 10.429688 -2.054688 9.921875 -1.269531 9.078125 -0.65625 C 8.242188 -0.0390625 7.101562 0.265625 5.65625 0.265625 C 4.039062 0.265625 2.765625 -0.1875 1.828125 -1.09375 C 0.898438 -2 0.4375 -3.34375 0.4375 -5.125 L 0.4375 -5.203125 C 0.4375 -6.359375 0.671875 -7.335938 1.140625 -8.140625 C 1.617188 -8.941406 2.253906 -9.554688 3.046875 -9.984375 C 3.835938 -10.421875 4.703125 -10.640625 5.640625 -10.640625 C 7.171875 -10.640625 8.398438 -10.21875 9.328125 -9.375 C 10.265625 -8.539062 10.734375 -7.296875 10.734375 -5.640625 Z M 3.421875 -6.578125 L 7.828125 -6.578125 C 7.816406 -7.222656 7.609375 -7.738281 7.203125 -8.125 C 6.804688 -8.507812 6.285156 -8.703125 5.640625 -8.703125 C 5.046875 -8.703125 4.550781 -8.515625 4.15625 -8.140625 C 3.769531 -7.765625 3.523438 -7.242188 3.421875 -6.578125 Z M 3.421875 -6.578125 "/></g></g></g></svg>