<svg xmlns="http://www.w3.org/2000/svg" xmlns:xlink="http://www.w3.org/1999/xlink" width="460" zoomAndPan="magnify" viewBox="0 0 345 60" height="80" preserveAspectRatio="xMidYMid meet" version="1.0"><defs><g/><clipPath id="0a68dc3234"><path d="M 45.003906 3.195312 L 345 3.195312 L 345 55.605469 L 45.003906 55.605469 Z M 45.003906 3.195312 " clip-rule="nonzero"/></clipPath><clipPath id="600aba3917"><path d="M 54.003906 3.195312 L 336 3.195312 C 340.96875 3.195312 345 7.226562 345 12.195312 L 345 46.605469 C 345 51.578125 340.96875 55.605469 336 55.605469 L 54.003906 55.605469 C 49.035156 55.605469 45.003906 51.578125 45.003906 46.605469 L 45.003906 12.195312 C 45.003906 7.226562 49.035156 3.195312 54.003906 3.195312 Z M 54.003906 3.195312 " clip-rule="nonzero"/></clipPath><clipPath id="73997ef7d8"><path d="M 0.00390625 0.195312 L 300 0.195312 L 300 52.605469 L 0.00390625 52.605469 Z M 0.00390625 0.195312 " clip-rule="nonzero"/></clipPath><clipPath id="3eac56f9e5"><path d="M 9.003906 0.195312 L 291 0.195312 C 295.96875 0.195312 300 4.226562 300 9.195312 L 300 43.605469 C 300 48.578125 295.96875 52.605469 291 52.605469 L 9.003906 52.605469 C 4.035156 52.605469 0.00390625 48.578125 0.00390625 43.605469 L 0.00390625 9.195312 C 0.00390625 4.226562 4.035156 0.195312 9.003906 0.195312 Z M 9.003906 0.195312 " clip-rule="nonzero"/></clipPath><clipPath id="a0660fb7fc"><rect x="0" width="300" y="0" height="53"/></clipPath><clipPath id="9a4739ea40"><path d="M 0 0 L 58.804688 0 L 58.804688 58.804688 L 0 58.804688 Z M 0 0 " clip-rule="nonzero"/></clipPath><clipPath id="8d8c323b1e"><path d="M 9 0 L 49.804688 0 C 54.773438 0 58.804688 4.03125 58.804688 9 L 58.804688 49.804688 C 58.804688 54.773438 54.773438 58.804688 49.804688 58.804688 L 9 58.804688 C 4.03125 58.804688 0 54.773438 0 49.804688 L 0 9 C 0 4.03125 4.03125 0 9 0 Z M 9 0 " clip-rule="nonzero"/></clipPath><clipPath id="69aec5ebc7"><path d="M 0 0 L 58.804688 0 L 58.804688 58.804688 L 0 58.804688 Z M 0 0 " clip-rule="nonzero"/></clipPath><clipPath id="a7ae3e7d20"><path d="M 9 0 L 49.804688 0 C 54.773438 0 58.804688 4.03125 58.804688 9 L 58.804688 49.804688 C 58.804688 54.773438 54.773438 58.804688 49.804688 58.804688 L 9 58.804688 C 4.03125 58.804688 0 54.773438 0 49.804688 L 0 9 C 0 4.03125 4.03125 0 9 0 Z M 9 0 " clip-rule="nonzero"/></clipPath><clipPath id="c392d939a8"><rect x="0" width="59" y="0" height="59"/></clipPath><clipPath id="9b29a28f57"><rect x="0" width="29" y="0" height="54"/></clipPath></defs><g clip-path="url(#0a68dc3234)"><g clip-path="url(#600aba3917)"><g transform="matrix(1, 0, 0, 1, 45, 3)"><g clip-path="url(#a0660fb7fc)"><g clip-path="url(#73997ef7d8)"><g clip-path="url(#3eac56f9e5)"><path fill="#a4e2ff" d="M 0.00390625 0.195312 L 299.921875 0.195312 L 299.921875 52.605469 L 0.00390625 52.605469 Z M 0.00390625 0.195312 " fill-opacity="1" fill-rule="nonzero"/></g></g></g></g></g></g><g clip-path="url(#9a4739ea40)"><g clip-path="url(#8d8c323b1e)"><g transform="matrix(1, 0, 0, 1, 0, -0.000000000000001479)"><g clip-path="url(#c392d939a8)"><g clip-path="url(#69aec5ebc7)"><g clip-path="url(#a7ae3e7d20)"><path fill="#00a0e9" d="M 0 0 L 58.804688 0 L 58.804688 58.804688 L 0 58.804688 Z M 0 0 " fill-opacity="1" fill-rule="nonzero"/></g></g></g></g></g></g><g transform="matrix(1, 0, 0, 1, 16, 3)"><g clip-path="url(#9b29a28f57)"><g fill="#ffffff" fill-opacity="1"><g transform="translate(0.680312, 44.05131)"><g><path d="M 9.4375 -5.484375 L 25.59375 -5.484375 L 25.59375 0 L 1.875 0 L 1.875 -3.140625 C 1.875 -4.585938 2.300781 -6.015625 3.15625 -7.421875 C 4.007812 -8.828125 5.351562 -10.226562 7.1875 -11.625 L 14.578125 -17.234375 C 15.910156 -18.242188 16.890625 -19.113281 17.515625 -19.84375 C 18.140625 -20.570312 18.453125 -21.484375 18.453125 -22.578125 C 18.453125 -23.679688 18.050781 -24.625 17.25 -25.40625 C 16.457031 -26.195312 15.289062 -26.59375 13.75 -26.59375 C 12.238281 -26.59375 10.988281 -26.078125 10 -25.046875 C 9.019531 -24.015625 8.53125 -22.613281 8.53125 -20.84375 L 8.53125 -20.5 L 1.875 -20.5 L 1.875 -21.015625 C 1.875 -23.191406 2.351562 -25.078125 3.3125 -26.671875 C 4.269531 -28.265625 5.617188 -29.503906 7.359375 -30.390625 C 9.097656 -31.273438 11.140625 -31.71875 13.484375 -31.71875 C 15.773438 -31.71875 17.796875 -31.375 19.546875 -30.6875 C 21.304688 -30.007812 22.691406 -29.019531 23.703125 -27.71875 C 24.722656 -26.414062 25.234375 -24.847656 25.234375 -23.015625 C 25.234375 -21.566406 24.988281 -20.296875 24.5 -19.203125 C 24.007812 -18.117188 23.304688 -17.125 22.390625 -16.21875 C 21.472656 -15.320312 20.347656 -14.382812 19.015625 -13.40625 L 12.359375 -8.484375 C 11.367188 -7.753906 10.660156 -7.164062 10.234375 -6.71875 C 9.816406 -6.269531 9.550781 -5.859375 9.4375 -5.484375 Z M 9.4375 -5.484375 "/></g></g></g></g></g><g fill="#000000" fill-opacity="1"><g transform="translate(67.369156, 35.776736)"><g><path d="M 6.34375 0.28125 C 5.125 0.28125 4.085938 0.0859375 3.234375 -0.296875 C 2.378906 -0.679688 1.726562 -1.207031 1.28125 -1.875 C 0.832031 -2.550781 0.609375 -3.3125 0.609375 -4.15625 L 3.625 -4.15625 C 3.625 -3.800781 3.742188 -3.457031 3.984375 -3.125 C 4.222656 -2.789062 4.566406 -2.507812 5.015625 -2.28125 C 5.460938 -2.0625 5.984375 -1.953125 6.578125 -1.953125 C 7.398438 -1.953125 8.019531 -2.125 8.4375 -2.46875 C 8.851562 -2.8125 9.0625 -3.238281 9.0625 -3.75 C 9.0625 -4.238281 8.921875 -4.617188 8.640625 -4.890625 C 8.367188 -5.171875 7.863281 -5.4375 7.125 -5.6875 L 4.375 -6.578125 C 3.21875 -6.941406 2.382812 -7.460938 1.875 -8.140625 C 1.375 -8.816406 1.125 -9.617188 1.125 -10.546875 C 1.125 -11.304688 1.347656 -11.96875 1.796875 -12.53125 C 2.253906 -13.09375 2.882812 -13.53125 3.6875 -13.84375 C 4.5 -14.164062 5.421875 -14.328125 6.453125 -14.328125 C 7.535156 -14.328125 8.46875 -14.160156 9.25 -13.828125 C 10.039062 -13.503906 10.648438 -13.046875 11.078125 -12.453125 C 11.515625 -11.867188 11.734375 -11.179688 11.734375 -10.390625 L 8.734375 -10.390625 C 8.734375 -10.722656 8.617188 -11.019531 8.390625 -11.28125 C 8.171875 -11.539062 7.875 -11.742188 7.5 -11.890625 C 7.132812 -12.046875 6.738281 -12.125 6.3125 -12.125 C 5.6875 -12.125 5.160156 -11.992188 4.734375 -11.734375 C 4.316406 -11.484375 4.109375 -11.125 4.109375 -10.65625 C 4.109375 -10.21875 4.253906 -9.851562 4.546875 -9.5625 C 4.835938 -9.28125 5.3125 -9.03125 5.96875 -8.8125 L 8.390625 -8.015625 C 9.296875 -7.722656 10.015625 -7.40625 10.546875 -7.0625 C 11.078125 -6.726562 11.460938 -6.328125 11.703125 -5.859375 C 11.941406 -5.390625 12.0625 -4.8125 12.0625 -4.125 C 12.0625 -3.175781 11.820312 -2.367188 11.34375 -1.703125 C 10.863281 -1.046875 10.195312 -0.550781 9.34375 -0.21875 C 8.488281 0.113281 7.488281 0.28125 6.34375 0.28125 Z M 6.34375 0.28125 "/></g></g></g><g fill="#000000" fill-opacity="1"><g transform="translate(80.229534, 35.776736)"><g><path d="M 2.609375 -11.46875 C 2.171875 -11.46875 1.796875 -11.625 1.484375 -11.9375 C 1.179688 -12.25 1.03125 -12.617188 1.03125 -13.046875 C 1.03125 -13.492188 1.179688 -13.867188 1.484375 -14.171875 C 1.796875 -14.472656 2.171875 -14.625 2.609375 -14.625 C 3.046875 -14.625 3.414062 -14.472656 3.71875 -14.171875 C 4.03125 -13.867188 4.1875 -13.492188 4.1875 -13.046875 C 4.1875 -12.617188 4.03125 -12.25 3.71875 -11.9375 C 3.414062 -11.625 3.046875 -11.46875 2.609375 -11.46875 Z M 4.015625 -10.390625 L 4.015625 0 L 1.234375 0 L 1.234375 -10.390625 Z M 4.015625 -10.390625 "/></g></g></g><g fill="#000000" fill-opacity="1"><g transform="translate(85.928371, 35.776736)"><g><path d="M 7.09375 -10.609375 C 8.15625 -10.609375 9.023438 -10.285156 9.703125 -9.640625 C 10.378906 -9.003906 10.71875 -7.988281 10.71875 -6.59375 L 10.71875 0 L 7.9375 0 L 7.9375 -6.0625 C 7.9375 -6.84375 7.757812 -7.398438 7.40625 -7.734375 C 7.0625 -8.078125 6.613281 -8.25 6.0625 -8.25 C 5.5625 -8.25 5.144531 -8.140625 4.8125 -7.921875 C 4.488281 -7.703125 4.242188 -7.429688 4.078125 -7.109375 C 3.921875 -6.785156 3.832031 -6.445312 3.8125 -6.09375 L 3.8125 0 L 1.046875 0 L 1.046875 -10.390625 L 3.53125 -10.390625 L 3.53125 -10.015625 C 3.53125 -9.734375 3.523438 -9.472656 3.515625 -9.234375 C 3.515625 -8.992188 3.515625 -8.707031 3.515625 -8.375 L 3.546875 -8.375 C 3.742188 -9.007812 4.019531 -9.484375 4.375 -9.796875 C 4.726562 -10.117188 5.140625 -10.332031 5.609375 -10.4375 C 6.078125 -10.550781 6.570312 -10.609375 7.09375 -10.609375 Z M 7.09375 -10.609375 "/></g></g></g><g fill="#000000" fill-opacity="1"><g transform="translate(97.629977, 35.776736)"><g><path d="M 8.46875 -8.453125 L 8.46875 -10.390625 L 10.96875 -10.390625 L 10.96875 -1.078125 C 10.96875 0.535156 10.503906 1.773438 9.578125 2.640625 C 8.648438 3.503906 7.375 3.9375 5.75 3.9375 C 4.34375 3.9375 3.226562 3.6875 2.40625 3.1875 C 1.582031 2.6875 1.082031 1.957031 0.90625 1 L 3.625 1 C 3.738281 1.257812 3.992188 1.46875 4.390625 1.625 C 4.796875 1.78125 5.285156 1.859375 5.859375 1.859375 C 6.566406 1.859375 7.140625 1.675781 7.578125 1.3125 C 8.015625 0.957031 8.234375 0.398438 8.234375 -0.359375 L 8.234375 -1.9375 C 7.890625 -1.3125 7.425781 -0.863281 6.84375 -0.59375 C 6.269531 -0.332031 5.597656 -0.203125 4.828125 -0.203125 C 3.941406 -0.203125 3.164062 -0.40625 2.5 -0.8125 C 1.84375 -1.226562 1.332031 -1.820312 0.96875 -2.59375 C 0.613281 -3.363281 0.4375 -4.269531 0.4375 -5.3125 C 0.4375 -6.507812 0.65625 -7.5 1.09375 -8.28125 C 1.53125 -9.070312 2.101562 -9.660156 2.8125 -10.046875 C 3.53125 -10.441406 4.296875 -10.640625 5.109375 -10.640625 C 5.859375 -10.640625 6.523438 -10.492188 7.109375 -10.203125 C 7.703125 -9.910156 8.15625 -9.328125 8.46875 -8.453125 Z M 5.78125 -2.296875 C 6.15625 -2.296875 6.53125 -2.382812 6.90625 -2.5625 C 7.28125 -2.75 7.585938 -3.066406 7.828125 -3.515625 C 8.066406 -3.972656 8.1875 -4.597656 8.1875 -5.390625 L 8.1875 -5.46875 C 8.175781 -6.5625 7.941406 -7.34375 7.484375 -7.8125 C 7.023438 -8.289062 6.460938 -8.53125 5.796875 -8.53125 C 5.097656 -8.53125 4.53125 -8.25 4.09375 -7.6875 C 3.65625 -7.125 3.4375 -6.359375 3.4375 -5.390625 C 3.4375 -4.398438 3.648438 -3.632812 4.078125 -3.09375 C 4.515625 -2.5625 5.082031 -2.296875 5.78125 -2.296875 Z M 5.78125 -2.296875 "/></g></g></g></svg>