<svg xmlns="http://www.w3.org/2000/svg" xmlns:xlink="http://www.w3.org/1999/xlink" width="460" zoomAndPan="magnify" viewBox="0 0 345 60" height="80" preserveAspectRatio="xMidYMid meet" version="1.0"><defs><g/><clipPath id="45a2ba94b0"><path d="M 45.003906 3.195312 L 345 3.195312 L 345 55.605469 L 45.003906 55.605469 Z M 45.003906 3.195312 " clip-rule="nonzero"/></clipPath><clipPath id="c2b8495746"><path d="M 54.003906 3.195312 L 336 3.195312 C 340.96875 3.195312 345 7.226562 345 12.195312 L 345 46.605469 C 345 51.578125 340.96875 55.605469 336 55.605469 L 54.003906 55.605469 C 49.035156 55.605469 45.003906 51.578125 45.003906 46.605469 L 45.003906 12.195312 C 45.003906 7.226562 49.035156 3.195312 54.003906 3.195312 Z M 54.003906 3.195312 " clip-rule="nonzero"/></clipPath><clipPath id="412928db56"><path d="M 0.00390625 0.195312 L 300 0.195312 L 300 52.605469 L 0.00390625 52.605469 Z M 0.00390625 0.195312 " clip-rule="nonzero"/></clipPath><clipPath id="87961002cd"><path d="M 9.003906 0.195312 L 291 0.195312 C 295.96875 0.195312 300 4.226562 300 9.195312 L 300 43.605469 C 300 48.578125 295.96875 52.605469 291 52.605469 L 9.003906 52.605469 C 4.035156 52.605469 0.00390625 48.578125 0.00390625 43.605469 L 0.00390625 9.195312 C 0.00390625 4.226562 4.035156 0.195312 9.003906 0.195312 Z M 9.003906 0.195312 " clip-rule="nonzero"/></clipPath><clipPath id="251106519e"><rect x="0" width="300" y="0" height="53"/></clipPath><clipPath id="e6884337c2"><path d="M 0 0 L 58.804688 0 L 58.804688 58.804688 L 0 58.804688 Z M 0 0 " clip-rule="nonzero"/></clipPath><clipPath id="67e687ede3"><path d="M 9 0 L 49.804688 0 C 54.773438 0 58.804688 4.03125 58.804688 9 L 58.804688 49.804688 C 58.804688 54.773438 54.773438 58.804688 49.804688 58.804688 L 9 58.804688 C 4.03125 58.804688 0 54.773438 0 49.804688 L 0 9 C 0 4.03125 4.03125 0 9 0 Z M 9 0 " clip-rule="nonzero"/></clipPath><clipPath id="d04bbddbf6"><path d="M 0 0 L 58.804688 0 L 58.804688 58.804688 L 0 58.804688 Z M 0 0 " clip-rule="nonzero"/></clipPath><clipPath id="ecdf0080c2"><path d="M 9 0 L 49.804688 0 C 54.773438 0 58.804688 4.03125 58.804688 9 L 58.804688 49.804688 C 58.804688 54.773438 54.773438 58.804688 49.804688 58.804688 L 9 58.804688 C 4.03125 58.804688 0 54.773438 0 49.804688 L 0 9 C 0 4.03125 4.03125 0 9 0 Z M 9 0 " clip-rule="nonzero"/></clipPath><clipPath id="1e3d1e996d"><rect x="0" width="59" y="0" height="59"/></clipPath><clipPath id="4c8789ba3c"><rect x="0" width="29" y="0" height="54"/></clipPath></defs><g clip-path="url(#45a2ba94b0)"><g clip-path="url(#c2b8495746)"><g transform="matrix(1, 0, 0, 1, 45, 3)"><g clip-path="url(#251106519e)"><g clip-path="url(#412928db56)"><g clip-path="url(#87961002cd)"><path fill="#a4e2ff" d="M 0.00390625 0.195312 L 299.921875 0.195312 L 299.921875 52.605469 L 0.00390625 52.605469 Z M 0.00390625 0.195312 " fill-opacity="1" fill-rule="nonzero"/></g></g></g></g></g></g><g clip-path="url(#e6884337c2)"><g clip-path="url(#67e687ede3)"><g transform="matrix(1, 0, 0, 1, 0, -0.000000000000001479)"><g clip-path="url(#1e3d1e996d)"><g clip-path="url(#d04bbddbf6)"><g clip-path="url(#ecdf0080c2)"><path fill="#00a0e9" d="M 0 0 L 58.804688 0 L 58.804688 58.804688 L 0 58.804688 Z M 0 0 " fill-opacity="1" fill-rule="nonzero"/></g></g></g></g></g></g><g transform="matrix(1, 0, 0, 1, 16, 3)"><g clip-path="url(#4c8789ba3c)"><g fill="#ffffff" fill-opacity="1"><g transform="translate(0.680312, 44.05131)"><g><path d="M 13.140625 0.5625 C 9.515625 0.5625 6.738281 -0.273438 4.8125 -1.953125 C 2.882812 -3.640625 1.921875 -5.90625 1.921875 -8.75 L 1.921875 -9.359375 L 8.484375 -9.359375 L 8.484375 -9.046875 C 8.484375 -7.804688 8.941406 -6.765625 9.859375 -5.921875 C 10.773438 -5.078125 12.085938 -4.65625 13.796875 -4.65625 C 15.359375 -4.65625 16.566406 -5.097656 17.421875 -5.984375 C 18.285156 -6.867188 18.71875 -7.9375 18.71875 -9.1875 L 18.71875 -9.484375 C 18.71875 -11.023438 18.300781 -12.148438 17.46875 -12.859375 C 16.644531 -13.566406 15.304688 -13.921875 13.453125 -13.921875 L 10.53125 -13.921875 L 10.53125 -18.671875 L 13.484375 -18.671875 C 15.140625 -18.671875 16.320312 -19.046875 17.03125 -19.796875 C 17.75 -20.554688 18.109375 -21.546875 18.109375 -22.765625 L 18.109375 -23.015625 C 18.109375 -24.203125 17.707031 -25.09375 16.90625 -25.6875 C 16.101562 -26.289062 15.082031 -26.59375 13.84375 -26.59375 C 12.332031 -26.59375 11.144531 -26.222656 10.28125 -25.484375 C 9.425781 -24.742188 9 -23.773438 9 -22.578125 L 9 -22.28125 L 2.4375 -22.28125 L 2.4375 -22.796875 C 2.4375 -24.421875 2.863281 -25.90625 3.71875 -27.25 C 4.570312 -28.601562 5.835938 -29.6875 7.515625 -30.5 C 9.203125 -31.3125 11.3125 -31.71875 13.84375 -31.71875 C 16.300781 -31.71875 18.34375 -31.332031 19.96875 -30.5625 C 21.59375 -29.800781 22.816406 -28.800781 23.640625 -27.5625 C 24.472656 -26.332031 24.890625 -25.003906 24.890625 -23.578125 L 24.890625 -23.328125 C 24.890625 -21.585938 24.429688 -20.164062 23.515625 -19.0625 C 22.609375 -17.957031 21.328125 -17.1875 19.671875 -16.75 L 19.671875 -16.578125 C 21.410156 -16.140625 22.816406 -15.296875 23.890625 -14.046875 C 24.960938 -12.804688 25.5 -11.140625 25.5 -9.046875 L 25.5 -8.796875 C 25.5 -7.046875 25.035156 -5.46875 24.109375 -4.0625 C 23.179688 -2.65625 21.800781 -1.53125 19.96875 -0.6875 C 18.144531 0.144531 15.867188 0.5625 13.140625 0.5625 Z M 13.140625 0.5625 "/></g></g></g></g></g><g fill="#000000" fill-opacity="1"><g transform="translate(67.369156, 35.776744)"><g><path d="M 6.921875 0.25 C 5.671875 0.25 4.582031 -0.0234375 3.65625 -0.578125 C 2.726562 -1.128906 2.003906 -1.929688 1.484375 -2.984375 C 0.972656 -4.035156 0.71875 -5.304688 0.71875 -6.796875 L 0.71875 -6.96875 C 0.71875 -8.488281 1.007812 -9.796875 1.59375 -10.890625 C 2.175781 -11.992188 2.988281 -12.835938 4.03125 -13.421875 C 5.082031 -14.015625 6.285156 -14.3125 7.640625 -14.3125 C 8.828125 -14.3125 9.859375 -14.128906 10.734375 -13.765625 C 11.617188 -13.398438 12.320312 -12.898438 12.84375 -12.265625 C 13.375 -11.640625 13.691406 -10.914062 13.796875 -10.09375 L 10.71875 -10.09375 C 10.507812 -10.570312 10.132812 -10.984375 9.59375 -11.328125 C 9.0625 -11.671875 8.363281 -11.84375 7.5 -11.84375 C 6.414062 -11.84375 5.519531 -11.445312 4.8125 -10.65625 C 4.101562 -9.863281 3.75 -8.65625 3.75 -7.03125 L 3.75 -6.875 C 3.75 -5.382812 4.097656 -4.242188 4.796875 -3.453125 C 5.503906 -2.671875 6.429688 -2.28125 7.578125 -2.28125 C 8.734375 -2.28125 9.566406 -2.515625 10.078125 -2.984375 C 10.585938 -3.460938 10.867188 -4.132812 10.921875 -5 L 7.9375 -5 L 7.9375 -7.234375 L 13.921875 -7.234375 L 13.921875 0 L 11.40625 0 L 11.40625 -0.515625 C 11.40625 -0.765625 11.40625 -0.992188 11.40625 -1.203125 C 11.40625 -1.410156 11.410156 -1.753906 11.421875 -2.234375 L 11.375 -2.234375 C 11.125 -1.390625 10.597656 -0.765625 9.796875 -0.359375 C 8.992188 0.046875 8.035156 0.25 6.921875 0.25 Z M 6.921875 0.25 "/></g></g></g><g fill="#000000" fill-opacity="1"><g transform="translate(82.357094, 35.776744)"><g><path d="M 8.234375 -8.96875 L 8.234375 -10.390625 L 10.96875 -10.390625 L 10.96875 0 L 8.234375 0 L 8.234375 -1.5 C 7.867188 -0.800781 7.382812 -0.34375 6.78125 -0.125 C 6.1875 0.09375 5.53125 0.203125 4.8125 0.203125 C 4.082031 0.203125 3.378906 0.03125 2.703125 -0.3125 C 2.035156 -0.664062 1.488281 -1.222656 1.0625 -1.984375 C 0.644531 -2.753906 0.4375 -3.753906 0.4375 -4.984375 L 0.4375 -5.125 C 0.4375 -6.382812 0.648438 -7.414062 1.078125 -8.21875 C 1.515625 -9.03125 2.070312 -9.632812 2.75 -10.03125 C 3.425781 -10.4375 4.128906 -10.640625 4.859375 -10.640625 C 5.609375 -10.640625 6.265625 -10.523438 6.828125 -10.296875 C 7.398438 -10.066406 7.867188 -9.625 8.234375 -8.96875 Z M 5.75 -1.953125 C 6.144531 -1.953125 6.523438 -2.046875 6.890625 -2.234375 C 7.265625 -2.421875 7.570312 -2.742188 7.8125 -3.203125 C 8.0625 -3.671875 8.1875 -4.332031 8.1875 -5.1875 C 8.1875 -6.40625 7.957031 -7.257812 7.5 -7.75 C 7.050781 -8.25 6.484375 -8.5 5.796875 -8.5 C 5.097656 -8.5 4.53125 -8.210938 4.09375 -7.640625 C 3.65625 -7.066406 3.4375 -6.253906 3.4375 -5.203125 L 3.4375 -5.109375 C 3.4375 -4.035156 3.65625 -3.238281 4.09375 -2.71875 C 4.539062 -2.207031 5.09375 -1.953125 5.75 -1.953125 Z M 5.75 -1.953125 "/></g></g></g><g fill="#000000" fill-opacity="1"><g transform="translate(94.343646, 35.776744)"><g><path d="M 3.875 -14.6875 L 3.875 0 L 1.109375 0 L 1.109375 -14.6875 Z M 3.875 -14.6875 "/></g></g></g><g fill="#000000" fill-opacity="1"><g transform="translate(99.320624, 35.776744)"><g><path d="M 8.234375 -8.96875 L 8.234375 -10.390625 L 10.96875 -10.390625 L 10.96875 0 L 8.234375 0 L 8.234375 -1.5 C 7.867188 -0.800781 7.382812 -0.34375 6.78125 -0.125 C 6.1875 0.09375 5.53125 0.203125 4.8125 0.203125 C 4.082031 0.203125 3.378906 0.03125 2.703125 -0.3125 C 2.035156 -0.664062 1.488281 -1.222656 1.0625 -1.984375 C 0.644531 -2.753906 0.4375 -3.753906 0.4375 -4.984375 L 0.4375 -5.125 C 0.4375 -6.382812 0.648438 -7.414062 1.078125 -8.21875 C 1.515625 -9.03125 2.070312 -9.632812 2.75 -10.03125 C 3.425781 -10.4375 4.128906 -10.640625 4.859375 -10.640625 C 5.609375 -10.640625 6.265625 -10.523438 6.828125 -10.296875 C 7.398438 -10.066406 7.867188 -9.625 8.234375 -8.96875 Z M 5.75 -1.953125 C 6.144531 -1.953125 6.523438 -2.046875 6.890625 -2.234375 C 7.265625 -2.421875 7.570312 -2.742188 7.8125 -3.203125 C 8.0625 -3.671875 8.1875 -4.332031 8.1875 -5.1875 C 8.1875 -6.40625 7.957031 -7.257812 7.5 -7.75 C 7.050781 -8.25 6.484375 -8.5 5.796875 -8.5 C 5.097656 -8.5 4.53125 -8.210938 4.09375 -7.640625 C 3.65625 -7.066406 3.4375 -6.253906 3.4375 -5.203125 L 3.4375 -5.109375 C 3.4375 -4.035156 3.65625 -3.238281 4.09375 -2.71875 C 4.539062 -2.207031 5.09375 -1.953125 5.75 -1.953125 Z M 5.75 -1.953125 "/></g></g></g><g fill="#000000" fill-opacity="1"><g transform="translate(111.307177, 35.776744)"><g><path d="M 5.453125 -3.28125 L 3.140625 0 L 0.09375 0 L 3.78125 -5.125 L 0.09375 -10.390625 L 3.265625 -10.390625 L 5.5625 -7.125 L 5.609375 -7.125 L 7.90625 -10.390625 L 10.90625 -10.390625 L 7.28125 -5.21875 L 10.90625 0 L 7.75 0 L 5.484375 -3.28125 Z M 5.453125 -3.28125 "/></g></g></g><g fill="#000000" fill-opacity="1"><g transform="translate(122.305933, 35.776744)"><g><path d="M 2.296875 3.90625 C 2.015625 3.90625 1.800781 3.898438 1.65625 3.890625 C 1.507812 3.890625 1.375 3.875 1.25 3.84375 L 1.25 1.59375 C 1.394531 1.601562 1.519531 1.613281 1.625 1.625 C 1.726562 1.644531 1.859375 1.65625 2.015625 1.65625 C 2.378906 1.65625 2.710938 1.578125 3.015625 1.421875 C 3.328125 1.273438 3.5625 1.003906 3.71875 0.609375 C 3.769531 0.492188 3.8125 0.390625 3.84375 0.296875 C 3.875 0.203125 3.894531 0.125 3.90625 0.0625 L 0.09375 -10.390625 L 3.078125 -10.390625 L 5.59375 -2.734375 L 5.625 -2.734375 L 8.015625 -10.390625 L 10.875 -10.390625 L 7.03125 -0.078125 C 6.71875 0.785156 6.363281 1.515625 5.96875 2.109375 C 5.570312 2.703125 5.082031 3.148438 4.5 3.453125 C 3.914062 3.753906 3.179688 3.90625 2.296875 3.90625 Z M 2.296875 3.90625 "/></g></g></g><g fill="#000000" fill-opacity="1"><g transform="translate(133.266694, 35.776744)"><g/></g></g><g fill="#000000" fill-opacity="1"><g transform="translate(138.965532, 35.776744)"><g><path d="M 10.921875 -5.96875 L 4.28125 -5.96875 L 4.28125 -2.34375 L 11.859375 -2.34375 L 11.859375 0 L 1.421875 0 L 1.421875 -14.15625 L 11.71875 -14.15625 L 11.71875 -11.84375 L 4.28125 -11.84375 L 4.28125 -8.296875 L 10.921875 -8.296875 Z M 10.921875 -5.96875 "/></g></g></g><g fill="#000000" fill-opacity="1"><g transform="translate(151.654935, 35.776744)"><g><path d="M 5.453125 -3.28125 L 3.140625 0 L 0.09375 0 L 3.78125 -5.125 L 0.09375 -10.390625 L 3.265625 -10.390625 L 5.5625 -7.125 L 5.609375 -7.125 L 7.90625 -10.390625 L 10.90625 -10.390625 L 7.28125 -5.21875 L 10.90625 0 L 7.75 0 L 5.484375 -3.28125 Z M 5.453125 -3.28125 "/></g></g></g><g fill="#000000" fill-opacity="1"><g transform="translate(162.653691, 35.776744)"><g><path d="M 7.140625 -10.609375 C 7.890625 -10.609375 8.597656 -10.429688 9.265625 -10.078125 C 9.941406 -9.734375 10.488281 -9.175781 10.90625 -8.40625 C 11.332031 -7.644531 11.546875 -6.640625 11.546875 -5.390625 L 11.546875 -5.28125 C 11.546875 -4.03125 11.332031 -2.992188 10.90625 -2.171875 C 10.476562 -1.359375 9.914062 -0.753906 9.21875 -0.359375 C 8.53125 0.0351562 7.804688 0.234375 7.046875 0.234375 C 6.328125 0.234375 5.691406 0.125 5.140625 -0.09375 C 4.585938 -0.3125 4.144531 -0.726562 3.8125 -1.34375 L 3.8125 3.609375 L 1.046875 3.609375 L 1.046875 -10.390625 L 3.53125 -10.390625 L 3.53125 -9.859375 C 3.53125 -9.609375 3.53125 -9.375 3.53125 -9.15625 C 3.53125 -8.9375 3.523438 -8.695312 3.515625 -8.4375 L 3.578125 -8.4375 C 3.796875 -9.03125 4.082031 -9.484375 4.4375 -9.796875 C 4.800781 -10.109375 5.210938 -10.320312 5.671875 -10.4375 C 6.128906 -10.550781 6.617188 -10.609375 7.140625 -10.609375 Z M 8.546875 -5.1875 L 8.546875 -5.296875 C 8.546875 -6.378906 8.332031 -7.175781 7.90625 -7.6875 C 7.476562 -8.195312 6.925781 -8.453125 6.25 -8.453125 C 5.875 -8.453125 5.5 -8.359375 5.125 -8.171875 C 4.75 -7.984375 4.4375 -7.65625 4.1875 -7.1875 C 3.9375 -6.71875 3.8125 -6.054688 3.8125 -5.203125 C 3.8125 -3.984375 4.039062 -3.128906 4.5 -2.640625 C 4.957031 -2.160156 5.53125 -1.921875 6.21875 -1.921875 C 6.914062 -1.921875 7.476562 -2.203125 7.90625 -2.765625 C 8.332031 -3.335938 8.546875 -4.144531 8.546875 -5.1875 Z M 8.546875 -5.1875 "/></g></g></g><g fill="#000000" fill-opacity="1"><g transform="translate(174.640243, 35.776744)"><g><path d="M 7.40625 -10.5 C 7.488281 -10.5 7.554688 -10.5 7.609375 -10.5 C 7.660156 -10.5 7.710938 -10.492188 7.765625 -10.484375 L 7.765625 -7.828125 C 7.679688 -7.835938 7.585938 -7.84375 7.484375 -7.84375 C 7.378906 -7.851562 7.257812 -7.859375 7.125 -7.859375 C 6.53125 -7.859375 5.976562 -7.75 5.46875 -7.53125 C 4.96875 -7.3125 4.5625 -7.019531 4.25 -6.65625 C 3.945312 -6.300781 3.796875 -5.910156 3.796875 -5.484375 L 3.796875 0 L 1.03125 0 L 1.03125 -10.390625 L 3.53125 -10.390625 L 3.53125 -10.015625 C 3.53125 -9.734375 3.523438 -9.445312 3.515625 -9.15625 C 3.515625 -8.875 3.515625 -8.53125 3.515625 -8.125 L 3.625 -8.125 C 3.957031 -9 4.460938 -9.613281 5.140625 -9.96875 C 5.816406 -10.320312 6.570312 -10.5 7.40625 -10.5 Z M 7.40625 -10.5 "/></g></g></g><g fill="#000000" fill-opacity="1"><g transform="translate(182.59962, 35.776744)"><g><path d="M 10.734375 -5.640625 L 10.734375 -4.84375 L 3.359375 -4.84375 C 3.367188 -3.820312 3.585938 -3.050781 4.015625 -2.53125 C 4.453125 -2.007812 5.015625 -1.75 5.703125 -1.75 C 6.273438 -1.75 6.742188 -1.863281 7.109375 -2.09375 C 7.484375 -2.320312 7.722656 -2.628906 7.828125 -3.015625 L 10.609375 -3.015625 C 10.429688 -2.054688 9.921875 -1.269531 9.078125 -0.65625 C 8.242188 -0.0390625 7.101562 0.265625 5.65625 0.265625 C 4.039062 0.265625 2.765625 -0.1875 1.828125 -1.09375 C 0.898438 -2 0.4375 -3.34375 0.4375 -5.125 L 0.4375 -5.203125 C 0.4375 -6.359375 0.671875 -7.335938 1.140625 -8.140625 C 1.617188 -8.941406 2.253906 -9.554688 3.046875 -9.984375 C 3.835938 -10.421875 4.703125 -10.640625 5.640625 -10.640625 C 7.171875 -10.640625 8.398438 -10.21875 9.328125 -9.375 C 10.265625 -8.539062 10.734375 -7.296875 10.734375 -5.640625 Z M 3.421875 -6.578125 L 7.828125 -6.578125 C 7.816406 -7.222656 7.609375 -7.738281 7.203125 -8.125 C 6.804688 -8.507812 6.285156 -8.703125 5.640625 -8.703125 C 5.046875 -8.703125 4.550781 -8.515625 4.15625 -8.140625 C 3.769531 -7.765625 3.523438 -7.242188 3.421875 -6.578125 Z M 3.421875 -6.578125 "/></g></g></g><g fill="#000000" fill-opacity="1"><g transform="translate(193.864314, 35.776744)"><g><path d="M 5.109375 0.296875 C 3.648438 0.296875 2.535156 0.0078125 1.765625 -0.5625 C 0.992188 -1.132812 0.578125 -1.921875 0.515625 -2.921875 L 3.234375 -2.921875 C 3.285156 -2.535156 3.488281 -2.21875 3.84375 -1.96875 C 4.207031 -1.71875 4.679688 -1.59375 5.265625 -1.59375 C 5.816406 -1.59375 6.25 -1.695312 6.5625 -1.90625 C 6.875 -2.113281 7.03125 -2.394531 7.03125 -2.75 C 7.03125 -3.195312 6.910156 -3.507812 6.671875 -3.6875 C 6.441406 -3.875 6.015625 -4.050781 5.390625 -4.21875 L 3.375 -4.734375 C 2.488281 -4.960938 1.820312 -5.3125 1.375 -5.78125 C 0.925781 -6.25 0.703125 -6.878906 0.703125 -7.671875 C 0.703125 -8.234375 0.890625 -8.738281 1.265625 -9.1875 C 1.648438 -9.644531 2.179688 -10.007812 2.859375 -10.28125 C 3.535156 -10.5625 4.316406 -10.691406 5.203125 -10.671875 C 6.617188 -10.660156 7.71875 -10.375 8.5 -9.8125 C 9.289062 -9.257812 9.707031 -8.5 9.75 -7.53125 L 7.03125 -7.53125 C 7.03125 -7.851562 6.851562 -8.140625 6.5 -8.390625 C 6.15625 -8.640625 5.722656 -8.765625 5.203125 -8.765625 C 4.628906 -8.765625 4.191406 -8.675781 3.890625 -8.5 C 3.585938 -8.332031 3.4375 -8.117188 3.4375 -7.859375 C 3.4375 -7.523438 3.546875 -7.273438 3.765625 -7.109375 C 3.992188 -6.953125 4.40625 -6.789062 5 -6.625 L 7.03125 -6.09375 C 7.75 -5.90625 8.3125 -5.679688 8.71875 -5.421875 C 9.132812 -5.171875 9.425781 -4.847656 9.59375 -4.453125 C 9.769531 -4.066406 9.859375 -3.578125 9.859375 -2.984375 C 9.859375 -2.242188 9.644531 -1.628906 9.21875 -1.140625 C 8.800781 -0.660156 8.234375 -0.300781 7.515625 -0.0625 C 6.796875 0.175781 5.992188 0.296875 5.109375 0.296875 Z M 5.109375 0.296875 "/></g></g></g><g fill="#000000" fill-opacity="1"><g transform="translate(204.236197, 35.776744)"><g><path d="M 5.109375 0.296875 C 3.648438 0.296875 2.535156 0.0078125 1.765625 -0.5625 C 0.992188 -1.132812 0.578125 -1.921875 0.515625 -2.921875 L 3.234375 -2.921875 C 3.285156 -2.535156 3.488281 -2.21875 3.84375 -1.96875 C 4.207031 -1.71875 4.679688 -1.59375 5.265625 -1.59375 C 5.816406 -1.59375 6.25 -1.695312 6.5625 -1.90625 C 6.875 -2.113281 7.03125 -2.394531 7.03125 -2.75 C 7.03125 -3.195312 6.910156 -3.507812 6.671875 -3.6875 C 6.441406 -3.875 6.015625 -4.050781 5.390625 -4.21875 L 3.375 -4.734375 C 2.488281 -4.960938 1.820312 -5.3125 1.375 -5.78125 C 0.925781 -6.25 0.703125 -6.878906 0.703125 -7.671875 C 0.703125 -8.234375 0.890625 -8.738281 1.265625 -9.1875 C 1.648438 -9.644531 2.179688 -10.007812 2.859375 -10.28125 C 3.535156 -10.5625 4.316406 -10.691406 5.203125 -10.671875 C 6.617188 -10.660156 7.71875 -10.375 8.5 -9.8125 C 9.289062 -9.257812 9.707031 -8.5 9.75 -7.53125 L 7.03125 -7.53125 C 7.03125 -7.851562 6.851562 -8.140625 6.5 -8.390625 C 6.15625 -8.640625 5.722656 -8.765625 5.203125 -8.765625 C 4.628906 -8.765625 4.191406 -8.675781 3.890625 -8.5 C 3.585938 -8.332031 3.4375 -8.117188 3.4375 -7.859375 C 3.4375 -7.523438 3.546875 -7.273438 3.765625 -7.109375 C 3.992188 -6.953125 4.40625 -6.789062 5 -6.625 L 7.03125 -6.09375 C 7.75 -5.90625 8.3125 -5.679688 8.71875 -5.421875 C 9.132812 -5.171875 9.425781 -4.847656 9.59375 -4.453125 C 9.769531 -4.066406 9.859375 -3.578125 9.859375 -2.984375 C 9.859375 -2.242188 9.644531 -1.628906 9.21875 -1.140625 C 8.800781 -0.660156 8.234375 -0.300781 7.515625 -0.0625 C 6.796875 0.175781 5.992188 0.296875 5.109375 0.296875 Z M 5.109375 0.296875 "/></g></g></g><g fill="#000000" fill-opacity="1"><g transform="translate(214.60808, 35.776744)"><g/></g></g><g fill="#000000" fill-opacity="1"><g transform="translate(220.306917, 35.776744)"><g><path d="M 5.8125 -13.875 C 6.851562 -13.875 7.789062 -13.632812 8.625 -13.15625 C 9.457031 -12.675781 10.117188 -11.957031 10.609375 -11 C 11.109375 -10.039062 11.359375 -8.816406 11.359375 -7.328125 L 11.359375 -7.0625 C 11.359375 -2.175781 9.457031 0.265625 5.65625 0.265625 C 4.394531 0.265625 3.320312 -0.0234375 2.4375 -0.609375 C 1.5625 -1.203125 1.015625 -2 0.796875 -3 L 3.703125 -3 C 3.835938 -2.675781 4.097656 -2.414062 4.484375 -2.21875 C 4.878906 -2.03125 5.269531 -1.9375 5.65625 -1.9375 C 6.070312 -1.9375 6.425781 -2.003906 6.71875 -2.140625 C 7.007812 -2.285156 7.289062 -2.503906 7.5625 -2.796875 C 7.894531 -3.171875 8.140625 -3.707031 8.296875 -4.40625 C 8.453125 -5.113281 8.535156 -5.898438 8.546875 -6.765625 L 8.53125 -6.765625 C 8.46875 -6.410156 8.300781 -6.054688 8.03125 -5.703125 C 7.769531 -5.359375 7.390625 -5.070312 6.890625 -4.84375 C 6.390625 -4.613281 5.742188 -4.5 4.953125 -4.5 C 4.054688 -4.5 3.28125 -4.707031 2.625 -5.125 C 1.976562 -5.539062 1.476562 -6.097656 1.125 -6.796875 C 0.769531 -7.492188 0.59375 -8.25 0.59375 -9.0625 L 0.59375 -9.234375 C 0.59375 -10.109375 0.8125 -10.894531 1.25 -11.59375 C 1.695312 -12.289062 2.3125 -12.84375 3.09375 -13.25 C 3.882812 -13.664062 4.789062 -13.875 5.8125 -13.875 Z M 5.921875 -11.671875 C 5.265625 -11.671875 4.707031 -11.441406 4.25 -10.984375 C 3.800781 -10.535156 3.578125 -9.941406 3.578125 -9.203125 L 3.578125 -9.125 C 3.578125 -8.351562 3.785156 -7.753906 4.203125 -7.328125 C 4.617188 -6.910156 5.15625 -6.703125 5.8125 -6.703125 C 6.5 -6.703125 7.070312 -6.925781 7.53125 -7.375 C 8 -7.832031 8.234375 -8.425781 8.234375 -9.15625 L 8.234375 -9.234375 C 8.234375 -9.921875 8.019531 -10.5 7.59375 -10.96875 C 7.164062 -11.4375 6.609375 -11.671875 5.921875 -11.671875 Z M 5.921875 -11.671875 "/></g></g></g><g fill="#000000" fill-opacity="1"><g transform="translate(232.274473, 35.776744)"><g><path d="M 5.8125 -13.875 C 6.851562 -13.875 7.789062 -13.632812 8.625 -13.15625 C 9.457031 -12.675781 10.117188 -11.957031 10.609375 -11 C 11.109375 -10.039062 11.359375 -8.816406 11.359375 -7.328125 L 11.359375 -7.0625 C 11.359375 -2.175781 9.457031 0.265625 5.65625 0.265625 C 4.394531 0.265625 3.320312 -0.0234375 2.4375 -0.609375 C 1.5625 -1.203125 1.015625 -2 0.796875 -3 L 3.703125 -3 C 3.835938 -2.675781 4.097656 -2.414062 4.484375 -2.21875 C 4.878906 -2.03125 5.269531 -1.9375 5.65625 -1.9375 C 6.070312 -1.9375 6.425781 -2.003906 6.71875 -2.140625 C 7.007812 -2.285156 7.289062 -2.503906 7.5625 -2.796875 C 7.894531 -3.171875 8.140625 -3.707031 8.296875 -4.40625 C 8.453125 -5.113281 8.535156 -5.898438 8.546875 -6.765625 L 8.53125 -6.765625 C 8.46875 -6.410156 8.300781 -6.054688 8.03125 -5.703125 C 7.769531 -5.359375 7.390625 -5.070312 6.890625 -4.84375 C 6.390625 -4.613281 5.742188 -4.5 4.953125 -4.5 C 4.054688 -4.5 3.28125 -4.707031 2.625 -5.125 C 1.976562 -5.539062 1.476562 -6.097656 1.125 -6.796875 C 0.769531 -7.492188 0.59375 -8.25 0.59375 -9.0625 L 0.59375 -9.234375 C 0.59375 -10.109375 0.8125 -10.894531 1.25 -11.59375 C 1.695312 -12.289062 2.3125 -12.84375 3.09375 -13.25 C 3.882812 -13.664062 4.789062 -13.875 5.8125 -13.875 Z M 5.921875 -11.671875 C 5.265625 -11.671875 4.707031 -11.441406 4.25 -10.984375 C 3.800781 -10.535156 3.578125 -9.941406 3.578125 -9.203125 L 3.578125 -9.125 C 3.578125 -8.351562 3.785156 -7.753906 4.203125 -7.328125 C 4.617188 -6.910156 5.15625 -6.703125 5.8125 -6.703125 C 6.5 -6.703125 7.070312 -6.925781 7.53125 -7.375 C 8 -7.832031 8.234375 -8.425781 8.234375 -9.15625 L 8.234375 -9.234375 C 8.234375 -9.921875 8.019531 -10.5 7.59375 -10.96875 C 7.164062 -11.4375 6.609375 -11.671875 5.921875 -11.671875 Z M 5.921875 -11.671875 "/></g></g></g><g fill="#000000" fill-opacity="1"><g transform="translate(244.242028, 35.776744)"><g><path d="M 5.8125 -13.875 C 6.851562 -13.875 7.789062 -13.632812 8.625 -13.15625 C 9.457031 -12.675781 10.117188 -11.957031 10.609375 -11 C 11.109375 -10.039062 11.359375 -8.816406 11.359375 -7.328125 L 11.359375 -7.0625 C 11.359375 -2.175781 9.457031 0.265625 5.65625 0.265625 C 4.394531 0.265625 3.320312 -0.0234375 2.4375 -0.609375 C 1.5625 -1.203125 1.015625 -2 0.796875 -3 L 3.703125 -3 C 3.835938 -2.675781 4.097656 -2.414062 4.484375 -2.21875 C 4.878906 -2.03125 5.269531 -1.9375 5.65625 -1.9375 C 6.070312 -1.9375 6.425781 -2.003906 6.71875 -2.140625 C 7.007812 -2.285156 7.289062 -2.503906 7.5625 -2.796875 C 7.894531 -3.171875 8.140625 -3.707031 8.296875 -4.40625 C 8.453125 -5.113281 8.535156 -5.898438 8.546875 -6.765625 L 8.53125 -6.765625 C 8.46875 -6.410156 8.300781 -6.054688 8.03125 -5.703125 C 7.769531 -5.359375 7.390625 -5.070312 6.890625 -4.84375 C 6.390625 -4.613281 5.742188 -4.5 4.953125 -4.5 C 4.054688 -4.5 3.28125 -4.707031 2.625 -5.125 C 1.976562 -5.539062 1.476562 -6.097656 1.125 -6.796875 C 0.769531 -7.492188 0.59375 -8.25 0.59375 -9.0625 L 0.59375 -9.234375 C 0.59375 -10.109375 0.8125 -10.894531 1.25 -11.59375 C 1.695312 -12.289062 2.3125 -12.84375 3.09375 -13.25 C 3.882812 -13.664062 4.789062 -13.875 5.8125 -13.875 Z M 5.921875 -11.671875 C 5.265625 -11.671875 4.707031 -11.441406 4.25 -10.984375 C 3.800781 -10.535156 3.578125 -9.941406 3.578125 -9.203125 L 3.578125 -9.125 C 3.578125 -8.351562 3.785156 -7.753906 4.203125 -7.328125 C 4.617188 -6.910156 5.15625 -6.703125 5.8125 -6.703125 C 6.5 -6.703125 7.070312 -6.925781 7.53125 -7.375 C 8 -7.832031 8.234375 -8.425781 8.234375 -9.15625 L 8.234375 -9.234375 C 8.234375 -9.921875 8.019531 -10.5 7.59375 -10.96875 C 7.164062 -11.4375 6.609375 -11.671875 5.921875 -11.671875 Z M 5.921875 -11.671875 "/></g></g></g></svg>