<svg xmlns="http://www.w3.org/2000/svg" xmlns:xlink="http://www.w3.org/1999/xlink" width="460" zoomAndPan="magnify" viewBox="0 0 345 60" height="80" preserveAspectRatio="xMidYMid meet" version="1.0"><defs><g/><clipPath id="e5ee1d2af6"><path d="M 45.003906 3.195312 L 345 3.195312 L 345 55.605469 L 45.003906 55.605469 Z M 45.003906 3.195312 " clip-rule="nonzero"/></clipPath><clipPath id="71f87c0529"><path d="M 54.003906 3.195312 L 336 3.195312 C 340.96875 3.195312 345 7.226562 345 12.195312 L 345 46.605469 C 345 51.578125 340.96875 55.605469 336 55.605469 L 54.003906 55.605469 C 49.035156 55.605469 45.003906 51.578125 45.003906 46.605469 L 45.003906 12.195312 C 45.003906 7.226562 49.035156 3.195312 54.003906 3.195312 Z M 54.003906 3.195312 " clip-rule="nonzero"/></clipPath><clipPath id="497c471e9e"><path d="M 0.00390625 0.195312 L 300 0.195312 L 300 52.605469 L 0.00390625 52.605469 Z M 0.00390625 0.195312 " clip-rule="nonzero"/></clipPath><clipPath id="6b38d3f65e"><path d="M 9.003906 0.195312 L 291 0.195312 C 295.96875 0.195312 300 4.226562 300 9.195312 L 300 43.605469 C 300 48.578125 295.96875 52.605469 291 52.605469 L 9.003906 52.605469 C 4.035156 52.605469 0.00390625 48.578125 0.00390625 43.605469 L 0.00390625 9.195312 C 0.00390625 4.226562 4.035156 0.195312 9.003906 0.195312 Z M 9.003906 0.195312 " clip-rule="nonzero"/></clipPath><clipPath id="59743b3cd6"><rect x="0" width="300" y="0" height="53"/></clipPath><clipPath id="817bd8edc3"><path d="M 0 0 L 58.804688 0 L 58.804688 58.804688 L 0 58.804688 Z M 0 0 " clip-rule="nonzero"/></clipPath><clipPath id="a5cc448623"><path d="M 9 0 L 49.804688 0 C 54.773438 0 58.804688 4.03125 58.804688 9 L 58.804688 49.804688 C 58.804688 54.773438 54.773438 58.804688 49.804688 58.804688 L 9 58.804688 C 4.03125 58.804688 0 54.773438 0 49.804688 L 0 9 C 0 4.03125 4.03125 0 9 0 Z M 9 0 " clip-rule="nonzero"/></clipPath><clipPath id="f5921407b2"><path d="M 0 0 L 58.804688 0 L 58.804688 58.804688 L 0 58.804688 Z M 0 0 " clip-rule="nonzero"/></clipPath><clipPath id="1fcc44bb5e"><path d="M 9 0 L 49.804688 0 C 54.773438 0 58.804688 4.03125 58.804688 9 L 58.804688 49.804688 C 58.804688 54.773438 54.773438 58.804688 49.804688 58.804688 L 9 58.804688 C 4.03125 58.804688 0 54.773438 0 49.804688 L 0 9 C 0 4.03125 4.03125 0 9 0 Z M 9 0 " clip-rule="nonzero"/></clipPath><clipPath id="dff8bda3a6"><rect x="0" width="59" y="0" height="59"/></clipPath><clipPath id="a7a691a549"><rect x="0" width="29" y="0" height="54"/></clipPath></defs><g clip-path="url(#e5ee1d2af6)"><g clip-path="url(#71f87c0529)"><g transform="matrix(1, 0, 0, 1, 45, 3)"><g clip-path="url(#59743b3cd6)"><g clip-path="url(#497c471e9e)"><g clip-path="url(#6b38d3f65e)"><path fill="#9fffd0" d="M 0.00390625 0.195312 L 299.921875 0.195312 L 299.921875 52.605469 L 0.00390625 52.605469 Z M 0.00390625 0.195312 " fill-opacity="1" fill-rule="nonzero"/></g></g></g></g></g></g><g clip-path="url(#817bd8edc3)"><g clip-path="url(#a5cc448623)"><g transform="matrix(1, 0, 0, 1, 0, -0.000000000000001479)"><g clip-path="url(#dff8bda3a6)"><g clip-path="url(#f5921407b2)"><g clip-path="url(#1fcc44bb5e)"><path fill="#008444" d="M 0 0 L 58.804688 0 L 58.804688 58.804688 L 0 58.804688 Z M 0 0 " fill-opacity="1" fill-rule="nonzero"/></g></g></g></g></g></g><g transform="matrix(1, 0, 0, 1, 16, 3)"><g clip-path="url(#a7a691a549)"><g fill="#ffffff" fill-opacity="1"><g transform="translate(0.680312, 44.05131)"><g><path d="M 22.578125 -5.046875 L 22.578125 0 L 16.1875 0 L 16.1875 -5.046875 L 1.09375 -5.046875 L 1.09375 -9.796875 L 14.234375 -31.71875 L 22.578125 -31.71875 L 22.578125 -10.484375 L 26.71875 -10.484375 L 26.71875 -5.046875 Z M 16.3125 -24.765625 L 16.234375 -24.765625 L 7.875 -10.484375 L 16.1875 -10.484375 L 16.1875 -14.234375 C 16.1875 -15.910156 16.203125 -17.597656 16.234375 -19.296875 C 16.265625 -20.992188 16.289062 -22.816406 16.3125 -24.765625 Z M 16.3125 -24.765625 "/></g></g></g></g></g><g fill="#000000" fill-opacity="1"><g transform="translate(67.369156, 35.776744)"><g><path d="M 7.453125 0.25 C 6.128906 0.25 4.960938 -0.0234375 3.953125 -0.578125 C 2.941406 -1.128906 2.148438 -1.929688 1.578125 -2.984375 C 1.003906 -4.046875 0.71875 -5.335938 0.71875 -6.859375 L 0.71875 -7.03125 C 0.71875 -8.164062 0.894531 -9.179688 1.25 -10.078125 C 1.601562 -10.984375 2.09375 -11.75 2.71875 -12.375 C 3.351562 -13 4.070312 -13.476562 4.875 -13.8125 C 5.675781 -14.144531 6.535156 -14.3125 7.453125 -14.3125 C 8.773438 -14.3125 9.941406 -14.035156 10.953125 -13.484375 C 11.960938 -12.941406 12.75 -12.140625 13.3125 -11.078125 C 13.882812 -10.015625 14.171875 -8.707031 14.171875 -7.15625 L 14.171875 -6.984375 C 14.171875 -5.867188 13.992188 -4.863281 13.640625 -3.96875 C 13.285156 -3.082031 12.796875 -2.320312 12.171875 -1.6875 C 11.546875 -1.050781 10.828125 -0.566406 10.015625 -0.234375 C 9.210938 0.0859375 8.359375 0.25 7.453125 0.25 Z M 7.453125 -2.265625 C 8.160156 -2.265625 8.789062 -2.441406 9.34375 -2.796875 C 9.894531 -3.148438 10.332031 -3.675781 10.65625 -4.375 C 10.976562 -5.082031 11.140625 -5.953125 11.140625 -6.984375 L 11.140625 -7.140625 C 11.140625 -8.722656 10.796875 -9.898438 10.109375 -10.671875 C 9.429688 -11.453125 8.550781 -11.84375 7.46875 -11.84375 C 6.394531 -11.84375 5.503906 -11.445312 4.796875 -10.65625 C 4.097656 -9.863281 3.75 -8.65625 3.75 -7.03125 L 3.75 -6.875 C 3.75 -5.363281 4.09375 -4.21875 4.78125 -3.4375 C 5.46875 -2.65625 6.359375 -2.265625 7.453125 -2.265625 Z M 7.453125 -2.265625 "/></g></g></g><g fill="#000000" fill-opacity="1"><g transform="translate(82.26212, 35.776744)"><g><path d="M 7.109375 -10.609375 C 7.878906 -10.609375 8.601562 -10.429688 9.28125 -10.078125 C 9.957031 -9.734375 10.503906 -9.175781 10.921875 -8.40625 C 11.335938 -7.644531 11.546875 -6.640625 11.546875 -5.390625 L 11.546875 -5.28125 C 11.546875 -4.03125 11.320312 -2.992188 10.875 -2.171875 C 10.4375 -1.359375 9.863281 -0.753906 9.15625 -0.359375 C 8.445312 0.0351562 7.703125 0.234375 6.921875 0.234375 C 6.234375 0.234375 5.613281 0.117188 5.0625 -0.109375 C 4.507812 -0.347656 4.070312 -0.804688 3.75 -1.484375 L 3.75 0 L 1.046875 0 L 1.046875 -14.6875 L 3.8125 -14.6875 L 3.8125 -10.640625 L 3.765625 -8.625 C 4.117188 -9.40625 4.585938 -9.929688 5.171875 -10.203125 C 5.765625 -10.472656 6.410156 -10.609375 7.109375 -10.609375 Z M 8.546875 -5.1875 L 8.546875 -5.296875 C 8.546875 -6.378906 8.332031 -7.175781 7.90625 -7.6875 C 7.476562 -8.195312 6.925781 -8.453125 6.25 -8.453125 C 5.875 -8.453125 5.5 -8.359375 5.125 -8.171875 C 4.75 -7.984375 4.4375 -7.65625 4.1875 -7.1875 C 3.9375 -6.71875 3.8125 -6.054688 3.8125 -5.203125 C 3.8125 -3.984375 4.039062 -3.128906 4.5 -2.640625 C 4.957031 -2.160156 5.53125 -1.921875 6.21875 -1.921875 C 6.914062 -1.921875 7.476562 -2.203125 7.90625 -2.765625 C 8.332031 -3.335938 8.546875 -4.144531 8.546875 -5.1875 Z M 8.546875 -5.1875 "/></g></g></g><g fill="#000000" fill-opacity="1"><g transform="translate(94.248672, 35.776744)"><g><path d="M 7.5 -7.046875 L 7.5 -4.75 L 1.140625 -4.75 L 1.140625 -7.046875 Z M 7.5 -7.046875 "/></g></g></g><g fill="#000000" fill-opacity="1"><g transform="translate(102.891902, 35.776744)"><g><path d="M 1.421875 -14.15625 L 4.296875 -14.15625 L 4.296875 -2.34375 L 11.421875 -2.34375 L 11.421875 0 L 1.421875 0 Z M 1.421875 -14.15625 "/></g></g></g><g fill="#000000" fill-opacity="1"><g transform="translate(114.593509, 35.776744)"><g><path d="M 8.234375 -8.96875 L 8.234375 -10.390625 L 10.96875 -10.390625 L 10.96875 0 L 8.234375 0 L 8.234375 -1.5 C 7.867188 -0.800781 7.382812 -0.34375 6.78125 -0.125 C 6.1875 0.09375 5.53125 0.203125 4.8125 0.203125 C 4.082031 0.203125 3.378906 0.03125 2.703125 -0.3125 C 2.035156 -0.664062 1.488281 -1.222656 1.0625 -1.984375 C 0.644531 -2.753906 0.4375 -3.753906 0.4375 -4.984375 L 0.4375 -5.125 C 0.4375 -6.382812 0.648438 -7.414062 1.078125 -8.21875 C 1.515625 -9.03125 2.070312 -9.632812 2.75 -10.03125 C 3.425781 -10.4375 4.128906 -10.640625 4.859375 -10.640625 C 5.609375 -10.640625 6.265625 -10.523438 6.828125 -10.296875 C 7.398438 -10.066406 7.867188 -9.625 8.234375 -8.96875 Z M 5.75 -1.953125 C 6.144531 -1.953125 6.523438 -2.046875 6.890625 -2.234375 C 7.265625 -2.421875 7.570312 -2.742188 7.8125 -3.203125 C 8.0625 -3.671875 8.1875 -4.332031 8.1875 -5.1875 C 8.1875 -6.40625 7.957031 -7.257812 7.5 -7.75 C 7.050781 -8.25 6.484375 -8.5 5.796875 -8.5 C 5.097656 -8.5 4.53125 -8.210938 4.09375 -7.640625 C 3.65625 -7.066406 3.4375 -6.253906 3.4375 -5.203125 L 3.4375 -5.109375 C 3.4375 -4.035156 3.65625 -3.238281 4.09375 -2.71875 C 4.539062 -2.207031 5.09375 -1.953125 5.75 -1.953125 Z M 5.75 -1.953125 "/></g></g></g><g fill="#000000" fill-opacity="1"><g transform="translate(126.580061, 35.776744)"><g><path d="M 7.5 -7.046875 L 7.5 -4.75 L 1.140625 -4.75 L 1.140625 -7.046875 Z M 7.5 -7.046875 "/></g></g></g><g fill="#000000" fill-opacity="1"><g transform="translate(135.223291, 35.776744)"><g><path d="M 1.421875 -14.15625 L 6.421875 -14.15625 C 7.878906 -14.15625 9.144531 -13.890625 10.21875 -13.359375 C 11.300781 -12.835938 12.140625 -12.066406 12.734375 -11.046875 C 13.328125 -10.023438 13.625 -8.769531 13.625 -7.28125 L 13.625 -7.125 C 13.625 -6.007812 13.4375 -5.007812 13.0625 -4.125 C 12.6875 -3.25 12.171875 -2.503906 11.515625 -1.890625 C 10.859375 -1.273438 10.085938 -0.804688 9.203125 -0.484375 C 8.328125 -0.160156 7.378906 0 6.359375 0 L 1.421875 0 Z M 10.578125 -7.125 L 10.578125 -7.28125 C 10.578125 -8.757812 10.207031 -9.867188 9.46875 -10.609375 C 8.726562 -11.359375 7.722656 -11.734375 6.453125 -11.734375 L 4.28125 -11.734375 L 4.28125 -2.453125 L 6.359375 -2.453125 C 7.648438 -2.453125 8.675781 -2.835938 9.4375 -3.609375 C 10.195312 -4.390625 10.578125 -5.5625 10.578125 -7.125 Z M 10.578125 -7.125 "/></g></g></g><g fill="#000000" fill-opacity="1"><g transform="translate(149.527364, 35.776744)"><g><path d="M 2.609375 -11.46875 C 2.171875 -11.46875 1.796875 -11.625 1.484375 -11.9375 C 1.179688 -12.25 1.03125 -12.617188 1.03125 -13.046875 C 1.03125 -13.492188 1.179688 -13.867188 1.484375 -14.171875 C 1.796875 -14.472656 2.171875 -14.625 2.609375 -14.625 C 3.046875 -14.625 3.414062 -14.472656 3.71875 -14.171875 C 4.03125 -13.867188 4.1875 -13.492188 4.1875 -13.046875 C 4.1875 -12.617188 4.03125 -12.25 3.71875 -11.9375 C 3.414062 -11.625 3.046875 -11.46875 2.609375 -11.46875 Z M 4.015625 -10.390625 L 4.015625 0 L 1.234375 0 L 1.234375 -10.390625 Z M 4.015625 -10.390625 "/></g></g></g><g fill="#000000" fill-opacity="1"><g transform="translate(155.226201, 35.776744)"><g><path d="M 0.84375 -1.390625 C 0.84375 -1.859375 1.003906 -2.253906 1.328125 -2.578125 C 1.648438 -2.898438 2.046875 -3.0625 2.515625 -3.0625 C 2.984375 -3.0625 3.378906 -2.894531 3.703125 -2.5625 C 4.023438 -2.238281 4.1875 -1.773438 4.1875 -1.171875 C 4.1875 -0.460938 4.082031 0.203125 3.875 0.828125 C 3.675781 1.453125 3.414062 2.015625 3.09375 2.515625 L 1.3125 2.515625 C 1.488281 2.191406 1.660156 1.8125 1.828125 1.375 C 1.992188 0.945312 2.09375 0.539062 2.125 0.15625 C 1.769531 0.101562 1.46875 -0.0664062 1.21875 -0.359375 C 0.96875 -0.648438 0.84375 -0.992188 0.84375 -1.390625 Z M 0.84375 -1.390625 "/></g></g></g><g fill="#000000" fill-opacity="1"><g transform="translate(160.260171, 35.776744)"><g/></g></g><g fill="#000000" fill-opacity="1"><g transform="translate(165.959008, 35.776744)"><g><path d="M 7.453125 0.25 C 6.128906 0.25 4.960938 -0.0234375 3.953125 -0.578125 C 2.941406 -1.128906 2.148438 -1.929688 1.578125 -2.984375 C 1.003906 -4.046875 0.71875 -5.335938 0.71875 -6.859375 L 0.71875 -7.03125 C 0.71875 -8.164062 0.894531 -9.179688 1.25 -10.078125 C 1.601562 -10.984375 2.09375 -11.75 2.71875 -12.375 C 3.351562 -13 4.070312 -13.476562 4.875 -13.8125 C 5.675781 -14.144531 6.535156 -14.3125 7.453125 -14.3125 C 8.773438 -14.3125 9.941406 -14.035156 10.953125 -13.484375 C 11.960938 -12.941406 12.75 -12.140625 13.3125 -11.078125 C 13.882812 -10.015625 14.171875 -8.707031 14.171875 -7.15625 L 14.171875 -6.984375 C 14.171875 -5.867188 13.992188 -4.863281 13.640625 -3.96875 C 13.285156 -3.082031 12.796875 -2.320312 12.171875 -1.6875 C 11.546875 -1.050781 10.828125 -0.566406 10.015625 -0.234375 C 9.210938 0.0859375 8.359375 0.25 7.453125 0.25 Z M 7.453125 -2.265625 C 8.160156 -2.265625 8.789062 -2.441406 9.34375 -2.796875 C 9.894531 -3.148438 10.332031 -3.675781 10.65625 -4.375 C 10.976562 -5.082031 11.140625 -5.953125 11.140625 -6.984375 L 11.140625 -7.140625 C 11.140625 -8.722656 10.796875 -9.898438 10.109375 -10.671875 C 9.429688 -11.453125 8.550781 -11.84375 7.46875 -11.84375 C 6.394531 -11.84375 5.503906 -11.445312 4.796875 -10.65625 C 4.097656 -9.863281 3.75 -8.65625 3.75 -7.03125 L 3.75 -6.875 C 3.75 -5.363281 4.09375 -4.21875 4.78125 -3.4375 C 5.46875 -2.65625 6.359375 -2.265625 7.453125 -2.265625 Z M 7.453125 -2.265625 "/></g></g></g><g fill="#000000" fill-opacity="1"><g transform="translate(180.851971, 35.776744)"><g><path d="M 7.109375 -10.609375 C 7.878906 -10.609375 8.601562 -10.429688 9.28125 -10.078125 C 9.957031 -9.734375 10.503906 -9.175781 10.921875 -8.40625 C 11.335938 -7.644531 11.546875 -6.640625 11.546875 -5.390625 L 11.546875 -5.28125 C 11.546875 -4.03125 11.320312 -2.992188 10.875 -2.171875 C 10.4375 -1.359375 9.863281 -0.753906 9.15625 -0.359375 C 8.445312 0.0351562 7.703125 0.234375 6.921875 0.234375 C 6.234375 0.234375 5.613281 0.117188 5.0625 -0.109375 C 4.507812 -0.347656 4.070312 -0.804688 3.75 -1.484375 L 3.75 0 L 1.046875 0 L 1.046875 -14.6875 L 3.8125 -14.6875 L 3.8125 -10.640625 L 3.765625 -8.625 C 4.117188 -9.40625 4.585938 -9.929688 5.171875 -10.203125 C 5.765625 -10.472656 6.410156 -10.609375 7.109375 -10.609375 Z M 8.546875 -5.1875 L 8.546875 -5.296875 C 8.546875 -6.378906 8.332031 -7.175781 7.90625 -7.6875 C 7.476562 -8.195312 6.925781 -8.453125 6.25 -8.453125 C 5.875 -8.453125 5.5 -8.359375 5.125 -8.171875 C 4.75 -7.984375 4.4375 -7.65625 4.1875 -7.1875 C 3.9375 -6.71875 3.8125 -6.054688 3.8125 -5.203125 C 3.8125 -3.984375 4.039062 -3.128906 4.5 -2.640625 C 4.957031 -2.160156 5.53125 -1.921875 6.21875 -1.921875 C 6.914062 -1.921875 7.476562 -2.203125 7.90625 -2.765625 C 8.332031 -3.335938 8.546875 -4.144531 8.546875 -5.1875 Z M 8.546875 -5.1875 "/></g></g></g><g fill="#000000" fill-opacity="1"><g transform="translate(192.838524, 35.776744)"><g><path d="M 7.5 -7.046875 L 7.5 -4.75 L 1.140625 -4.75 L 1.140625 -7.046875 Z M 7.5 -7.046875 "/></g></g></g><g fill="#000000" fill-opacity="1"><g transform="translate(201.481754, 35.776744)"><g><path d="M 1.421875 -14.15625 L 4.296875 -14.15625 L 4.296875 -2.34375 L 11.421875 -2.34375 L 11.421875 0 L 1.421875 0 Z M 1.421875 -14.15625 "/></g></g></g><g fill="#000000" fill-opacity="1"><g transform="translate(213.18336, 35.776744)"><g><path d="M 8.234375 -8.96875 L 8.234375 -10.390625 L 10.96875 -10.390625 L 10.96875 0 L 8.234375 0 L 8.234375 -1.5 C 7.867188 -0.800781 7.382812 -0.34375 6.78125 -0.125 C 6.1875 0.09375 5.53125 0.203125 4.8125 0.203125 C 4.082031 0.203125 3.378906 0.03125 2.703125 -0.3125 C 2.035156 -0.664062 1.488281 -1.222656 1.0625 -1.984375 C 0.644531 -2.753906 0.4375 -3.753906 0.4375 -4.984375 L 0.4375 -5.125 C 0.4375 -6.382812 0.648438 -7.414062 1.078125 -8.21875 C 1.515625 -9.03125 2.070312 -9.632812 2.75 -10.03125 C 3.425781 -10.4375 4.128906 -10.640625 4.859375 -10.640625 C 5.609375 -10.640625 6.265625 -10.523438 6.828125 -10.296875 C 7.398438 -10.066406 7.867188 -9.625 8.234375 -8.96875 Z M 5.75 -1.953125 C 6.144531 -1.953125 6.523438 -2.046875 6.890625 -2.234375 C 7.265625 -2.421875 7.570312 -2.742188 7.8125 -3.203125 C 8.0625 -3.671875 8.1875 -4.332031 8.1875 -5.1875 C 8.1875 -6.40625 7.957031 -7.257812 7.5 -7.75 C 7.050781 -8.25 6.484375 -8.5 5.796875 -8.5 C 5.097656 -8.5 4.53125 -8.210938 4.09375 -7.640625 C 3.65625 -7.066406 3.4375 -6.253906 3.4375 -5.203125 L 3.4375 -5.109375 C 3.4375 -4.035156 3.65625 -3.238281 4.09375 -2.71875 C 4.539062 -2.207031 5.09375 -1.953125 5.75 -1.953125 Z M 5.75 -1.953125 "/></g></g></g><g fill="#000000" fill-opacity="1"><g transform="translate(225.169913, 35.776744)"><g><path d="M 7.5 -7.046875 L 7.5 -4.75 L 1.140625 -4.75 L 1.140625 -7.046875 Z M 7.5 -7.046875 "/></g></g></g><g fill="#000000" fill-opacity="1"><g transform="translate(233.813143, 35.776744)"><g><path d="M 1.421875 -14.15625 L 6.421875 -14.15625 C 7.878906 -14.15625 9.144531 -13.890625 10.21875 -13.359375 C 11.300781 -12.835938 12.140625 -12.066406 12.734375 -11.046875 C 13.328125 -10.023438 13.625 -8.769531 13.625 -7.28125 L 13.625 -7.125 C 13.625 -6.007812 13.4375 -5.007812 13.0625 -4.125 C 12.6875 -3.25 12.171875 -2.503906 11.515625 -1.890625 C 10.859375 -1.273438 10.085938 -0.804688 9.203125 -0.484375 C 8.328125 -0.160156 7.378906 0 6.359375 0 L 1.421875 0 Z M 10.578125 -7.125 L 10.578125 -7.28125 C 10.578125 -8.757812 10.207031 -9.867188 9.46875 -10.609375 C 8.726562 -11.359375 7.722656 -11.734375 6.453125 -11.734375 L 4.28125 -11.734375 L 4.28125 -2.453125 L 6.359375 -2.453125 C 7.648438 -2.453125 8.675781 -2.835938 9.4375 -3.609375 C 10.195312 -4.390625 10.578125 -5.5625 10.578125 -7.125 Z M 10.578125 -7.125 "/></g></g></g><g fill="#000000" fill-opacity="1"><g transform="translate(248.117216, 35.776744)"><g><path d="M 8.234375 -8.96875 L 8.234375 -10.390625 L 10.96875 -10.390625 L 10.96875 0 L 8.234375 0 L 8.234375 -1.5 C 7.867188 -0.800781 7.382812 -0.34375 6.78125 -0.125 C 6.1875 0.09375 5.53125 0.203125 4.8125 0.203125 C 4.082031 0.203125 3.378906 0.03125 2.703125 -0.3125 C 2.035156 -0.664062 1.488281 -1.222656 1.0625 -1.984375 C 0.644531 -2.753906 0.4375 -3.753906 0.4375 -4.984375 L 0.4375 -5.125 C 0.4375 -6.382812 0.648438 -7.414062 1.078125 -8.21875 C 1.515625 -9.03125 2.070312 -9.632812 2.75 -10.03125 C 3.425781 -10.4375 4.128906 -10.640625 4.859375 -10.640625 C 5.609375 -10.640625 6.265625 -10.523438 6.828125 -10.296875 C 7.398438 -10.066406 7.867188 -9.625 8.234375 -8.96875 Z M 5.75 -1.953125 C 6.144531 -1.953125 6.523438 -2.046875 6.890625 -2.234375 C 7.265625 -2.421875 7.570312 -2.742188 7.8125 -3.203125 C 8.0625 -3.671875 8.1875 -4.332031 8.1875 -5.1875 C 8.1875 -6.40625 7.957031 -7.257812 7.5 -7.75 C 7.050781 -8.25 6.484375 -8.5 5.796875 -8.5 C 5.097656 -8.5 4.53125 -8.210938 4.09375 -7.640625 C 3.65625 -7.066406 3.4375 -6.253906 3.4375 -5.203125 L 3.4375 -5.109375 C 3.4375 -4.035156 3.65625 -3.238281 4.09375 -2.71875 C 4.539062 -2.207031 5.09375 -1.953125 5.75 -1.953125 Z M 5.75 -1.953125 "/></g></g></g></svg>