<svg xmlns="http://www.w3.org/2000/svg" xmlns:xlink="http://www.w3.org/1999/xlink" width="460" zoomAndPan="magnify" viewBox="0 0 345 60" height="80" preserveAspectRatio="xMidYMid meet" version="1.0"><defs><g/><clipPath id="0356453e39"><path d="M 45.003906 3.195312 L 345 3.195312 L 345 55.605469 L 45.003906 55.605469 Z M 45.003906 3.195312 " clip-rule="nonzero"/></clipPath><clipPath id="4fe283ea9d"><path d="M 54.003906 3.195312 L 336 3.195312 C 340.96875 3.195312 345 7.226562 345 12.195312 L 345 46.605469 C 345 51.578125 340.96875 55.605469 336 55.605469 L 54.003906 55.605469 C 49.035156 55.605469 45.003906 51.578125 45.003906 46.605469 L 45.003906 12.195312 C 45.003906 7.226562 49.035156 3.195312 54.003906 3.195312 Z M 54.003906 3.195312 " clip-rule="nonzero"/></clipPath><clipPath id="6972735d6c"><path d="M 0.00390625 0.195312 L 300 0.195312 L 300 52.605469 L 0.00390625 52.605469 Z M 0.00390625 0.195312 " clip-rule="nonzero"/></clipPath><clipPath id="9d264c1bfb"><path d="M 9.003906 0.195312 L 291 0.195312 C 295.96875 0.195312 300 4.226562 300 9.195312 L 300 43.605469 C 300 48.578125 295.96875 52.605469 291 52.605469 L 9.003906 52.605469 C 4.035156 52.605469 0.00390625 48.578125 0.00390625 43.605469 L 0.00390625 9.195312 C 0.00390625 4.226562 4.035156 0.195312 9.003906 0.195312 Z M 9.003906 0.195312 " clip-rule="nonzero"/></clipPath><clipPath id="c331f4b6e5"><rect x="0" width="300" y="0" height="53"/></clipPath><clipPath id="3b853281bf"><path d="M 0 0 L 58.804688 0 L 58.804688 58.804688 L 0 58.804688 Z M 0 0 " clip-rule="nonzero"/></clipPath><clipPath id="01023e30f6"><path d="M 9 0 L 49.804688 0 C 54.773438 0 58.804688 4.03125 58.804688 9 L 58.804688 49.804688 C 58.804688 54.773438 54.773438 58.804688 49.804688 58.804688 L 9 58.804688 C 4.03125 58.804688 0 54.773438 0 49.804688 L 0 9 C 0 4.03125 4.03125 0 9 0 Z M 9 0 " clip-rule="nonzero"/></clipPath><clipPath id="75b4a8c67a"><path d="M 0 0 L 58.804688 0 L 58.804688 58.804688 L 0 58.804688 Z M 0 0 " clip-rule="nonzero"/></clipPath><clipPath id="a002fe51ed"><path d="M 9 0 L 49.804688 0 C 54.773438 0 58.804688 4.03125 58.804688 9 L 58.804688 49.804688 C 58.804688 54.773438 54.773438 58.804688 49.804688 58.804688 L 9 58.804688 C 4.03125 58.804688 0 54.773438 0 49.804688 L 0 9 C 0 4.03125 4.03125 0 9 0 Z M 9 0 " clip-rule="nonzero"/></clipPath><clipPath id="1c351c19af"><rect x="0" width="59" y="0" height="59"/></clipPath><clipPath id="4a27423960"><rect x="0" width="29" y="0" height="54"/></clipPath></defs><g clip-path="url(#0356453e39)"><g clip-path="url(#4fe283ea9d)"><g transform="matrix(1, 0, 0, 1, 45, 3)"><g clip-path="url(#c331f4b6e5)"><g clip-path="url(#6972735d6c)"><g clip-path="url(#9d264c1bfb)"><path fill="#9fffd0" d="M 0.00390625 0.195312 L 299.921875 0.195312 L 299.921875 52.605469 L 0.00390625 52.605469 Z M 0.00390625 0.195312 " fill-opacity="1" fill-rule="nonzero"/></g></g></g></g></g></g><g clip-path="url(#3b853281bf)"><g clip-path="url(#01023e30f6)"><g transform="matrix(1, 0, 0, 1, 0, -0.000000000000001479)"><g clip-path="url(#1c351c19af)"><g clip-path="url(#75b4a8c67a)"><g clip-path="url(#a002fe51ed)"><path fill="#008444" d="M 0 0 L 58.804688 0 L 58.804688 58.804688 L 0 58.804688 Z M 0 0 " fill-opacity="1" fill-rule="nonzero"/></g></g></g></g></g></g><g transform="matrix(1, 0, 0, 1, 16, 3)"><g clip-path="url(#4a27423960)"><g fill="#ffffff" fill-opacity="1"><g transform="translate(0.680312, 44.051295)"><g><path d="M 13.484375 0.5625 C 11.191406 0.5625 9.210938 0.1875 7.546875 -0.5625 C 5.878906 -1.320312 4.570312 -2.3125 3.625 -3.53125 C 2.6875 -4.75 2.128906 -6.066406 1.953125 -7.484375 L 1.875 -7.875 L 8.65625 -7.875 L 8.75 -7.578125 C 8.976562 -6.785156 9.535156 -6.117188 10.421875 -5.578125 C 11.304688 -5.046875 12.414062 -4.78125 13.75 -4.78125 C 15.375 -4.78125 16.632812 -5.375 17.53125 -6.5625 C 18.4375 -7.757812 18.890625 -9.179688 18.890625 -10.828125 L 18.890625 -11.140625 C 18.890625 -12.128906 18.691406 -13.050781 18.296875 -13.90625 C 17.898438 -14.757812 17.328125 -15.445312 16.578125 -15.96875 C 15.828125 -16.488281 14.898438 -16.75 13.796875 -16.75 C 11.359375 -16.75 9.628906 -15.851562 8.609375 -14.0625 L 2.21875 -14.0625 L 3.390625 -31.421875 L 24.015625 -31.421875 L 24.015625 -26.109375 L 9.046875 -26.109375 L 8.359375 -18.3125 L 8.4375 -18.3125 C 9.101562 -19.394531 10.03125 -20.273438 11.21875 -20.953125 C 12.414062 -21.628906 14.070312 -21.96875 16.1875 -21.96875 C 18.1875 -21.96875 19.894531 -21.484375 21.3125 -20.515625 C 22.738281 -19.546875 23.820312 -18.257812 24.5625 -16.65625 C 25.300781 -15.0625 25.671875 -13.3125 25.671875 -11.40625 L 25.671875 -11.015625 C 25.671875 -8.742188 25.160156 -6.738281 24.140625 -5 C 23.128906 -3.257812 21.707031 -1.894531 19.875 -0.90625 C 18.050781 0.0703125 15.921875 0.5625 13.484375 0.5625 Z M 13.484375 0.5625 "/></g></g></g></g></g><g fill="#000000" fill-opacity="1"><g transform="translate(67.369156, 35.776758)"><g><path d="M 6.921875 0.25 C 5.671875 0.25 4.582031 -0.0234375 3.65625 -0.578125 C 2.726562 -1.128906 2.003906 -1.929688 1.484375 -2.984375 C 0.972656 -4.035156 0.71875 -5.304688 0.71875 -6.796875 L 0.71875 -6.96875 C 0.71875 -8.488281 1.007812 -9.796875 1.59375 -10.890625 C 2.175781 -11.992188 2.988281 -12.835938 4.03125 -13.421875 C 5.082031 -14.015625 6.285156 -14.3125 7.640625 -14.3125 C 8.828125 -14.3125 9.859375 -14.128906 10.734375 -13.765625 C 11.617188 -13.398438 12.320312 -12.898438 12.84375 -12.265625 C 13.375 -11.640625 13.691406 -10.914062 13.796875 -10.09375 L 10.71875 -10.09375 C 10.507812 -10.570312 10.132812 -10.984375 9.59375 -11.328125 C 9.0625 -11.671875 8.363281 -11.84375 7.5 -11.84375 C 6.414062 -11.84375 5.519531 -11.445312 4.8125 -10.65625 C 4.101562 -9.863281 3.75 -8.65625 3.75 -7.03125 L 3.75 -6.875 C 3.75 -5.382812 4.097656 -4.242188 4.796875 -3.453125 C 5.503906 -2.671875 6.429688 -2.28125 7.578125 -2.28125 C 8.734375 -2.28125 9.566406 -2.515625 10.078125 -2.984375 C 10.585938 -3.460938 10.867188 -4.132812 10.921875 -5 L 7.9375 -5 L 7.9375 -7.234375 L 13.921875 -7.234375 L 13.921875 0 L 11.40625 0 L 11.40625 -0.515625 C 11.40625 -0.765625 11.40625 -0.992188 11.40625 -1.203125 C 11.40625 -1.410156 11.410156 -1.753906 11.421875 -2.234375 L 11.375 -2.234375 C 11.125 -1.390625 10.597656 -0.765625 9.796875 -0.359375 C 8.992188 0.046875 8.035156 0.25 6.921875 0.25 Z M 6.921875 0.25 "/></g></g></g><g fill="#000000" fill-opacity="1"><g transform="translate(82.357094, 35.776758)"><g><path d="M 5.78125 0.265625 C 4.738281 0.265625 3.816406 0.0664062 3.015625 -0.328125 C 2.210938 -0.734375 1.582031 -1.332031 1.125 -2.125 C 0.664062 -2.925781 0.4375 -3.925781 0.4375 -5.125 L 0.4375 -5.1875 C 0.4375 -6.363281 0.679688 -7.359375 1.171875 -8.171875 C 1.671875 -8.984375 2.328125 -9.597656 3.140625 -10.015625 C 3.960938 -10.429688 4.84375 -10.640625 5.78125 -10.640625 C 6.800781 -10.640625 7.707031 -10.4375 8.5 -10.03125 C 9.300781 -9.632812 9.929688 -9.039062 10.390625 -8.25 C 10.847656 -7.457031 11.078125 -6.46875 11.078125 -5.28125 L 11.078125 -5.171875 C 11.078125 -4.003906 10.828125 -3.015625 10.328125 -2.203125 C 9.828125 -1.390625 9.171875 -0.773438 8.359375 -0.359375 C 7.554688 0.0546875 6.695312 0.265625 5.78125 0.265625 Z M 5.78125 -1.859375 C 6.195312 -1.859375 6.582031 -1.957031 6.9375 -2.15625 C 7.289062 -2.363281 7.570312 -2.703125 7.78125 -3.171875 C 8 -3.648438 8.109375 -4.3125 8.109375 -5.15625 L 8.109375 -5.203125 C 8.109375 -6.054688 8 -6.722656 7.78125 -7.203125 C 7.570312 -7.679688 7.289062 -8.019531 6.9375 -8.21875 C 6.59375 -8.425781 6.207031 -8.53125 5.78125 -8.53125 C 5.363281 -8.53125 4.972656 -8.425781 4.609375 -8.21875 C 4.242188 -8.007812 3.953125 -7.660156 3.734375 -7.171875 C 3.515625 -6.691406 3.40625 -6.03125 3.40625 -5.1875 L 3.40625 -5.125 C 3.40625 -4.300781 3.507812 -3.648438 3.71875 -3.171875 C 3.925781 -2.703125 4.207031 -2.363281 4.5625 -2.15625 C 4.925781 -1.957031 5.332031 -1.859375 5.78125 -1.859375 Z M 5.78125 -1.859375 "/></g></g></g><g fill="#000000" fill-opacity="1"><g transform="translate(93.868739, 35.776758)"><g><path d="M 5.78125 0.265625 C 4.738281 0.265625 3.816406 0.0664062 3.015625 -0.328125 C 2.210938 -0.734375 1.582031 -1.332031 1.125 -2.125 C 0.664062 -2.925781 0.4375 -3.925781 0.4375 -5.125 L 0.4375 -5.1875 C 0.4375 -6.363281 0.679688 -7.359375 1.171875 -8.171875 C 1.671875 -8.984375 2.328125 -9.597656 3.140625 -10.015625 C 3.960938 -10.429688 4.84375 -10.640625 5.78125 -10.640625 C 6.800781 -10.640625 7.707031 -10.4375 8.5 -10.03125 C 9.300781 -9.632812 9.929688 -9.039062 10.390625 -8.25 C 10.847656 -7.457031 11.078125 -6.46875 11.078125 -5.28125 L 11.078125 -5.171875 C 11.078125 -4.003906 10.828125 -3.015625 10.328125 -2.203125 C 9.828125 -1.390625 9.171875 -0.773438 8.359375 -0.359375 C 7.554688 0.0546875 6.695312 0.265625 5.78125 0.265625 Z M 5.78125 -1.859375 C 6.195312 -1.859375 6.582031 -1.957031 6.9375 -2.15625 C 7.289062 -2.363281 7.570312 -2.703125 7.78125 -3.171875 C 8 -3.648438 8.109375 -4.3125 8.109375 -5.15625 L 8.109375 -5.203125 C 8.109375 -6.054688 8 -6.722656 7.78125 -7.203125 C 7.570312 -7.679688 7.289062 -8.019531 6.9375 -8.21875 C 6.59375 -8.425781 6.207031 -8.53125 5.78125 -8.53125 C 5.363281 -8.53125 4.972656 -8.425781 4.609375 -8.21875 C 4.242188 -8.007812 3.953125 -7.660156 3.734375 -7.171875 C 3.515625 -6.691406 3.40625 -6.03125 3.40625 -5.1875 L 3.40625 -5.125 C 3.40625 -4.300781 3.507812 -3.648438 3.71875 -3.171875 C 3.925781 -2.703125 4.207031 -2.363281 4.5625 -2.15625 C 4.925781 -1.957031 5.332031 -1.859375 5.78125 -1.859375 Z M 5.78125 -1.859375 "/></g></g></g><g fill="#000000" fill-opacity="1"><g transform="translate(105.380385, 35.776758)"><g><path d="M 8.1875 -9.046875 L 8.1875 -14.6875 L 10.96875 -14.6875 L 10.96875 0 L 8.421875 0 L 8.453125 -2.015625 C 8.234375 -1.410156 7.9375 -0.945312 7.5625 -0.625 C 7.195312 -0.3125 6.78125 -0.0976562 6.3125 0.015625 C 5.84375 0.140625 5.34375 0.203125 4.8125 0.203125 C 4.082031 0.203125 3.378906 0.03125 2.703125 -0.3125 C 2.035156 -0.664062 1.488281 -1.222656 1.0625 -1.984375 C 0.644531 -2.753906 0.4375 -3.753906 0.4375 -4.984375 L 0.4375 -5.125 C 0.4375 -6.382812 0.648438 -7.414062 1.078125 -8.21875 C 1.515625 -9.03125 2.070312 -9.632812 2.75 -10.03125 C 3.425781 -10.4375 4.128906 -10.640625 4.859375 -10.640625 C 5.585938 -10.640625 6.234375 -10.53125 6.796875 -10.3125 C 7.367188 -10.101562 7.832031 -9.679688 8.1875 -9.046875 Z M 5.75 -1.953125 C 6.144531 -1.953125 6.523438 -2.046875 6.890625 -2.234375 C 7.265625 -2.421875 7.570312 -2.742188 7.8125 -3.203125 C 8.0625 -3.671875 8.1875 -4.332031 8.1875 -5.1875 C 8.1875 -6.40625 7.957031 -7.257812 7.5 -7.75 C 7.050781 -8.25 6.484375 -8.5 5.796875 -8.5 C 5.097656 -8.5 4.53125 -8.210938 4.09375 -7.640625 C 3.65625 -7.066406 3.4375 -6.253906 3.4375 -5.203125 L 3.4375 -5.109375 C 3.4375 -4.035156 3.65625 -3.238281 4.09375 -2.71875 C 4.539062 -2.207031 5.09375 -1.953125 5.75 -1.953125 Z M 5.75 -1.953125 "/></g></g></g><g fill="#000000" fill-opacity="1"><g transform="translate(117.385935, 35.776758)"><g/></g></g><g fill="#000000" fill-opacity="1"><g transform="translate(123.084772, 35.776758)"><g><path d="M 0.28125 -14.15625 L 12.46875 -14.15625 L 12.46875 -11.796875 L 7.828125 -11.796875 L 7.828125 0 L 4.953125 0 L 4.953125 -11.796875 L 0.28125 -11.796875 Z M 0.28125 -14.15625 "/></g></g></g><g fill="#000000" fill-opacity="1"><g transform="translate(135.831166, 35.776758)"><g><path d="M 2.609375 -11.46875 C 2.171875 -11.46875 1.796875 -11.625 1.484375 -11.9375 C 1.179688 -12.25 1.03125 -12.617188 1.03125 -13.046875 C 1.03125 -13.492188 1.179688 -13.867188 1.484375 -14.171875 C 1.796875 -14.472656 2.171875 -14.625 2.609375 -14.625 C 3.046875 -14.625 3.414062 -14.472656 3.71875 -14.171875 C 4.03125 -13.867188 4.1875 -13.492188 4.1875 -13.046875 C 4.1875 -12.617188 4.03125 -12.25 3.71875 -11.9375 C 3.414062 -11.625 3.046875 -11.46875 2.609375 -11.46875 Z M 4.015625 -10.390625 L 4.015625 0 L 1.234375 0 L 1.234375 -10.390625 Z M 4.015625 -10.390625 "/></g></g></g><g fill="#000000" fill-opacity="1"><g transform="translate(141.530003, 35.776758)"><g><path d="M 13.953125 -10.609375 C 14.992188 -10.609375 15.851562 -10.285156 16.53125 -9.640625 C 17.21875 -9.003906 17.5625 -7.988281 17.5625 -6.59375 L 17.5625 0 L 14.765625 0 L 14.765625 -6.0625 C 14.765625 -6.84375 14.59375 -7.398438 14.25 -7.734375 C 13.90625 -8.078125 13.460938 -8.25 12.921875 -8.25 C 12.421875 -8.25 12.003906 -8.140625 11.671875 -7.921875 C 11.347656 -7.703125 11.109375 -7.425781 10.953125 -7.09375 C 10.796875 -6.769531 10.703125 -6.429688 10.671875 -6.078125 L 10.671875 0 L 7.90625 0 L 7.90625 -6.0625 C 7.90625 -6.84375 7.734375 -7.398438 7.390625 -7.734375 C 7.046875 -8.078125 6.597656 -8.25 6.046875 -8.25 C 5.546875 -8.25 5.132812 -8.140625 4.8125 -7.921875 C 4.488281 -7.703125 4.242188 -7.425781 4.078125 -7.09375 C 3.921875 -6.769531 3.832031 -6.429688 3.8125 -6.078125 L 3.8125 0 L 1.046875 0 L 1.046875 -10.390625 L 3.53125 -10.390625 L 3.53125 -10.015625 C 3.53125 -9.734375 3.523438 -9.472656 3.515625 -9.234375 C 3.515625 -8.992188 3.515625 -8.707031 3.515625 -8.375 L 3.53125 -8.375 C 3.738281 -9.007812 4.019531 -9.484375 4.375 -9.796875 C 4.738281 -10.117188 5.15625 -10.332031 5.625 -10.4375 C 6.101562 -10.550781 6.601562 -10.609375 7.125 -10.609375 C 7.90625 -10.609375 8.566406 -10.425781 9.109375 -10.0625 C 9.660156 -9.695312 10.050781 -9.175781 10.28125 -8.5 L 10.34375 -8.5 C 10.5625 -9.070312 10.859375 -9.507812 11.234375 -9.8125 C 11.609375 -10.125 12.03125 -10.332031 12.5 -10.4375 C 12.96875 -10.550781 13.453125 -10.609375 13.953125 -10.609375 Z M 13.953125 -10.609375 "/></g></g></g><g fill="#000000" fill-opacity="1"><g transform="translate(160.070221, 35.776758)"><g><path d="M 10.734375 -5.640625 L 10.734375 -4.84375 L 3.359375 -4.84375 C 3.367188 -3.820312 3.585938 -3.050781 4.015625 -2.53125 C 4.453125 -2.007812 5.015625 -1.75 5.703125 -1.75 C 6.273438 -1.75 6.742188 -1.863281 7.109375 -2.09375 C 7.484375 -2.320312 7.722656 -2.628906 7.828125 -3.015625 L 10.609375 -3.015625 C 10.429688 -2.054688 9.921875 -1.269531 9.078125 -0.65625 C 8.242188 -0.0390625 7.101562 0.265625 5.65625 0.265625 C 4.039062 0.265625 2.765625 -0.1875 1.828125 -1.09375 C 0.898438 -2 0.4375 -3.34375 0.4375 -5.125 L 0.4375 -5.203125 C 0.4375 -6.359375 0.671875 -7.335938 1.140625 -8.140625 C 1.617188 -8.941406 2.253906 -9.554688 3.046875 -9.984375 C 3.835938 -10.421875 4.703125 -10.640625 5.640625 -10.640625 C 7.171875 -10.640625 8.398438 -10.21875 9.328125 -9.375 C 10.265625 -8.539062 10.734375 -7.296875 10.734375 -5.640625 Z M 3.421875 -6.578125 L 7.828125 -6.578125 C 7.816406 -7.222656 7.609375 -7.738281 7.203125 -8.125 C 6.804688 -8.507812 6.285156 -8.703125 5.640625 -8.703125 C 5.046875 -8.703125 4.550781 -8.515625 4.15625 -8.140625 C 3.769531 -7.765625 3.523438 -7.242188 3.421875 -6.578125 Z M 3.421875 -6.578125 "/></g></g></g></svg>