<svg xmlns="http://www.w3.org/2000/svg" xmlns:xlink="http://www.w3.org/1999/xlink" width="460" zoomAndPan="magnify" viewBox="0 0 345 60" height="80" preserveAspectRatio="xMidYMid meet" version="1.0"><defs><g/><clipPath id="13ef773ee8"><path d="M 45.003906 3.195312 L 345 3.195312 L 345 55.605469 L 45.003906 55.605469 Z M 45.003906 3.195312 " clip-rule="nonzero"/></clipPath><clipPath id="b80001880c"><path d="M 54.003906 3.195312 L 336 3.195312 C 340.96875 3.195312 345 7.226562 345 12.195312 L 345 46.605469 C 345 51.578125 340.96875 55.605469 336 55.605469 L 54.003906 55.605469 C 49.035156 55.605469 45.003906 51.578125 45.003906 46.605469 L 45.003906 12.195312 C 45.003906 7.226562 49.035156 3.195312 54.003906 3.195312 Z M 54.003906 3.195312 " clip-rule="nonzero"/></clipPath><clipPath id="c7bbcc02e7"><path d="M 0.00390625 0.195312 L 300 0.195312 L 300 52.605469 L 0.00390625 52.605469 Z M 0.00390625 0.195312 " clip-rule="nonzero"/></clipPath><clipPath id="179aac0ee1"><path d="M 9.003906 0.195312 L 291 0.195312 C 295.96875 0.195312 300 4.226562 300 9.195312 L 300 43.605469 C 300 48.578125 295.96875 52.605469 291 52.605469 L 9.003906 52.605469 C 4.035156 52.605469 0.00390625 48.578125 0.00390625 43.605469 L 0.00390625 9.195312 C 0.00390625 4.226562 4.035156 0.195312 9.003906 0.195312 Z M 9.003906 0.195312 " clip-rule="nonzero"/></clipPath><clipPath id="dd4733369b"><rect x="0" width="300" y="0" height="53"/></clipPath><clipPath id="11bfda081c"><path d="M 0 0 L 58.804688 0 L 58.804688 58.804688 L 0 58.804688 Z M 0 0 " clip-rule="nonzero"/></clipPath><clipPath id="38b8425b81"><path d="M 9 0 L 49.804688 0 C 54.773438 0 58.804688 4.03125 58.804688 9 L 58.804688 49.804688 C 58.804688 54.773438 54.773438 58.804688 49.804688 58.804688 L 9 58.804688 C 4.03125 58.804688 0 54.773438 0 49.804688 L 0 9 C 0 4.03125 4.03125 0 9 0 Z M 9 0 " clip-rule="nonzero"/></clipPath><clipPath id="dc5da258a2"><path d="M 0 0 L 58.804688 0 L 58.804688 58.804688 L 0 58.804688 Z M 0 0 " clip-rule="nonzero"/></clipPath><clipPath id="fed475603a"><path d="M 9 0 L 49.804688 0 C 54.773438 0 58.804688 4.03125 58.804688 9 L 58.804688 49.804688 C 58.804688 54.773438 54.773438 58.804688 49.804688 58.804688 L 9 58.804688 C 4.03125 58.804688 0 54.773438 0 49.804688 L 0 9 C 0 4.03125 4.03125 0 9 0 Z M 9 0 " clip-rule="nonzero"/></clipPath><clipPath id="11da25c081"><rect x="0" width="59" y="0" height="59"/></clipPath><clipPath id="01cd9d39a1"><rect x="0" width="29" y="0" height="54"/></clipPath></defs><g clip-path="url(#13ef773ee8)"><g clip-path="url(#b80001880c)"><g transform="matrix(1, 0, 0, 1, 45, 3)"><g clip-path="url(#dd4733369b)"><g clip-path="url(#c7bbcc02e7)"><g clip-path="url(#179aac0ee1)"><path fill="#9fffd0" d="M 0.00390625 0.195312 L 299.921875 0.195312 L 299.921875 52.605469 L 0.00390625 52.605469 Z M 0.00390625 0.195312 " fill-opacity="1" fill-rule="nonzero"/></g></g></g></g></g></g><g clip-path="url(#11bfda081c)"><g clip-path="url(#38b8425b81)"><g transform="matrix(1, 0, 0, 1, 0, -0.000000000000001479)"><g clip-path="url(#11da25c081)"><g clip-path="url(#dc5da258a2)"><g clip-path="url(#fed475603a)"><path fill="#008444" d="M 0 0 L 58.804688 0 L 58.804688 58.804688 L 0 58.804688 Z M 0 0 " fill-opacity="1" fill-rule="nonzero"/></g></g></g></g></g></g><g transform="matrix(1, 0, 0, 1, 16, 3)"><g clip-path="url(#01cd9d39a1)"><g fill="#ffffff" fill-opacity="1"><g transform="translate(0.680312, 44.051311)"><g><path d="M 14.0625 0.609375 C 11.5 0.609375 9.257812 0.0664062 7.34375 -1.015625 C 5.4375 -2.109375 3.957031 -3.765625 2.90625 -5.984375 C 1.863281 -8.203125 1.34375 -10.992188 1.34375 -14.359375 L 1.34375 -14.96875 C 1.34375 -18.707031 1.894531 -21.816406 3 -24.296875 C 4.101562 -26.785156 5.65625 -28.648438 7.65625 -29.890625 C 9.65625 -31.140625 11.976562 -31.765625 14.625 -31.765625 C 16.800781 -31.765625 18.640625 -31.4375 20.140625 -30.78125 C 21.648438 -30.132812 22.847656 -29.273438 23.734375 -28.203125 C 24.617188 -27.128906 25.191406 -25.953125 25.453125 -24.671875 L 25.5 -24.453125 L 18.84375 -24.453125 L 18.796875 -24.59375 C 18.503906 -25.257812 17.945312 -25.78125 17.125 -26.15625 C 16.300781 -26.53125 15.410156 -26.71875 14.453125 -26.71875 C 13.378906 -26.71875 12.550781 -26.554688 11.96875 -26.234375 C 11.382812 -25.921875 10.789062 -25.429688 10.1875 -24.765625 C 9.457031 -23.890625 8.878906 -22.644531 8.453125 -21.03125 C 8.035156 -19.425781 7.816406 -17.640625 7.796875 -15.671875 L 7.828125 -15.671875 C 8.003906 -16.484375 8.390625 -17.285156 8.984375 -18.078125 C 9.578125 -18.878906 10.445312 -19.539062 11.59375 -20.0625 C 12.738281 -20.582031 14.210938 -20.84375 16.015625 -20.84375 C 18.097656 -20.84375 19.882812 -20.363281 21.375 -19.40625 C 22.875 -18.445312 24.019531 -17.175781 24.8125 -15.59375 C 25.613281 -14.019531 26.015625 -12.289062 26.015625 -10.40625 L 26.015625 -10.015625 C 26.015625 -8.035156 25.535156 -6.238281 24.578125 -4.625 C 23.628906 -3.019531 22.257812 -1.742188 20.46875 -0.796875 C 18.6875 0.140625 16.550781 0.609375 14.0625 0.609375 Z M 13.796875 -4.4375 C 15.328125 -4.4375 16.609375 -4.953125 17.640625 -5.984375 C 18.671875 -7.015625 19.1875 -8.382812 19.1875 -10.09375 L 19.1875 -10.265625 C 19.1875 -12.035156 18.710938 -13.398438 17.765625 -14.359375 C 16.828125 -15.316406 15.59375 -15.796875 14.0625 -15.796875 C 12.488281 -15.796875 11.171875 -15.28125 10.109375 -14.25 C 9.054688 -13.21875 8.53125 -11.863281 8.53125 -10.1875 L 8.53125 -10.015625 C 8.53125 -8.441406 9.015625 -7.117188 9.984375 -6.046875 C 10.953125 -4.972656 12.222656 -4.4375 13.796875 -4.4375 Z M 13.796875 -4.4375 "/></g></g></g></g></g><g fill="#000000" fill-opacity="1"><g transform="translate(67.369156, 35.776738)"><g><path d="M 7.328125 0.25 C 6.015625 0.25 4.859375 -0.0234375 3.859375 -0.578125 C 2.867188 -1.128906 2.097656 -1.929688 1.546875 -2.984375 C 0.992188 -4.046875 0.71875 -5.335938 0.71875 -6.859375 L 0.71875 -7.03125 C 0.71875 -8.550781 1.007812 -9.851562 1.59375 -10.9375 C 2.1875 -12.03125 2.992188 -12.863281 4.015625 -13.4375 C 5.046875 -14.019531 6.222656 -14.3125 7.546875 -14.3125 C 8.691406 -14.3125 9.722656 -14.128906 10.640625 -13.765625 C 11.554688 -13.398438 12.296875 -12.863281 12.859375 -12.15625 C 13.421875 -11.445312 13.75 -10.582031 13.84375 -9.5625 L 10.8125 -9.5625 C 10.71875 -10.039062 10.503906 -10.453125 10.171875 -10.796875 C 9.847656 -11.140625 9.453125 -11.398438 8.984375 -11.578125 C 8.515625 -11.753906 8.015625 -11.84375 7.484375 -11.84375 C 6.359375 -11.84375 5.453125 -11.441406 4.765625 -10.640625 C 4.085938 -9.835938 3.75 -8.632812 3.75 -7.03125 L 3.75 -6.875 C 3.75 -5.363281 4.085938 -4.21875 4.765625 -3.4375 C 5.453125 -2.65625 6.316406 -2.265625 7.359375 -2.265625 C 8.296875 -2.265625 9.070312 -2.460938 9.6875 -2.859375 C 10.300781 -3.253906 10.675781 -3.820312 10.8125 -4.5625 L 13.828125 -4.5625 C 13.753906 -3.570312 13.429688 -2.710938 12.859375 -1.984375 C 12.296875 -1.265625 11.535156 -0.710938 10.578125 -0.328125 C 9.628906 0.0546875 8.546875 0.25 7.328125 0.25 Z M 7.328125 0.25 "/></g></g></g><g fill="#000000" fill-opacity="1"><g transform="translate(81.863189, 35.776738)"><g><path d="M 5.78125 0.265625 C 4.738281 0.265625 3.816406 0.0664062 3.015625 -0.328125 C 2.210938 -0.734375 1.582031 -1.332031 1.125 -2.125 C 0.664062 -2.925781 0.4375 -3.925781 0.4375 -5.125 L 0.4375 -5.1875 C 0.4375 -6.363281 0.679688 -7.359375 1.171875 -8.171875 C 1.671875 -8.984375 2.328125 -9.597656 3.140625 -10.015625 C 3.960938 -10.429688 4.84375 -10.640625 5.78125 -10.640625 C 6.800781 -10.640625 7.707031 -10.4375 8.5 -10.03125 C 9.300781 -9.632812 9.929688 -9.039062 10.390625 -8.25 C 10.847656 -7.457031 11.078125 -6.46875 11.078125 -5.28125 L 11.078125 -5.171875 C 11.078125 -4.003906 10.828125 -3.015625 10.328125 -2.203125 C 9.828125 -1.390625 9.171875 -0.773438 8.359375 -0.359375 C 7.554688 0.0546875 6.695312 0.265625 5.78125 0.265625 Z M 5.78125 -1.859375 C 6.195312 -1.859375 6.582031 -1.957031 6.9375 -2.15625 C 7.289062 -2.363281 7.570312 -2.703125 7.78125 -3.171875 C 8 -3.648438 8.109375 -4.3125 8.109375 -5.15625 L 8.109375 -5.203125 C 8.109375 -6.054688 8 -6.722656 7.78125 -7.203125 C 7.570312 -7.679688 7.289062 -8.019531 6.9375 -8.21875 C 6.59375 -8.425781 6.207031 -8.53125 5.78125 -8.53125 C 5.363281 -8.53125 4.972656 -8.425781 4.609375 -8.21875 C 4.242188 -8.007812 3.953125 -7.660156 3.734375 -7.171875 C 3.515625 -6.691406 3.40625 -6.03125 3.40625 -5.1875 L 3.40625 -5.125 C 3.40625 -4.300781 3.507812 -3.648438 3.71875 -3.171875 C 3.925781 -2.703125 4.207031 -2.363281 4.5625 -2.15625 C 4.925781 -1.957031 5.332031 -1.859375 5.78125 -1.859375 Z M 5.78125 -1.859375 "/></g></g></g><g fill="#000000" fill-opacity="1"><g transform="translate(93.374835, 35.776738)"><g><path d="M 7.84375 -4.3125 L 7.84375 -10.390625 L 10.625 -10.390625 L 10.625 0 L 8.15625 0 L 8.15625 -2 C 7.945312 -1.375 7.660156 -0.898438 7.296875 -0.578125 C 6.929688 -0.265625 6.515625 -0.0546875 6.046875 0.046875 C 5.578125 0.148438 5.085938 0.203125 4.578125 0.203125 C 3.890625 0.203125 3.273438 0.0625 2.734375 -0.21875 C 2.203125 -0.5 1.773438 -0.929688 1.453125 -1.515625 C 1.140625 -2.109375 0.984375 -2.867188 0.984375 -3.796875 L 0.984375 -10.390625 L 3.765625 -10.390625 L 3.765625 -4.328125 C 3.765625 -3.554688 3.9375 -3 4.28125 -2.65625 C 4.632812 -2.3125 5.082031 -2.140625 5.625 -2.140625 C 6.132812 -2.140625 6.550781 -2.25 6.875 -2.46875 C 7.195312 -2.6875 7.4375 -2.957031 7.59375 -3.28125 C 7.75 -3.613281 7.832031 -3.957031 7.84375 -4.3125 Z M 7.84375 -4.3125 "/></g></g></g><g fill="#000000" fill-opacity="1"><g transform="translate(105.038447, 35.776738)"><g><path d="M 7.09375 -10.609375 C 8.15625 -10.609375 9.023438 -10.285156 9.703125 -9.640625 C 10.378906 -9.003906 10.71875 -7.988281 10.71875 -6.59375 L 10.71875 0 L 7.9375 0 L 7.9375 -6.0625 C 7.9375 -6.84375 7.757812 -7.398438 7.40625 -7.734375 C 7.0625 -8.078125 6.613281 -8.25 6.0625 -8.25 C 5.5625 -8.25 5.144531 -8.140625 4.8125 -7.921875 C 4.488281 -7.703125 4.242188 -7.429688 4.078125 -7.109375 C 3.921875 -6.785156 3.832031 -6.445312 3.8125 -6.09375 L 3.8125 0 L 1.046875 0 L 1.046875 -10.390625 L 3.53125 -10.390625 L 3.53125 -10.015625 C 3.53125 -9.734375 3.523438 -9.472656 3.515625 -9.234375 C 3.515625 -8.992188 3.515625 -8.707031 3.515625 -8.375 L 3.546875 -8.375 C 3.742188 -9.007812 4.019531 -9.484375 4.375 -9.796875 C 4.726562 -10.117188 5.140625 -10.332031 5.609375 -10.4375 C 6.078125 -10.550781 6.570312 -10.609375 7.09375 -10.609375 Z M 7.09375 -10.609375 "/></g></g></g><g fill="#000000" fill-opacity="1"><g transform="translate(116.740053, 35.776738)"><g><path d="M 5.078125 -13.28125 L 5.078125 -10.390625 L 7.15625 -10.390625 L 7.15625 -8.234375 L 5.078125 -8.234375 L 5.078125 0 L 2.28125 0 L 2.28125 -8.234375 L 0.1875 -8.234375 L 0.1875 -10.390625 L 2.28125 -10.390625 L 2.28125 -13.28125 Z M 5.078125 -13.28125 "/></g></g></g><g fill="#000000" fill-opacity="1"><g transform="translate(124.091554, 35.776738)"><g><path d="M 7.40625 -10.5 C 7.488281 -10.5 7.554688 -10.5 7.609375 -10.5 C 7.660156 -10.5 7.710938 -10.492188 7.765625 -10.484375 L 7.765625 -7.828125 C 7.679688 -7.835938 7.585938 -7.84375 7.484375 -7.84375 C 7.378906 -7.851562 7.257812 -7.859375 7.125 -7.859375 C 6.53125 -7.859375 5.976562 -7.75 5.46875 -7.53125 C 4.96875 -7.3125 4.5625 -7.019531 4.25 -6.65625 C 3.945312 -6.300781 3.796875 -5.910156 3.796875 -5.484375 L 3.796875 0 L 1.03125 0 L 1.03125 -10.390625 L 3.53125 -10.390625 L 3.53125 -10.015625 C 3.53125 -9.734375 3.523438 -9.445312 3.515625 -9.15625 C 3.515625 -8.875 3.515625 -8.53125 3.515625 -8.125 L 3.625 -8.125 C 3.957031 -9 4.460938 -9.613281 5.140625 -9.96875 C 5.816406 -10.320312 6.570312 -10.5 7.40625 -10.5 Z M 7.40625 -10.5 "/></g></g></g><g fill="#000000" fill-opacity="1"><g transform="translate(132.430887, 35.776738)"><g><path d="M 2.296875 3.90625 C 2.015625 3.90625 1.800781 3.898438 1.65625 3.890625 C 1.507812 3.890625 1.375 3.875 1.25 3.84375 L 1.25 1.59375 C 1.394531 1.601562 1.519531 1.613281 1.625 1.625 C 1.726562 1.644531 1.859375 1.65625 2.015625 1.65625 C 2.378906 1.65625 2.710938 1.578125 3.015625 1.421875 C 3.328125 1.273438 3.5625 1.003906 3.71875 0.609375 C 3.769531 0.492188 3.8125 0.390625 3.84375 0.296875 C 3.875 0.203125 3.894531 0.125 3.90625 0.0625 L 0.09375 -10.390625 L 3.078125 -10.390625 L 5.59375 -2.734375 L 5.625 -2.734375 L 8.015625 -10.390625 L 10.875 -10.390625 L 7.03125 -0.078125 C 6.71875 0.785156 6.363281 1.515625 5.96875 2.109375 C 5.570312 2.703125 5.082031 3.148438 4.5 3.453125 C 3.914062 3.753906 3.179688 3.90625 2.296875 3.90625 Z M 2.296875 3.90625 "/></g></g></g><g fill="#000000" fill-opacity="1"><g transform="translate(143.391648, 35.776738)"><g/></g></g><g fill="#000000" fill-opacity="1"><g transform="translate(149.090485, 35.776738)"><g><path d="M 11.90625 -4.5625 L 12.6875 -1.640625 C 12.789062 -1.242188 12.882812 -0.9375 12.96875 -0.71875 C 13.050781 -0.507812 13.132812 -0.320312 13.21875 -0.15625 L 13.21875 0 L 10.046875 0 C 9.960938 -0.21875 9.890625 -0.4375 9.828125 -0.65625 C 9.765625 -0.875 9.691406 -1.125 9.609375 -1.40625 L 9 -3.796875 C 8.882812 -4.242188 8.722656 -4.597656 8.515625 -4.859375 C 8.304688 -5.117188 7.976562 -5.253906 7.53125 -5.265625 L 4.28125 -5.265625 L 4.28125 0 L 1.421875 0 L 1.421875 -14.15625 L 8.171875 -14.15625 C 9.691406 -14.15625 10.84375 -13.8125 11.625 -13.125 C 12.414062 -12.445312 12.8125 -11.492188 12.8125 -10.265625 L 12.8125 -10.109375 C 12.8125 -9.503906 12.710938 -8.984375 12.515625 -8.546875 C 12.328125 -8.109375 12.09375 -7.75 11.8125 -7.46875 C 11.539062 -7.1875 11.265625 -6.972656 10.984375 -6.828125 C 10.703125 -6.691406 10.472656 -6.613281 10.296875 -6.59375 L 10.296875 -6.5625 C 10.703125 -6.476562 11.035156 -6.257812 11.296875 -5.90625 C 11.566406 -5.550781 11.769531 -5.101562 11.90625 -4.5625 Z M 7.40625 -11.90625 L 4.28125 -11.90625 L 4.28125 -7.546875 L 7.578125 -7.546875 C 8.234375 -7.546875 8.757812 -7.753906 9.15625 -8.171875 C 9.5625 -8.597656 9.765625 -9.148438 9.765625 -9.828125 L 9.765625 -9.90625 C 9.765625 -10.5625 9.554688 -11.054688 9.140625 -11.390625 C 8.734375 -11.734375 8.15625 -11.90625 7.40625 -11.90625 Z M 7.40625 -11.90625 "/></g></g></g><g fill="#000000" fill-opacity="1"><g transform="translate(162.99564, 35.776738)"><g><path d="M 5.78125 0.265625 C 4.738281 0.265625 3.816406 0.0664062 3.015625 -0.328125 C 2.210938 -0.734375 1.582031 -1.332031 1.125 -2.125 C 0.664062 -2.925781 0.4375 -3.925781 0.4375 -5.125 L 0.4375 -5.1875 C 0.4375 -6.363281 0.679688 -7.359375 1.171875 -8.171875 C 1.671875 -8.984375 2.328125 -9.597656 3.140625 -10.015625 C 3.960938 -10.429688 4.84375 -10.640625 5.78125 -10.640625 C 6.800781 -10.640625 7.707031 -10.4375 8.5 -10.03125 C 9.300781 -9.632812 9.929688 -9.039062 10.390625 -8.25 C 10.847656 -7.457031 11.078125 -6.46875 11.078125 -5.28125 L 11.078125 -5.171875 C 11.078125 -4.003906 10.828125 -3.015625 10.328125 -2.203125 C 9.828125 -1.390625 9.171875 -0.773438 8.359375 -0.359375 C 7.554688 0.0546875 6.695312 0.265625 5.78125 0.265625 Z M 5.78125 -1.859375 C 6.195312 -1.859375 6.582031 -1.957031 6.9375 -2.15625 C 7.289062 -2.363281 7.570312 -2.703125 7.78125 -3.171875 C 8 -3.648438 8.109375 -4.3125 8.109375 -5.15625 L 8.109375 -5.203125 C 8.109375 -6.054688 8 -6.722656 7.78125 -7.203125 C 7.570312 -7.679688 7.289062 -8.019531 6.9375 -8.21875 C 6.59375 -8.425781 6.207031 -8.53125 5.78125 -8.53125 C 5.363281 -8.53125 4.972656 -8.425781 4.609375 -8.21875 C 4.242188 -8.007812 3.953125 -7.660156 3.734375 -7.171875 C 3.515625 -6.691406 3.40625 -6.03125 3.40625 -5.1875 L 3.40625 -5.125 C 3.40625 -4.300781 3.507812 -3.648438 3.71875 -3.171875 C 3.925781 -2.703125 4.207031 -2.363281 4.5625 -2.15625 C 4.925781 -1.957031 5.332031 -1.859375 5.78125 -1.859375 Z M 5.78125 -1.859375 "/></g></g></g><g fill="#000000" fill-opacity="1"><g transform="translate(174.507286, 35.776738)"><g><path d="M 8.234375 -8.96875 L 8.234375 -10.390625 L 10.96875 -10.390625 L 10.96875 0 L 8.234375 0 L 8.234375 -1.5 C 7.867188 -0.800781 7.382812 -0.34375 6.78125 -0.125 C 6.1875 0.09375 5.53125 0.203125 4.8125 0.203125 C 4.082031 0.203125 3.378906 0.03125 2.703125 -0.3125 C 2.035156 -0.664062 1.488281 -1.222656 1.0625 -1.984375 C 0.644531 -2.753906 0.4375 -3.753906 0.4375 -4.984375 L 0.4375 -5.125 C 0.4375 -6.382812 0.648438 -7.414062 1.078125 -8.21875 C 1.515625 -9.03125 2.070312 -9.632812 2.75 -10.03125 C 3.425781 -10.4375 4.128906 -10.640625 4.859375 -10.640625 C 5.609375 -10.640625 6.265625 -10.523438 6.828125 -10.296875 C 7.398438 -10.066406 7.867188 -9.625 8.234375 -8.96875 Z M 5.75 -1.953125 C 6.144531 -1.953125 6.523438 -2.046875 6.890625 -2.234375 C 7.265625 -2.421875 7.570312 -2.742188 7.8125 -3.203125 C 8.0625 -3.671875 8.1875 -4.332031 8.1875 -5.1875 C 8.1875 -6.40625 7.957031 -7.257812 7.5 -7.75 C 7.050781 -8.25 6.484375 -8.5 5.796875 -8.5 C 5.097656 -8.5 4.53125 -8.210938 4.09375 -7.640625 C 3.65625 -7.066406 3.4375 -6.253906 3.4375 -5.203125 L 3.4375 -5.109375 C 3.4375 -4.035156 3.65625 -3.238281 4.09375 -2.71875 C 4.539062 -2.207031 5.09375 -1.953125 5.75 -1.953125 Z M 5.75 -1.953125 "/></g></g></g><g fill="#000000" fill-opacity="1"><g transform="translate(186.493838, 35.776738)"><g><path d="M 8.1875 -9.046875 L 8.1875 -14.6875 L 10.96875 -14.6875 L 10.96875 0 L 8.421875 0 L 8.453125 -2.015625 C 8.234375 -1.410156 7.9375 -0.945312 7.5625 -0.625 C 7.195312 -0.3125 6.78125 -0.0976562 6.3125 0.015625 C 5.84375 0.140625 5.34375 0.203125 4.8125 0.203125 C 4.082031 0.203125 3.378906 0.03125 2.703125 -0.3125 C 2.035156 -0.664062 1.488281 -1.222656 1.0625 -1.984375 C 0.644531 -2.753906 0.4375 -3.753906 0.4375 -4.984375 L 0.4375 -5.125 C 0.4375 -6.382812 0.648438 -7.414062 1.078125 -8.21875 C 1.515625 -9.03125 2.070312 -9.632812 2.75 -10.03125 C 3.425781 -10.4375 4.128906 -10.640625 4.859375 -10.640625 C 5.585938 -10.640625 6.234375 -10.53125 6.796875 -10.3125 C 7.367188 -10.101562 7.832031 -9.679688 8.1875 -9.046875 Z M 5.75 -1.953125 C 6.144531 -1.953125 6.523438 -2.046875 6.890625 -2.234375 C 7.265625 -2.421875 7.570312 -2.742188 7.8125 -3.203125 C 8.0625 -3.671875 8.1875 -4.332031 8.1875 -5.1875 C 8.1875 -6.40625 7.957031 -7.257812 7.5 -7.75 C 7.050781 -8.25 6.484375 -8.5 5.796875 -8.5 C 5.097656 -8.5 4.53125 -8.210938 4.09375 -7.640625 C 3.65625 -7.066406 3.4375 -6.253906 3.4375 -5.203125 L 3.4375 -5.109375 C 3.4375 -4.035156 3.65625 -3.238281 4.09375 -2.71875 C 4.539062 -2.207031 5.09375 -1.953125 5.75 -1.953125 Z M 5.75 -1.953125 "/></g></g></g></svg>