<svg xmlns="http://www.w3.org/2000/svg" xmlns:xlink="http://www.w3.org/1999/xlink" width="460" zoomAndPan="magnify" viewBox="0 0 345 60" height="80" preserveAspectRatio="xMidYMid meet" version="1.0"><defs><g/><clipPath id="d7a25c9989"><path d="M 45.003906 3.195312 L 345 3.195312 L 345 55.605469 L 45.003906 55.605469 Z M 45.003906 3.195312 " clip-rule="nonzero"/></clipPath><clipPath id="13b16d4fa8"><path d="M 54.003906 3.195312 L 336 3.195312 C 340.96875 3.195312 345 7.226562 345 12.195312 L 345 46.605469 C 345 51.578125 340.96875 55.605469 336 55.605469 L 54.003906 55.605469 C 49.035156 55.605469 45.003906 51.578125 45.003906 46.605469 L 45.003906 12.195312 C 45.003906 7.226562 49.035156 3.195312 54.003906 3.195312 Z M 54.003906 3.195312 " clip-rule="nonzero"/></clipPath><clipPath id="a55dbdcd74"><path d="M 0.00390625 0.195312 L 300 0.195312 L 300 52.605469 L 0.00390625 52.605469 Z M 0.00390625 0.195312 " clip-rule="nonzero"/></clipPath><clipPath id="7f0bbf058c"><path d="M 9.003906 0.195312 L 291 0.195312 C 295.96875 0.195312 300 4.226562 300 9.195312 L 300 43.605469 C 300 48.578125 295.96875 52.605469 291 52.605469 L 9.003906 52.605469 C 4.035156 52.605469 0.00390625 48.578125 0.00390625 43.605469 L 0.00390625 9.195312 C 0.00390625 4.226562 4.035156 0.195312 9.003906 0.195312 Z M 9.003906 0.195312 " clip-rule="nonzero"/></clipPath><clipPath id="60ba215ae4"><rect x="0" width="300" y="0" height="53"/></clipPath><clipPath id="7856661aa4"><path d="M 0 0 L 58.804688 0 L 58.804688 58.804688 L 0 58.804688 Z M 0 0 " clip-rule="nonzero"/></clipPath><clipPath id="cbe0947e02"><path d="M 9 0 L 49.804688 0 C 54.773438 0 58.804688 4.03125 58.804688 9 L 58.804688 49.804688 C 58.804688 54.773438 54.773438 58.804688 49.804688 58.804688 L 9 58.804688 C 4.03125 58.804688 0 54.773438 0 49.804688 L 0 9 C 0 4.03125 4.03125 0 9 0 Z M 9 0 " clip-rule="nonzero"/></clipPath><clipPath id="89456306bf"><path d="M 0 0 L 58.804688 0 L 58.804688 58.804688 L 0 58.804688 Z M 0 0 " clip-rule="nonzero"/></clipPath><clipPath id="8b370d7b94"><path d="M 9 0 L 49.804688 0 C 54.773438 0 58.804688 4.03125 58.804688 9 L 58.804688 49.804688 C 58.804688 54.773438 54.773438 58.804688 49.804688 58.804688 L 9 58.804688 C 4.03125 58.804688 0 54.773438 0 49.804688 L 0 9 C 0 4.03125 4.03125 0 9 0 Z M 9 0 " clip-rule="nonzero"/></clipPath><clipPath id="ab3043c2f4"><rect x="0" width="59" y="0" height="59"/></clipPath><clipPath id="8954c7f5ba"><rect x="0" width="29" y="0" height="54"/></clipPath></defs><g clip-path="url(#d7a25c9989)"><g clip-path="url(#13b16d4fa8)"><g transform="matrix(1, 0, 0, 1, 45, 3)"><g clip-path="url(#60ba215ae4)"><g clip-path="url(#a55dbdcd74)"><g clip-path="url(#7f0bbf058c)"><path fill="#ffabab" d="M 0.00390625 0.195312 L 299.921875 0.195312 L 299.921875 52.605469 L 0.00390625 52.605469 Z M 0.00390625 0.195312 " fill-opacity="1" fill-rule="nonzero"/></g></g></g></g></g></g><g clip-path="url(#7856661aa4)"><g clip-path="url(#cbe0947e02)"><g transform="matrix(1, 0, 0, 1, 0, -0.000000000000001479)"><g clip-path="url(#ab3043c2f4)"><g clip-path="url(#89456306bf)"><g clip-path="url(#8b370d7b94)"><path fill="#ff5757" d="M 0 0 L 58.804688 0 L 58.804688 58.804688 L 0 58.804688 Z M 0 0 " fill-opacity="1" fill-rule="nonzero"/></g></g></g></g></g></g><g transform="matrix(1, 0, 0, 1, 16, 3)"><g clip-path="url(#8954c7f5ba)"><g fill="#ffffff" fill-opacity="1"><g transform="translate(0.680312, 44.05131)"><g><path d="M 18.5 -26.28125 L 2.3125 -26.28125 L 2.3125 -31.375 L 25.453125 -31.375 L 25.453125 -26.375 C 23.679688 -24.6875 22.148438 -22.816406 20.859375 -20.765625 C 19.566406 -18.722656 18.515625 -16.628906 17.703125 -14.484375 C 16.804688 -12.023438 16.226562 -9.550781 15.96875 -7.0625 C 15.707031 -4.582031 15.546875 -2.242188 15.484375 -0.046875 L 8.703125 -0.046875 C 8.640625 -2.335938 8.851562 -4.84375 9.34375 -7.5625 C 9.84375 -10.289062 10.628906 -12.929688 11.703125 -15.484375 C 12.546875 -17.492188 13.5625 -19.476562 14.75 -21.4375 C 15.9375 -23.394531 17.1875 -25.007812 18.5 -26.28125 Z M 18.5 -26.28125 "/></g></g></g></g></g><g fill="#000000" fill-opacity="1"><g transform="translate(67.369156, 35.776736)"><g><path d="M 4.296875 -8.390625 L 10.53125 -8.390625 L 10.53125 -14.15625 L 13.390625 -14.15625 L 13.390625 0 L 10.53125 0 L 10.53125 -6 L 4.296875 -6 L 4.296875 0 L 1.421875 0 L 1.421875 -14.15625 L 4.296875 -14.15625 Z M 4.296875 -8.390625 "/></g></g></g><g fill="#000000" fill-opacity="1"><g transform="translate(82.18613, 35.776736)"><g><path d="M 8.234375 -8.96875 L 8.234375 -10.390625 L 10.96875 -10.390625 L 10.96875 0 L 8.234375 0 L 8.234375 -1.5 C 7.867188 -0.800781 7.382812 -0.34375 6.78125 -0.125 C 6.1875 0.09375 5.53125 0.203125 4.8125 0.203125 C 4.082031 0.203125 3.378906 0.03125 2.703125 -0.3125 C 2.035156 -0.664062 1.488281 -1.222656 1.0625 -1.984375 C 0.644531 -2.753906 0.4375 -3.753906 0.4375 -4.984375 L 0.4375 -5.125 C 0.4375 -6.382812 0.648438 -7.414062 1.078125 -8.21875 C 1.515625 -9.03125 2.070312 -9.632812 2.75 -10.03125 C 3.425781 -10.4375 4.128906 -10.640625 4.859375 -10.640625 C 5.609375 -10.640625 6.265625 -10.523438 6.828125 -10.296875 C 7.398438 -10.066406 7.867188 -9.625 8.234375 -8.96875 Z M 5.75 -1.953125 C 6.144531 -1.953125 6.523438 -2.046875 6.890625 -2.234375 C 7.265625 -2.421875 7.570312 -2.742188 7.8125 -3.203125 C 8.0625 -3.671875 8.1875 -4.332031 8.1875 -5.1875 C 8.1875 -6.40625 7.957031 -7.257812 7.5 -7.75 C 7.050781 -8.25 6.484375 -8.5 5.796875 -8.5 C 5.097656 -8.5 4.53125 -8.210938 4.09375 -7.640625 C 3.65625 -7.066406 3.4375 -6.253906 3.4375 -5.203125 L 3.4375 -5.109375 C 3.4375 -4.035156 3.65625 -3.238281 4.09375 -2.71875 C 4.539062 -2.207031 5.09375 -1.953125 5.75 -1.953125 Z M 5.75 -1.953125 "/></g></g></g><g fill="#000000" fill-opacity="1"><g transform="translate(94.172683, 35.776736)"><g><path d="M 7.140625 -10.609375 C 7.890625 -10.609375 8.597656 -10.429688 9.265625 -10.078125 C 9.941406 -9.734375 10.488281 -9.175781 10.90625 -8.40625 C 11.332031 -7.644531 11.546875 -6.640625 11.546875 -5.390625 L 11.546875 -5.28125 C 11.546875 -4.03125 11.332031 -2.992188 10.90625 -2.171875 C 10.476562 -1.359375 9.914062 -0.753906 9.21875 -0.359375 C 8.53125 0.0351562 7.804688 0.234375 7.046875 0.234375 C 6.328125 0.234375 5.691406 0.125 5.140625 -0.09375 C 4.585938 -0.3125 4.144531 -0.726562 3.8125 -1.34375 L 3.8125 3.609375 L 1.046875 3.609375 L 1.046875 -10.390625 L 3.53125 -10.390625 L 3.53125 -9.859375 C 3.53125 -9.609375 3.53125 -9.375 3.53125 -9.15625 C 3.53125 -8.9375 3.523438 -8.695312 3.515625 -8.4375 L 3.578125 -8.4375 C 3.796875 -9.03125 4.082031 -9.484375 4.4375 -9.796875 C 4.800781 -10.109375 5.210938 -10.320312 5.671875 -10.4375 C 6.128906 -10.550781 6.617188 -10.609375 7.140625 -10.609375 Z M 8.546875 -5.1875 L 8.546875 -5.296875 C 8.546875 -6.378906 8.332031 -7.175781 7.90625 -7.6875 C 7.476562 -8.195312 6.925781 -8.453125 6.25 -8.453125 C 5.875 -8.453125 5.5 -8.359375 5.125 -8.171875 C 4.75 -7.984375 4.4375 -7.65625 4.1875 -7.1875 C 3.9375 -6.71875 3.8125 -6.054688 3.8125 -5.203125 C 3.8125 -3.984375 4.039062 -3.128906 4.5 -2.640625 C 4.957031 -2.160156 5.53125 -1.921875 6.21875 -1.921875 C 6.914062 -1.921875 7.476562 -2.203125 7.90625 -2.765625 C 8.332031 -3.335938 8.546875 -4.144531 8.546875 -5.1875 Z M 8.546875 -5.1875 "/></g></g></g><g fill="#000000" fill-opacity="1"><g transform="translate(106.159236, 35.776736)"><g><path d="M 7.140625 -10.609375 C 7.890625 -10.609375 8.597656 -10.429688 9.265625 -10.078125 C 9.941406 -9.734375 10.488281 -9.175781 10.90625 -8.40625 C 11.332031 -7.644531 11.546875 -6.640625 11.546875 -5.390625 L 11.546875 -5.28125 C 11.546875 -4.03125 11.332031 -2.992188 10.90625 -2.171875 C 10.476562 -1.359375 9.914062 -0.753906 9.21875 -0.359375 C 8.53125 0.0351562 7.804688 0.234375 7.046875 0.234375 C 6.328125 0.234375 5.691406 0.125 5.140625 -0.09375 C 4.585938 -0.3125 4.144531 -0.726562 3.8125 -1.34375 L 3.8125 3.609375 L 1.046875 3.609375 L 1.046875 -10.390625 L 3.53125 -10.390625 L 3.53125 -9.859375 C 3.53125 -9.609375 3.53125 -9.375 3.53125 -9.15625 C 3.53125 -8.9375 3.523438 -8.695312 3.515625 -8.4375 L 3.578125 -8.4375 C 3.796875 -9.03125 4.082031 -9.484375 4.4375 -9.796875 C 4.800781 -10.109375 5.210938 -10.320312 5.671875 -10.4375 C 6.128906 -10.550781 6.617188 -10.609375 7.140625 -10.609375 Z M 8.546875 -5.1875 L 8.546875 -5.296875 C 8.546875 -6.378906 8.332031 -7.175781 7.90625 -7.6875 C 7.476562 -8.195312 6.925781 -8.453125 6.25 -8.453125 C 5.875 -8.453125 5.5 -8.359375 5.125 -8.171875 C 4.75 -7.984375 4.4375 -7.65625 4.1875 -7.1875 C 3.9375 -6.71875 3.8125 -6.054688 3.8125 -5.203125 C 3.8125 -3.984375 4.039062 -3.128906 4.5 -2.640625 C 4.957031 -2.160156 5.53125 -1.921875 6.21875 -1.921875 C 6.914062 -1.921875 7.476562 -2.203125 7.90625 -2.765625 C 8.332031 -3.335938 8.546875 -4.144531 8.546875 -5.1875 Z M 8.546875 -5.1875 "/></g></g></g><g fill="#000000" fill-opacity="1"><g transform="translate(118.145788, 35.776736)"><g><path d="M 2.296875 3.90625 C 2.015625 3.90625 1.800781 3.898438 1.65625 3.890625 C 1.507812 3.890625 1.375 3.875 1.25 3.84375 L 1.25 1.59375 C 1.394531 1.601562 1.519531 1.613281 1.625 1.625 C 1.726562 1.644531 1.859375 1.65625 2.015625 1.65625 C 2.378906 1.65625 2.710938 1.578125 3.015625 1.421875 C 3.328125 1.273438 3.5625 1.003906 3.71875 0.609375 C 3.769531 0.492188 3.8125 0.390625 3.84375 0.296875 C 3.875 0.203125 3.894531 0.125 3.90625 0.0625 L 0.09375 -10.390625 L 3.078125 -10.390625 L 5.59375 -2.734375 L 5.625 -2.734375 L 8.015625 -10.390625 L 10.875 -10.390625 L 7.03125 -0.078125 C 6.71875 0.785156 6.363281 1.515625 5.96875 2.109375 C 5.570312 2.703125 5.082031 3.148438 4.5 3.453125 C 3.914062 3.753906 3.179688 3.90625 2.296875 3.90625 Z M 2.296875 3.90625 "/></g></g></g><g fill="#000000" fill-opacity="1"><g transform="translate(129.10655, 35.776736)"><g/></g></g><g fill="#000000" fill-opacity="1"><g transform="translate(134.805387, 35.776736)"><g><path d="M 12.78125 -14.15625 L 8.296875 -7.3125 L 13.140625 0 L 9.84375 0 L 6.578125 -4.921875 L 3.5 0 L 0.234375 0 L 4.78125 -7.328125 L 0.59375 -14.15625 L 3.859375 -14.15625 L 6.578125 -9.734375 L 9.484375 -14.15625 Z M 12.78125 -14.15625 "/></g></g></g><g fill="#000000" fill-opacity="1"><g transform="translate(148.178654, 35.776736)"><g><path d="M 13.953125 -10.609375 C 14.992188 -10.609375 15.851562 -10.285156 16.53125 -9.640625 C 17.21875 -9.003906 17.5625 -7.988281 17.5625 -6.59375 L 17.5625 0 L 14.765625 0 L 14.765625 -6.0625 C 14.765625 -6.84375 14.59375 -7.398438 14.25 -7.734375 C 13.90625 -8.078125 13.460938 -8.25 12.921875 -8.25 C 12.421875 -8.25 12.003906 -8.140625 11.671875 -7.921875 C 11.347656 -7.703125 11.109375 -7.425781 10.953125 -7.09375 C 10.796875 -6.769531 10.703125 -6.429688 10.671875 -6.078125 L 10.671875 0 L 7.90625 0 L 7.90625 -6.0625 C 7.90625 -6.84375 7.734375 -7.398438 7.390625 -7.734375 C 7.046875 -8.078125 6.597656 -8.25 6.046875 -8.25 C 5.546875 -8.25 5.132812 -8.140625 4.8125 -7.921875 C 4.488281 -7.703125 4.242188 -7.425781 4.078125 -7.09375 C 3.921875 -6.769531 3.832031 -6.429688 3.8125 -6.078125 L 3.8125 0 L 1.046875 0 L 1.046875 -10.390625 L 3.53125 -10.390625 L 3.53125 -10.015625 C 3.53125 -9.734375 3.523438 -9.472656 3.515625 -9.234375 C 3.515625 -8.992188 3.515625 -8.707031 3.515625 -8.375 L 3.53125 -8.375 C 3.738281 -9.007812 4.019531 -9.484375 4.375 -9.796875 C 4.738281 -10.117188 5.15625 -10.332031 5.625 -10.4375 C 6.101562 -10.550781 6.601562 -10.609375 7.125 -10.609375 C 7.90625 -10.609375 8.566406 -10.425781 9.109375 -10.0625 C 9.660156 -9.695312 10.050781 -9.175781 10.28125 -8.5 L 10.34375 -8.5 C 10.5625 -9.070312 10.859375 -9.507812 11.234375 -9.8125 C 11.609375 -10.125 12.03125 -10.332031 12.5 -10.4375 C 12.96875 -10.550781 13.453125 -10.609375 13.953125 -10.609375 Z M 13.953125 -10.609375 "/></g></g></g><g fill="#000000" fill-opacity="1"><g transform="translate(166.718872, 35.776736)"><g><path d="M 8.234375 -8.96875 L 8.234375 -10.390625 L 10.96875 -10.390625 L 10.96875 0 L 8.234375 0 L 8.234375 -1.5 C 7.867188 -0.800781 7.382812 -0.34375 6.78125 -0.125 C 6.1875 0.09375 5.53125 0.203125 4.8125 0.203125 C 4.082031 0.203125 3.378906 0.03125 2.703125 -0.3125 C 2.035156 -0.664062 1.488281 -1.222656 1.0625 -1.984375 C 0.644531 -2.753906 0.4375 -3.753906 0.4375 -4.984375 L 0.4375 -5.125 C 0.4375 -6.382812 0.648438 -7.414062 1.078125 -8.21875 C 1.515625 -9.03125 2.070312 -9.632812 2.75 -10.03125 C 3.425781 -10.4375 4.128906 -10.640625 4.859375 -10.640625 C 5.609375 -10.640625 6.265625 -10.523438 6.828125 -10.296875 C 7.398438 -10.066406 7.867188 -9.625 8.234375 -8.96875 Z M 5.75 -1.953125 C 6.144531 -1.953125 6.523438 -2.046875 6.890625 -2.234375 C 7.265625 -2.421875 7.570312 -2.742188 7.8125 -3.203125 C 8.0625 -3.671875 8.1875 -4.332031 8.1875 -5.1875 C 8.1875 -6.40625 7.957031 -7.257812 7.5 -7.75 C 7.050781 -8.25 6.484375 -8.5 5.796875 -8.5 C 5.097656 -8.5 4.53125 -8.210938 4.09375 -7.640625 C 3.65625 -7.066406 3.4375 -6.253906 3.4375 -5.203125 L 3.4375 -5.109375 C 3.4375 -4.035156 3.65625 -3.238281 4.09375 -2.71875 C 4.539062 -2.207031 5.09375 -1.953125 5.75 -1.953125 Z M 5.75 -1.953125 "/></g></g></g><g fill="#000000" fill-opacity="1"><g transform="translate(178.705425, 35.776736)"><g><path d="M 5.109375 0.296875 C 3.648438 0.296875 2.535156 0.0078125 1.765625 -0.5625 C 0.992188 -1.132812 0.578125 -1.921875 0.515625 -2.921875 L 3.234375 -2.921875 C 3.285156 -2.535156 3.488281 -2.21875 3.84375 -1.96875 C 4.207031 -1.71875 4.679688 -1.59375 5.265625 -1.59375 C 5.816406 -1.59375 6.25 -1.695312 6.5625 -1.90625 C 6.875 -2.113281 7.03125 -2.394531 7.03125 -2.75 C 7.03125 -3.195312 6.910156 -3.507812 6.671875 -3.6875 C 6.441406 -3.875 6.015625 -4.050781 5.390625 -4.21875 L 3.375 -4.734375 C 2.488281 -4.960938 1.820312 -5.3125 1.375 -5.78125 C 0.925781 -6.25 0.703125 -6.878906 0.703125 -7.671875 C 0.703125 -8.234375 0.890625 -8.738281 1.265625 -9.1875 C 1.648438 -9.644531 2.179688 -10.007812 2.859375 -10.28125 C 3.535156 -10.5625 4.316406 -10.691406 5.203125 -10.671875 C 6.617188 -10.660156 7.71875 -10.375 8.5 -9.8125 C 9.289062 -9.257812 9.707031 -8.5 9.75 -7.53125 L 7.03125 -7.53125 C 7.03125 -7.851562 6.851562 -8.140625 6.5 -8.390625 C 6.15625 -8.640625 5.722656 -8.765625 5.203125 -8.765625 C 4.628906 -8.765625 4.191406 -8.675781 3.890625 -8.5 C 3.585938 -8.332031 3.4375 -8.117188 3.4375 -7.859375 C 3.4375 -7.523438 3.546875 -7.273438 3.765625 -7.109375 C 3.992188 -6.953125 4.40625 -6.789062 5 -6.625 L 7.03125 -6.09375 C 7.75 -5.90625 8.3125 -5.679688 8.71875 -5.421875 C 9.132812 -5.171875 9.425781 -4.847656 9.59375 -4.453125 C 9.769531 -4.066406 9.859375 -3.578125 9.859375 -2.984375 C 9.859375 -2.242188 9.644531 -1.628906 9.21875 -1.140625 C 8.800781 -0.660156 8.234375 -0.300781 7.515625 -0.0625 C 6.796875 0.175781 5.992188 0.296875 5.109375 0.296875 Z M 5.109375 0.296875 "/></g></g></g><g fill="#000000" fill-opacity="1"><g transform="translate(189.077308, 35.776736)"><g/></g></g><g fill="#000000" fill-opacity="1"><g transform="translate(194.776145, 35.776736)"><g><path d="M 3.84375 -15.296875 L 6.484375 -15.296875 C 5.742188 -14.242188 5.160156 -13.222656 4.734375 -12.234375 C 4.316406 -11.242188 4.019531 -10.242188 3.84375 -9.234375 C 3.664062 -8.222656 3.578125 -7.148438 3.578125 -6.015625 C 3.578125 -4.890625 3.664062 -3.828125 3.84375 -2.828125 C 4.019531 -1.828125 4.316406 -0.835938 4.734375 0.140625 C 5.160156 1.117188 5.742188 2.148438 6.484375 3.234375 L 3.84375 3.234375 C 1.988281 0.617188 1.054688 -2.460938 1.046875 -6.015625 C 1.046875 -9.628906 1.976562 -12.722656 3.84375 -15.296875 Z M 3.84375 -15.296875 "/></g></g></g><g fill="#000000" fill-opacity="1"><g transform="translate(201.443781, 35.776736)"><g><path d="M 10.109375 -9.796875 L 7.296875 0 L 4.234375 0 L 0.1875 -14.15625 L 3.140625 -14.15625 L 5.90625 -4.03125 L 5.953125 -4.03125 L 8.796875 -14.15625 L 11.546875 -14.15625 L 14.34375 -3.9375 L 14.390625 -3.9375 L 17.21875 -14.15625 L 20 -14.15625 L 15.84375 0 L 12.75 0 L 10.140625 -9.796875 Z M 10.109375 -9.796875 "/></g></g></g><g fill="#000000" fill-opacity="1"><g transform="translate(221.256696, 35.776736)"><g><path d="M 8.234375 -8.96875 L 8.234375 -10.390625 L 10.96875 -10.390625 L 10.96875 0 L 8.234375 0 L 8.234375 -1.5 C 7.867188 -0.800781 7.382812 -0.34375 6.78125 -0.125 C 6.1875 0.09375 5.53125 0.203125 4.8125 0.203125 C 4.082031 0.203125 3.378906 0.03125 2.703125 -0.3125 C 2.035156 -0.664062 1.488281 -1.222656 1.0625 -1.984375 C 0.644531 -2.753906 0.4375 -3.753906 0.4375 -4.984375 L 0.4375 -5.125 C 0.4375 -6.382812 0.648438 -7.414062 1.078125 -8.21875 C 1.515625 -9.03125 2.070312 -9.632812 2.75 -10.03125 C 3.425781 -10.4375 4.128906 -10.640625 4.859375 -10.640625 C 5.609375 -10.640625 6.265625 -10.523438 6.828125 -10.296875 C 7.398438 -10.066406 7.867188 -9.625 8.234375 -8.96875 Z M 5.75 -1.953125 C 6.144531 -1.953125 6.523438 -2.046875 6.890625 -2.234375 C 7.265625 -2.421875 7.570312 -2.742188 7.8125 -3.203125 C 8.0625 -3.671875 8.1875 -4.332031 8.1875 -5.1875 C 8.1875 -6.40625 7.957031 -7.257812 7.5 -7.75 C 7.050781 -8.25 6.484375 -8.5 5.796875 -8.5 C 5.097656 -8.5 4.53125 -8.210938 4.09375 -7.640625 C 3.65625 -7.066406 3.4375 -6.253906 3.4375 -5.203125 L 3.4375 -5.109375 C 3.4375 -4.035156 3.65625 -3.238281 4.09375 -2.71875 C 4.539062 -2.207031 5.09375 -1.953125 5.75 -1.953125 Z M 5.75 -1.953125 "/></g></g></g><g fill="#000000" fill-opacity="1"><g transform="translate(233.243249, 35.776736)"><g><path d="M 7.40625 -10.5 C 7.488281 -10.5 7.554688 -10.5 7.609375 -10.5 C 7.660156 -10.5 7.710938 -10.492188 7.765625 -10.484375 L 7.765625 -7.828125 C 7.679688 -7.835938 7.585938 -7.84375 7.484375 -7.84375 C 7.378906 -7.851562 7.257812 -7.859375 7.125 -7.859375 C 6.53125 -7.859375 5.976562 -7.75 5.46875 -7.53125 C 4.96875 -7.3125 4.5625 -7.019531 4.25 -6.65625 C 3.945312 -6.300781 3.796875 -5.910156 3.796875 -5.484375 L 3.796875 0 L 1.03125 0 L 1.03125 -10.390625 L 3.53125 -10.390625 L 3.53125 -10.015625 C 3.53125 -9.734375 3.523438 -9.445312 3.515625 -9.15625 C 3.515625 -8.875 3.515625 -8.53125 3.515625 -8.125 L 3.625 -8.125 C 3.957031 -9 4.460938 -9.613281 5.140625 -9.96875 C 5.816406 -10.320312 6.570312 -10.5 7.40625 -10.5 Z M 7.40625 -10.5 "/></g></g></g><g fill="#000000" fill-opacity="1"><g transform="translate(241.202626, 35.776736)"><g/></g></g><g fill="#000000" fill-opacity="1"><g transform="translate(246.901463, 35.776736)"><g><path d="M 2.609375 -11.46875 C 2.171875 -11.46875 1.796875 -11.625 1.484375 -11.9375 C 1.179688 -12.25 1.03125 -12.617188 1.03125 -13.046875 C 1.03125 -13.492188 1.179688 -13.867188 1.484375 -14.171875 C 1.796875 -14.472656 2.171875 -14.625 2.609375 -14.625 C 3.046875 -14.625 3.414062 -14.472656 3.71875 -14.171875 C 4.03125 -13.867188 4.1875 -13.492188 4.1875 -13.046875 C 4.1875 -12.617188 4.03125 -12.25 3.71875 -11.9375 C 3.414062 -11.625 3.046875 -11.46875 2.609375 -11.46875 Z M 4.015625 -10.390625 L 4.015625 0 L 1.234375 0 L 1.234375 -10.390625 Z M 4.015625 -10.390625 "/></g></g></g><g fill="#000000" fill-opacity="1"><g transform="translate(252.6003, 35.776736)"><g><path d="M 5.109375 0.296875 C 3.648438 0.296875 2.535156 0.0078125 1.765625 -0.5625 C 0.992188 -1.132812 0.578125 -1.921875 0.515625 -2.921875 L 3.234375 -2.921875 C 3.285156 -2.535156 3.488281 -2.21875 3.84375 -1.96875 C 4.207031 -1.71875 4.679688 -1.59375 5.265625 -1.59375 C 5.816406 -1.59375 6.25 -1.695312 6.5625 -1.90625 C 6.875 -2.113281 7.03125 -2.394531 7.03125 -2.75 C 7.03125 -3.195312 6.910156 -3.507812 6.671875 -3.6875 C 6.441406 -3.875 6.015625 -4.050781 5.390625 -4.21875 L 3.375 -4.734375 C 2.488281 -4.960938 1.820312 -5.3125 1.375 -5.78125 C 0.925781 -6.25 0.703125 -6.878906 0.703125 -7.671875 C 0.703125 -8.234375 0.890625 -8.738281 1.265625 -9.1875 C 1.648438 -9.644531 2.179688 -10.007812 2.859375 -10.28125 C 3.535156 -10.5625 4.316406 -10.691406 5.203125 -10.671875 C 6.617188 -10.660156 7.71875 -10.375 8.5 -9.8125 C 9.289062 -9.257812 9.707031 -8.5 9.75 -7.53125 L 7.03125 -7.53125 C 7.03125 -7.851562 6.851562 -8.140625 6.5 -8.390625 C 6.15625 -8.640625 5.722656 -8.765625 5.203125 -8.765625 C 4.628906 -8.765625 4.191406 -8.675781 3.890625 -8.5 C 3.585938 -8.332031 3.4375 -8.117188 3.4375 -7.859375 C 3.4375 -7.523438 3.546875 -7.273438 3.765625 -7.109375 C 3.992188 -6.953125 4.40625 -6.789062 5 -6.625 L 7.03125 -6.09375 C 7.75 -5.90625 8.3125 -5.679688 8.71875 -5.421875 C 9.132812 -5.171875 9.425781 -4.847656 9.59375 -4.453125 C 9.769531 -4.066406 9.859375 -3.578125 9.859375 -2.984375 C 9.859375 -2.242188 9.644531 -1.628906 9.21875 -1.140625 C 8.800781 -0.660156 8.234375 -0.300781 7.515625 -0.0625 C 6.796875 0.175781 5.992188 0.296875 5.109375 0.296875 Z M 5.109375 0.296875 "/></g></g></g><g fill="#000000" fill-opacity="1"><g transform="translate(262.972183, 35.776736)"><g/></g></g><g fill="#000000" fill-opacity="1"><g transform="translate(268.67102, 35.776736)"><g><path d="M 5.78125 0.265625 C 4.738281 0.265625 3.816406 0.0664062 3.015625 -0.328125 C 2.210938 -0.734375 1.582031 -1.332031 1.125 -2.125 C 0.664062 -2.925781 0.4375 -3.925781 0.4375 -5.125 L 0.4375 -5.1875 C 0.4375 -6.363281 0.679688 -7.359375 1.171875 -8.171875 C 1.671875 -8.984375 2.328125 -9.597656 3.140625 -10.015625 C 3.960938 -10.429688 4.84375 -10.640625 5.78125 -10.640625 C 6.800781 -10.640625 7.707031 -10.4375 8.5 -10.03125 C 9.300781 -9.632812 9.929688 -9.039062 10.390625 -8.25 C 10.847656 -7.457031 11.078125 -6.46875 11.078125 -5.28125 L 11.078125 -5.171875 C 11.078125 -4.003906 10.828125 -3.015625 10.328125 -2.203125 C 9.828125 -1.390625 9.171875 -0.773438 8.359375 -0.359375 C 7.554688 0.0546875 6.695312 0.265625 5.78125 0.265625 Z M 5.78125 -1.859375 C 6.195312 -1.859375 6.582031 -1.957031 6.9375 -2.15625 C 7.289062 -2.363281 7.570312 -2.703125 7.78125 -3.171875 C 8 -3.648438 8.109375 -4.3125 8.109375 -5.15625 L 8.109375 -5.203125 C 8.109375 -6.054688 8 -6.722656 7.78125 -7.203125 C 7.570312 -7.679688 7.289062 -8.019531 6.9375 -8.21875 C 6.59375 -8.425781 6.207031 -8.53125 5.78125 -8.53125 C 5.363281 -8.53125 4.972656 -8.425781 4.609375 -8.21875 C 4.242188 -8.007812 3.953125 -7.660156 3.734375 -7.171875 C 3.515625 -6.691406 3.40625 -6.03125 3.40625 -5.1875 L 3.40625 -5.125 C 3.40625 -4.300781 3.507812 -3.648438 3.71875 -3.171875 C 3.925781 -2.703125 4.207031 -2.363281 4.5625 -2.15625 C 4.925781 -1.957031 5.332031 -1.859375 5.78125 -1.859375 Z M 5.78125 -1.859375 "/></g></g></g><g fill="#000000" fill-opacity="1"><g transform="translate(280.182654, 35.776736)"><g><path d="M 10.796875 -10.390625 L 7.03125 0.078125 L 3.78125 0.078125 L 0.09375 -10.390625 L 3.046875 -10.390625 L 5.484375 -2.734375 L 5.53125 -2.734375 L 8 -10.390625 Z M 10.796875 -10.390625 "/></g></g></g><g fill="#000000" fill-opacity="1"><g transform="translate(291.06745, 35.776736)"><g><path d="M 10.734375 -5.640625 L 10.734375 -4.84375 L 3.359375 -4.84375 C 3.367188 -3.820312 3.585938 -3.050781 4.015625 -2.53125 C 4.453125 -2.007812 5.015625 -1.75 5.703125 -1.75 C 6.273438 -1.75 6.742188 -1.863281 7.109375 -2.09375 C 7.484375 -2.320312 7.722656 -2.628906 7.828125 -3.015625 L 10.609375 -3.015625 C 10.429688 -2.054688 9.921875 -1.269531 9.078125 -0.65625 C 8.242188 -0.0390625 7.101562 0.265625 5.65625 0.265625 C 4.039062 0.265625 2.765625 -0.1875 1.828125 -1.09375 C 0.898438 -2 0.4375 -3.34375 0.4375 -5.125 L 0.4375 -5.203125 C 0.4375 -6.359375 0.671875 -7.335938 1.140625 -8.140625 C 1.617188 -8.941406 2.253906 -9.554688 3.046875 -9.984375 C 3.835938 -10.421875 4.703125 -10.640625 5.640625 -10.640625 C 7.171875 -10.640625 8.398438 -10.21875 9.328125 -9.375 C 10.265625 -8.539062 10.734375 -7.296875 10.734375 -5.640625 Z M 3.421875 -6.578125 L 7.828125 -6.578125 C 7.816406 -7.222656 7.609375 -7.738281 7.203125 -8.125 C 6.804688 -8.507812 6.285156 -8.703125 5.640625 -8.703125 C 5.046875 -8.703125 4.550781 -8.515625 4.15625 -8.140625 C 3.769531 -7.765625 3.523438 -7.242188 3.421875 -6.578125 Z M 3.421875 -6.578125 "/></g></g></g><g fill="#000000" fill-opacity="1"><g transform="translate(302.332144, 35.776736)"><g><path d="M 7.40625 -10.5 C 7.488281 -10.5 7.554688 -10.5 7.609375 -10.5 C 7.660156 -10.5 7.710938 -10.492188 7.765625 -10.484375 L 7.765625 -7.828125 C 7.679688 -7.835938 7.585938 -7.84375 7.484375 -7.84375 C 7.378906 -7.851562 7.257812 -7.859375 7.125 -7.859375 C 6.53125 -7.859375 5.976562 -7.75 5.46875 -7.53125 C 4.96875 -7.3125 4.5625 -7.019531 4.25 -6.65625 C 3.945312 -6.300781 3.796875 -5.910156 3.796875 -5.484375 L 3.796875 0 L 1.03125 0 L 1.03125 -10.390625 L 3.53125 -10.390625 L 3.53125 -10.015625 C 3.53125 -9.734375 3.523438 -9.445312 3.515625 -9.15625 C 3.515625 -8.875 3.515625 -8.53125 3.515625 -8.125 L 3.625 -8.125 C 3.957031 -9 4.460938 -9.613281 5.140625 -9.96875 C 5.816406 -10.320312 6.570312 -10.5 7.40625 -10.5 Z M 7.40625 -10.5 "/></g></g></g><g fill="#000000" fill-opacity="1"><g transform="translate(310.291509, 35.776736)"><g><path d="M 2.828125 3.234375 L 0.1875 3.234375 C 0.9375 2.171875 1.519531 1.144531 1.9375 0.15625 C 2.351562 -0.820312 2.648438 -1.816406 2.828125 -2.828125 C 3.003906 -3.835938 3.09375 -4.910156 3.09375 -6.046875 C 3.09375 -7.171875 3.003906 -8.234375 2.828125 -9.234375 C 2.648438 -10.234375 2.351562 -11.226562 1.9375 -12.21875 C 1.519531 -13.207031 0.9375 -14.234375 0.1875 -15.296875 L 2.828125 -15.296875 C 4.679688 -12.679688 5.613281 -9.597656 5.625 -6.046875 C 5.625 -2.429688 4.691406 0.660156 2.828125 3.234375 Z M 2.828125 3.234375 "/></g></g></g></svg>