<svg xmlns="http://www.w3.org/2000/svg" xmlns:xlink="http://www.w3.org/1999/xlink" width="160" zoomAndPan="magnify" viewBox="0 0 120 50.999998" height="68" preserveAspectRatio="xMidYMid meet" version="1.0"><defs><filter x="0%" y="0%" width="100%" height="100%" id="d43fa646a7"><feColorMatrix values="0 0 0 0 1 0 0 0 0 1 0 0 0 0 1 0 0 0 1 0" color-interpolation-filters="sRGB"/></filter><g/><clipPath id="9d71f93ff4"><path d="M 7.5 0 L 112.5 0 C 116.640625 0 120 3.359375 120 7.5 L 120 43.5 C 120 47.640625 116.640625 51 112.5 51 L 7.5 51 C 3.359375 51 0 47.640625 0 43.5 L 0 7.5 C 0 3.359375 3.359375 0 7.5 0 Z M 7.5 0 " clip-rule="nonzero"/></clipPath><clipPath id="1a440ebdf6"><path d="M 0 0 L 120 0 L 120 51 L 0 51 Z M 0 0 " clip-rule="nonzero"/></clipPath><clipPath id="626da2de2f"><path d="M 7.5 0 L 112.5 0 C 116.640625 0 120 3.359375 120 7.5 L 120 43.5 C 120 47.640625 116.640625 51 112.5 51 L 7.5 51 C 3.359375 51 0 47.640625 0 43.5 L 0 7.5 C 0 3.359375 3.359375 0 7.5 0 Z M 7.5 0 " clip-rule="nonzero"/></clipPath><clipPath id="2f17ac1970"><rect x="0" width="120" y="0" height="51"/></clipPath><mask id="894867c683"><g filter="url(#d43fa646a7)"><rect x="-12" width="144" fill="#000000" y="-5.1" height="61.199998" fill-opacity="0.28"/></g></mask><clipPath id="344c7b7cc7"><path d="M 0 0 L 120 0 L 120 51 L 0 51 Z M 0 0 " clip-rule="nonzero"/></clipPath><clipPath id="5332a11853"><path d="M 7.5 0 L 112.5 0 C 116.640625 0 120 3.359375 120 7.5 L 120 43.5 C 120 47.640625 116.640625 51 112.5 51 L 7.5 51 C 3.359375 51 0 47.640625 0 43.5 L 0 7.5 C 0 3.359375 3.359375 0 7.5 0 Z M 7.5 0 " clip-rule="nonzero"/></clipPath><clipPath id="411612639e"><path d="M 0 0 L 120 0 L 120 51 L 0 51 Z M 0 0 " clip-rule="nonzero"/></clipPath><clipPath id="0b93bba448"><path d="M 7.5 0 L 112.5 0 C 116.640625 0 120 3.359375 120 7.5 L 120 43.5 C 120 47.640625 116.640625 51 112.5 51 L 7.5 51 C 3.359375 51 0 47.640625 0 43.5 L 0 7.5 C 0 3.359375 3.359375 0 7.5 0 Z M 7.5 0 " clip-rule="nonzero"/></clipPath><clipPath id="ccb4e8db3b"><rect x="0" width="120" y="0" height="51"/></clipPath><clipPath id="d423eb7a6c"><rect x="0" width="120" y="0" height="51"/></clipPath></defs><g clip-path="url(#9d71f93ff4)"><g transform="matrix(1, 0, 0, 1, -0, 0)"><g clip-path="url(#2f17ac1970)"><g clip-path="url(#1a440ebdf6)"><g clip-path="url(#626da2de2f)"><path fill="#ffffff" d="M 0 0 L 119.929688 0 L 119.929688 51 L 0 51 Z M 0 0 " fill-opacity="1" fill-rule="nonzero"/></g></g></g></g></g><g fill="#00a0e9" fill-opacity="1"><g transform="translate(24.101563, 19.499998)"><g><path d="M 14.453125 -1.515625 L 14.453125 -10.984375 L 16.53125 -10.984375 L 16.53125 1.546875 L 14.453125 1.546875 L 14.453125 0.5 L 3.578125 0.5 L 3.578125 1.5625 L 1.5 1.5625 L 1.5 -10.984375 L 3.578125 -10.984375 L 3.578125 -1.515625 Z M 11.4375 -7.46875 L 11.4375 -8.984375 L 9.859375 -8.984375 L 9.859375 -7.46875 Z M 11.4375 -4.3125 L 11.4375 -5.84375 L 9.859375 -5.84375 L 9.859375 -4.3125 Z M 6.46875 -5.84375 L 6.46875 -4.3125 L 8.03125 -4.3125 L 8.03125 -5.84375 Z M 6.46875 -8.984375 L 6.46875 -7.46875 L 8.03125 -7.46875 L 8.03125 -8.984375 Z M 0.953125 -14.171875 L 17.0625 -14.171875 L 17.0625 -12.171875 L 10.015625 -12.171875 L 10.015625 -10.734375 L 13.28125 -10.734375 L 13.28125 -2.578125 L 4.71875 -2.578125 L 4.71875 -10.734375 L 7.859375 -10.734375 L 7.859375 -12.171875 L 0.953125 -12.171875 Z M 0.953125 -14.171875 "/></g></g></g><g fill="#00a0e9" fill-opacity="1"><g transform="translate(42.101504, 19.499998)"><g><path d="M 3.8125 -15.234375 L 5.796875 -14.640625 C 5.609375 -14.054688 5.398438 -13.46875 5.171875 -12.875 C 4.941406 -12.289062 4.691406 -11.710938 4.421875 -11.140625 L 4.421875 1.546875 L 2.390625 1.546875 L 2.390625 -7.453125 C 2.023438 -6.890625 1.65625 -6.394531 1.28125 -5.96875 C 1.226562 -6.144531 1.140625 -6.378906 1.015625 -6.671875 C 0.898438 -6.960938 0.773438 -7.257812 0.640625 -7.5625 C 0.503906 -7.863281 0.375 -8.101562 0.25 -8.28125 C 0.738281 -8.84375 1.203125 -9.492188 1.640625 -10.234375 C 2.078125 -10.984375 2.484375 -11.78125 2.859375 -12.625 C 3.234375 -13.476562 3.550781 -14.347656 3.8125 -15.234375 Z M 7.9375 -10.1875 L 7.9375 -8.8125 L 10.265625 -8.8125 L 10.265625 -10.1875 Z M 11.53125 -12.59375 L 8.8125 -12.59375 C 8.695312 -12.4375 8.570312 -12.273438 8.4375 -12.109375 C 8.3125 -11.953125 8.179688 -11.796875 8.046875 -11.640625 L 10.828125 -11.640625 C 11.078125 -11.929688 11.3125 -12.25 11.53125 -12.59375 Z M 14.734375 -8.8125 L 14.734375 -10.1875 L 12.171875 -10.1875 L 12.171875 -8.8125 Z M 10.515625 -0.546875 C 10.773438 -0.796875 10.914062 -1.238281 10.9375 -1.875 C 10.5625 -1.59375 10.160156 -1.3125 9.734375 -1.03125 C 9.304688 -0.75 8.867188 -0.488281 8.421875 -0.25 C 8.660156 -0.226562 8.878906 -0.210938 9.078125 -0.203125 C 9.285156 -0.191406 9.46875 -0.1875 9.625 -0.1875 C 9.8125 -0.1875 9.972656 -0.207031 10.109375 -0.25 C 10.253906 -0.300781 10.390625 -0.398438 10.515625 -0.546875 Z M 15.96875 -7.015625 L 17.40625 -5.734375 C 17.019531 -5.398438 16.601562 -5.0625 16.15625 -4.71875 C 15.71875 -4.382812 15.304688 -4.085938 14.921875 -3.828125 C 15.265625 -3.191406 15.660156 -2.613281 16.109375 -2.09375 C 16.554688 -1.582031 17.066406 -1.160156 17.640625 -0.828125 C 17.410156 -0.640625 17.160156 -0.378906 16.890625 -0.046875 C 16.628906 0.285156 16.421875 0.582031 16.265625 0.84375 C 15.066406 0.03125 14.125 -1.085938 13.4375 -2.515625 C 12.75 -3.941406 12.210938 -5.5625 11.828125 -7.375 L 11.46875 -7.375 C 11.144531 -7.113281 10.804688 -6.867188 10.453125 -6.640625 C 11.171875 -6.023438 11.71875 -5.347656 12.09375 -4.609375 C 12.476562 -3.878906 12.710938 -3.148438 12.796875 -2.421875 C 12.878906 -1.691406 12.84375 -1.039062 12.6875 -0.46875 C 12.53125 0.101562 12.28125 0.539062 11.9375 0.84375 C 11.65625 1.101562 11.363281 1.285156 11.0625 1.390625 C 10.769531 1.492188 10.425781 1.554688 10.03125 1.578125 C 9.644531 1.578125 9.222656 1.5625 8.765625 1.53125 C 8.753906 1.289062 8.710938 1.007812 8.640625 0.6875 C 8.566406 0.363281 8.457031 0.0664062 8.3125 -0.203125 C 7.914062 0.0234375 7.519531 0.234375 7.125 0.421875 C 6.738281 0.609375 6.363281 0.78125 6 0.9375 C 5.875 0.707031 5.703125 0.445312 5.484375 0.15625 C 5.273438 -0.132812 5.066406 -0.378906 4.859375 -0.578125 C 5.503906 -0.765625 6.175781 -1.019531 6.875 -1.34375 C 7.570312 -1.675781 8.242188 -2.035156 8.890625 -2.421875 C 9.535156 -2.804688 10.097656 -3.207031 10.578125 -3.625 C 10.535156 -3.726562 10.488281 -3.832031 10.4375 -3.9375 C 10.394531 -4.039062 10.34375 -4.144531 10.28125 -4.25 C 9.65625 -3.8125 8.972656 -3.394531 8.234375 -3 C 7.492188 -2.601562 6.796875 -2.273438 6.140625 -2.015625 C 6.023438 -2.222656 5.875 -2.453125 5.6875 -2.703125 C 5.507812 -2.960938 5.335938 -3.175781 5.171875 -3.34375 C 5.617188 -3.476562 6.097656 -3.648438 6.609375 -3.859375 C 7.117188 -4.066406 7.617188 -4.300781 8.109375 -4.5625 C 8.609375 -4.820312 9.054688 -5.082031 9.453125 -5.34375 C 9.328125 -5.488281 9.179688 -5.632812 9.015625 -5.78125 C 8.554688 -5.507812 8.085938 -5.269531 7.609375 -5.0625 C 7.140625 -4.851562 6.679688 -4.664062 6.234375 -4.5 C 6.097656 -4.664062 5.910156 -4.898438 5.671875 -5.203125 C 5.429688 -5.503906 5.222656 -5.734375 5.046875 -5.890625 C 5.679688 -6.066406 6.316406 -6.28125 6.953125 -6.53125 C 7.585938 -6.78125 8.1875 -7.0625 8.75 -7.375 L 6.015625 -7.375 L 6.015625 -10.171875 C 5.816406 -10.347656 5.597656 -10.523438 5.359375 -10.703125 C 5.117188 -10.890625 4.898438 -11.03125 4.703125 -11.125 C 5.546875 -11.726562 6.269531 -12.394531 6.875 -13.125 C 7.476562 -13.863281 7.945312 -14.566406 8.28125 -15.234375 L 10.296875 -14.875 C 10.160156 -14.613281 10.019531 -14.367188 9.875 -14.140625 L 12.65625 -14.140625 L 13.03125 -14.28125 L 14.296875 -13.375 C 14.128906 -13.09375 13.941406 -12.800781 13.734375 -12.5 C 13.523438 -12.207031 13.316406 -11.921875 13.109375 -11.640625 L 16.796875 -11.640625 L 16.796875 -7.375 L 13.640625 -7.375 C 13.722656 -7.039062 13.8125 -6.707031 13.90625 -6.375 C 14 -6.039062 14.101562 -5.71875 14.21875 -5.40625 C 14.53125 -5.664062 14.84375 -5.9375 15.15625 -6.21875 C 15.46875 -6.507812 15.738281 -6.773438 15.96875 -7.015625 Z M 15.96875 -7.015625 "/></g></g></g><g fill="#00a0e9" fill-opacity="1"><g transform="translate(60.101446, 19.499998)"><g><path d="M 4.9375 -3.984375 L 5.84375 -3.984375 C 5.96875 -3.984375 6.054688 -4.046875 6.109375 -4.171875 C 6.160156 -4.296875 6.203125 -4.523438 6.234375 -4.859375 C 6.265625 -5.191406 6.285156 -5.675781 6.296875 -6.3125 C 6.515625 -6.132812 6.8125 -5.960938 7.1875 -5.796875 C 7.570312 -5.628906 7.90625 -5.515625 8.1875 -5.453125 C 8.125 -4.578125 8.015625 -3.878906 7.859375 -3.359375 C 7.703125 -2.847656 7.476562 -2.484375 7.1875 -2.265625 C 6.90625 -2.046875 6.523438 -1.9375 6.046875 -1.9375 L 4.546875 -1.9375 C 3.984375 -1.9375 3.550781 -2.023438 3.25 -2.203125 C 2.945312 -2.378906 2.738281 -2.671875 2.625 -3.078125 C 2.507812 -3.492188 2.453125 -4.070312 2.453125 -4.8125 L 2.453125 -8.09375 L 0.78125 -7.78125 L 0.4375 -9.75 L 2.453125 -10.140625 L 2.453125 -14.703125 L 4.546875 -14.703125 L 4.546875 -10.546875 L 8.0625 -11.21875 L 8.390625 -9.265625 L 4.546875 -8.515625 L 4.546875 -4.8125 C 4.546875 -4.445312 4.566406 -4.21875 4.609375 -4.125 C 4.660156 -4.03125 4.769531 -3.984375 4.9375 -3.984375 Z M 7.203125 -13.90625 L 17.078125 -13.90625 C 17.078125 -13.90625 17.070312 -13.832031 17.0625 -13.6875 C 17.0625 -13.550781 17.0625 -13.394531 17.0625 -13.21875 C 17.0625 -13.039062 17.054688 -12.90625 17.046875 -12.8125 C 16.992188 -10.570312 16.941406 -8.671875 16.890625 -7.109375 C 16.847656 -5.554688 16.785156 -4.28125 16.703125 -3.28125 C 16.628906 -2.289062 16.535156 -1.515625 16.421875 -0.953125 C 16.304688 -0.398438 16.164062 0 16 0.25 C 15.75 0.613281 15.5 0.863281 15.25 1 C 15.007812 1.144531 14.710938 1.253906 14.359375 1.328125 C 14.023438 1.378906 13.628906 1.40625 13.171875 1.40625 C 12.710938 1.40625 12.238281 1.398438 11.75 1.390625 C 11.738281 1.085938 11.671875 0.71875 11.546875 0.28125 C 11.429688 -0.144531 11.28125 -0.507812 11.09375 -0.8125 C 11.5625 -0.769531 11.992188 -0.742188 12.390625 -0.734375 C 12.785156 -0.734375 13.082031 -0.734375 13.28125 -0.734375 C 13.4375 -0.734375 13.566406 -0.753906 13.671875 -0.796875 C 13.785156 -0.847656 13.890625 -0.941406 13.984375 -1.078125 C 14.148438 -1.296875 14.285156 -1.785156 14.390625 -2.546875 C 14.492188 -3.316406 14.582031 -4.453125 14.65625 -5.953125 C 14.726562 -7.460938 14.785156 -9.429688 14.828125 -11.859375 L 12.046875 -11.859375 C 12.015625 -10.429688 11.941406 -9.054688 11.828125 -7.734375 C 11.710938 -6.421875 11.488281 -5.179688 11.15625 -4.015625 C 10.832031 -2.847656 10.34375 -1.785156 9.6875 -0.828125 C 9.039062 0.128906 8.164062 0.960938 7.0625 1.671875 C 6.90625 1.378906 6.679688 1.066406 6.390625 0.734375 C 6.097656 0.398438 5.816406 0.140625 5.546875 -0.046875 C 6.554688 -0.660156 7.347656 -1.378906 7.921875 -2.203125 C 8.503906 -3.035156 8.929688 -3.957031 9.203125 -4.96875 C 9.484375 -5.976562 9.664062 -7.0625 9.75 -8.21875 C 9.832031 -9.375 9.882812 -10.585938 9.90625 -11.859375 L 7.203125 -11.859375 Z M 7.203125 -13.90625 "/></g></g></g><g fill="#00a0e9" fill-opacity="1"><g transform="translate(78.101387, 19.499998)"><g><path d="M 12.828125 -3.4375 L 12.828125 -4.46875 L 5.046875 -4.46875 L 5.046875 -3.4375 Z M 5.046875 -0.796875 L 12.828125 -0.796875 L 12.828125 -1.90625 L 5.046875 -1.90625 Z M 17.125 -9.5 L 14.609375 -9.5 C 14.984375 -8.988281 15.421875 -8.523438 15.921875 -8.109375 C 16.421875 -7.703125 16.972656 -7.378906 17.578125 -7.140625 C 17.359375 -6.953125 17.117188 -6.695312 16.859375 -6.375 C 16.597656 -6.0625 16.390625 -5.78125 16.234375 -5.53125 C 15.546875 -5.875 14.929688 -6.320312 14.390625 -6.875 C 13.847656 -7.425781 13.378906 -8.050781 12.984375 -8.75 C 12.710938 -8.300781 12.367188 -7.859375 11.953125 -7.421875 C 11.535156 -6.992188 11.007812 -6.601562 10.375 -6.25 L 15.03125 -6.25 L 15.03125 1.5 L 12.828125 1.5 L 12.828125 0.984375 L 5.046875 0.984375 L 5.046875 1.5625 L 2.953125 1.5625 L 2.953125 -6.046875 C 2.648438 -5.828125 2.320312 -5.617188 1.96875 -5.421875 C 1.820312 -5.628906 1.609375 -5.878906 1.328125 -6.171875 C 1.054688 -6.460938 0.800781 -6.695312 0.5625 -6.875 C 1.320312 -7.25 1.929688 -7.660156 2.390625 -8.109375 C 2.859375 -8.554688 3.207031 -9.019531 3.4375 -9.5 L 0.921875 -9.5 L 0.921875 -11.203125 L 3.984375 -11.203125 C 4.003906 -11.378906 4.019531 -11.550781 4.03125 -11.71875 C 4.050781 -11.894531 4.0625 -12.0625 4.0625 -12.21875 L 1.515625 -12.21875 L 1.515625 -13.84375 L 4.0625 -13.84375 L 4.0625 -15.25 L 6.109375 -15.25 L 6.109375 -13.84375 L 8.265625 -13.84375 L 8.265625 -12.21875 L 6.109375 -12.21875 C 6.109375 -12.050781 6.097656 -11.882812 6.078125 -11.71875 C 6.066406 -11.550781 6.050781 -11.378906 6.03125 -11.203125 L 8.484375 -11.203125 L 8.484375 -9.5 L 6.109375 -9.5 C 6.503906 -9.195312 6.90625 -8.894531 7.3125 -8.59375 C 7.726562 -8.289062 8.066406 -8.035156 8.328125 -7.828125 L 6.96875 -6.390625 C 6.738281 -6.617188 6.441406 -6.882812 6.078125 -7.1875 C 5.710938 -7.5 5.335938 -7.800781 4.953125 -8.09375 C 4.734375 -7.769531 4.484375 -7.453125 4.203125 -7.140625 C 3.921875 -6.828125 3.585938 -6.53125 3.203125 -6.25 L 9.453125 -6.25 C 9.296875 -6.445312 9.113281 -6.65625 8.90625 -6.875 C 8.707031 -7.09375 8.515625 -7.265625 8.328125 -7.390625 C 9.046875 -7.671875 9.628906 -7.988281 10.078125 -8.34375 C 10.523438 -8.707031 10.863281 -9.09375 11.09375 -9.5 L 9.03125 -9.5 L 9.03125 -11.203125 L 11.6875 -11.203125 C 11.707031 -11.367188 11.722656 -11.53125 11.734375 -11.6875 C 11.742188 -11.851562 11.75 -12.015625 11.75 -12.171875 L 11.75 -12.21875 L 9.3125 -12.21875 L 9.3125 -13.84375 L 11.75 -13.84375 L 11.75 -15.25 L 13.8125 -15.25 L 13.8125 -13.84375 L 16.5 -13.84375 L 16.5 -12.21875 L 13.8125 -12.21875 L 13.8125 -12.125 C 13.8125 -11.832031 13.789062 -11.523438 13.75 -11.203125 L 17.125 -11.203125 Z M 17.125 -9.5 "/></g></g></g><g fill="#00a0e9" fill-opacity="1"><g transform="translate(15.101563, 44.249996)"><g><path d="M 15.5 -12.171875 C 15.769531 -12.171875 16.007812 -12.269531 16.21875 -12.46875 C 16.425781 -12.675781 16.53125 -12.914062 16.53125 -13.1875 C 16.53125 -13.476562 16.425781 -13.722656 16.21875 -13.921875 C 16.007812 -14.128906 15.769531 -14.234375 15.5 -14.234375 C 15.207031 -14.234375 14.957031 -14.128906 14.75 -13.921875 C 14.550781 -13.722656 14.453125 -13.476562 14.453125 -13.1875 C 14.453125 -12.914062 14.550781 -12.675781 14.75 -12.46875 C 14.957031 -12.269531 15.207031 -12.171875 15.5 -12.171875 Z M 4.015625 -12.78125 L 12.34375 -12.78125 C 12.476562 -12.78125 12.632812 -12.785156 12.8125 -12.796875 C 12.988281 -12.804688 13.175781 -12.828125 13.375 -12.859375 C 13.363281 -12.910156 13.351562 -12.960938 13.34375 -13.015625 C 13.34375 -13.078125 13.34375 -13.132812 13.34375 -13.1875 C 13.34375 -13.582031 13.441406 -13.945312 13.640625 -14.28125 C 13.835938 -14.613281 14.097656 -14.875 14.421875 -15.0625 C 14.742188 -15.257812 15.101562 -15.359375 15.5 -15.359375 C 15.894531 -15.359375 16.253906 -15.257812 16.578125 -15.0625 C 16.898438 -14.875 17.15625 -14.613281 17.34375 -14.28125 C 17.539062 -13.945312 17.640625 -13.582031 17.640625 -13.1875 C 17.640625 -12.8125 17.539062 -12.457031 17.34375 -12.125 C 17.15625 -11.789062 16.898438 -11.523438 16.578125 -11.328125 C 16.253906 -11.140625 15.894531 -11.046875 15.5 -11.046875 C 15.457031 -11.046875 15.414062 -11.046875 15.375 -11.046875 C 15.332031 -11.046875 15.296875 -11.050781 15.265625 -11.0625 L 15.125 -10.53125 C 14.988281 -9.9375 14.800781 -9.253906 14.5625 -8.484375 C 14.332031 -7.722656 14.039062 -6.945312 13.6875 -6.15625 C 13.34375 -5.375 12.921875 -4.648438 12.421875 -3.984375 C 11.617188 -2.898438 10.613281 -1.925781 9.40625 -1.0625 C 8.195312 -0.207031 6.789062 0.472656 5.1875 0.984375 L 3.21875 -1.15625 C 4.414062 -1.4375 5.445312 -1.789062 6.3125 -2.21875 C 7.1875 -2.644531 7.945312 -3.125 8.59375 -3.65625 C 9.238281 -4.195312 9.800781 -4.769531 10.28125 -5.375 C 10.675781 -5.882812 11.015625 -6.429688 11.296875 -7.015625 C 11.585938 -7.609375 11.820312 -8.203125 12 -8.796875 C 12.1875 -9.390625 12.320312 -9.941406 12.40625 -10.453125 L 4.015625 -10.453125 C 3.609375 -10.453125 3.207031 -10.445312 2.8125 -10.4375 C 2.425781 -10.425781 2.113281 -10.410156 1.875 -10.390625 L 1.875 -12.921875 C 2.132812 -12.890625 2.476562 -12.859375 2.90625 -12.828125 C 3.34375 -12.796875 3.710938 -12.78125 4.015625 -12.78125 Z M 4.015625 -12.78125 "/></g></g></g><g fill="#00a0e9" fill-opacity="1"><g transform="translate(33.101505, 44.249996)"><g><path d="M 3.515625 -13.8125 L 6.15625 -13.8125 C 6.144531 -13.613281 6.132812 -13.40625 6.125 -13.1875 C 6.113281 -12.976562 6.109375 -12.726562 6.109375 -12.4375 L 6.109375 -6.359375 C 6.109375 -6.128906 6.113281 -5.859375 6.125 -5.546875 C 6.132812 -5.242188 6.144531 -4.988281 6.15625 -4.78125 L 3.484375 -4.78125 C 3.503906 -4.957031 3.523438 -5.195312 3.546875 -5.5 C 3.566406 -5.8125 3.578125 -6.101562 3.578125 -6.375 L 3.578125 -12.4375 C 3.578125 -12.601562 3.570312 -12.820312 3.5625 -13.09375 C 3.550781 -13.375 3.535156 -13.613281 3.515625 -13.8125 Z M 11.796875 -13.96875 L 14.453125 -13.96875 C 14.441406 -13.71875 14.425781 -13.441406 14.40625 -13.140625 C 14.382812 -12.847656 14.375 -12.523438 14.375 -12.171875 L 14.375 -8.609375 C 14.375 -7.316406 14.289062 -6.242188 14.125 -5.390625 C 13.96875 -4.535156 13.734375 -3.8125 13.421875 -3.21875 C 13.109375 -2.632812 12.734375 -2.097656 12.296875 -1.609375 C 11.898438 -1.171875 11.441406 -0.78125 10.921875 -0.4375 C 10.410156 -0.09375 9.894531 0.195312 9.375 0.4375 C 8.851562 0.675781 8.367188 0.867188 7.921875 1.015625 L 6.03125 -0.96875 C 6.925781 -1.175781 7.742188 -1.457031 8.484375 -1.8125 C 9.234375 -2.175781 9.882812 -2.648438 10.4375 -3.234375 C 10.84375 -3.691406 11.148438 -4.160156 11.359375 -4.640625 C 11.578125 -5.128906 11.71875 -5.703125 11.78125 -6.359375 C 11.851562 -7.015625 11.890625 -7.8125 11.890625 -8.75 L 11.890625 -12.171875 C 11.890625 -12.867188 11.859375 -13.46875 11.796875 -13.96875 Z M 11.796875 -13.96875 "/></g></g></g><g fill="#00a0e9" fill-opacity="1"><g transform="translate(51.101446, 44.249996)"><g><path d="M 12.09375 -4.09375 L 10.109375 -5.25 C 10.503906 -5.613281 10.890625 -6.015625 11.265625 -6.453125 C 11.648438 -6.898438 11.992188 -7.335938 12.296875 -7.765625 C 12.597656 -8.203125 12.832031 -8.578125 13 -8.890625 C 12.8125 -8.859375 12.4375 -8.785156 11.875 -8.671875 C 11.320312 -8.566406 10.660156 -8.4375 9.890625 -8.28125 C 9.117188 -8.125 8.304688 -7.960938 7.453125 -7.796875 L 7.453125 -3.03125 C 7.453125 -2.65625 7.503906 -2.351562 7.609375 -2.125 C 7.722656 -1.90625 7.941406 -1.75 8.265625 -1.65625 C 8.597656 -1.5625 9.085938 -1.515625 9.734375 -1.515625 C 10.691406 -1.515625 11.65625 -1.570312 12.625 -1.6875 C 13.601562 -1.800781 14.535156 -1.941406 15.421875 -2.109375 L 15.359375 0.328125 C 14.609375 0.429688 13.726562 0.519531 12.71875 0.59375 C 11.71875 0.675781 10.738281 0.71875 9.78125 0.71875 C 8.757812 0.71875 7.9375 0.65625 7.3125 0.53125 C 6.6875 0.40625 6.210938 0.210938 5.890625 -0.046875 C 5.566406 -0.304688 5.347656 -0.628906 5.234375 -1.015625 C 5.128906 -1.410156 5.078125 -1.867188 5.078125 -2.390625 L 5.078125 -7.3125 C 4.273438 -7.15625 3.539062 -7.003906 2.875 -6.859375 C 2.207031 -6.722656 1.679688 -6.609375 1.296875 -6.515625 L 0.859375 -8.875 C 1.285156 -8.9375 1.875 -9.03125 2.625 -9.15625 C 3.375 -9.28125 4.191406 -9.421875 5.078125 -9.578125 L 5.078125 -12.15625 C 5.078125 -12.445312 5.0625 -12.796875 5.03125 -13.203125 C 5.007812 -13.609375 4.976562 -13.941406 4.9375 -14.203125 L 7.609375 -14.203125 C 7.566406 -13.941406 7.53125 -13.613281 7.5 -13.21875 C 7.46875 -12.820312 7.453125 -12.46875 7.453125 -12.15625 L 7.453125 -10.03125 C 8.328125 -10.195312 9.171875 -10.359375 9.984375 -10.515625 C 10.796875 -10.671875 11.503906 -10.8125 12.109375 -10.9375 C 12.710938 -11.0625 13.144531 -11.15625 13.40625 -11.21875 C 13.65625 -11.269531 13.890625 -11.332031 14.109375 -11.40625 C 14.328125 -11.476562 14.519531 -11.554688 14.6875 -11.640625 L 16.421875 -10.296875 C 16.335938 -10.171875 16.238281 -10.019531 16.125 -9.84375 C 16.007812 -9.664062 15.910156 -9.492188 15.828125 -9.328125 C 15.628906 -8.953125 15.382812 -8.523438 15.09375 -8.046875 C 14.800781 -7.578125 14.484375 -7.097656 14.140625 -6.609375 C 13.804688 -6.128906 13.460938 -5.664062 13.109375 -5.21875 C 12.753906 -4.769531 12.414062 -4.394531 12.09375 -4.09375 Z M 12.09375 -4.09375 "/></g></g></g><g fill="#00a0e9" fill-opacity="1"><g transform="translate(69.101388, 44.249996)"><g><path d="M 9.09375 -10.703125 C 9.175781 -10.515625 9.285156 -10.242188 9.421875 -9.890625 C 9.554688 -9.535156 9.695312 -9.15625 9.84375 -8.75 C 10 -8.351562 10.140625 -7.972656 10.265625 -7.609375 C 10.398438 -7.253906 10.5 -6.972656 10.5625 -6.765625 L 8.40625 -6.015625 C 8.351562 -6.234375 8.265625 -6.515625 8.140625 -6.859375 C 8.023438 -7.210938 7.894531 -7.585938 7.75 -7.984375 C 7.613281 -8.390625 7.472656 -8.769531 7.328125 -9.125 C 7.179688 -9.488281 7.054688 -9.785156 6.953125 -10.015625 Z M 13.1875 -10.203125 L 15.734375 -9.390625 C 15.617188 -9.109375 15.53125 -8.863281 15.46875 -8.65625 C 15.414062 -8.457031 15.359375 -8.265625 15.296875 -8.078125 C 15.066406 -7.171875 14.753906 -6.265625 14.359375 -5.359375 C 13.960938 -4.453125 13.460938 -3.601562 12.859375 -2.8125 C 12.015625 -1.726562 11.0625 -0.8125 10 -0.0625 C 8.9375 0.6875 7.878906 1.257812 6.828125 1.65625 L 4.9375 -0.265625 C 5.59375 -0.453125 6.285156 -0.71875 7.015625 -1.0625 C 7.753906 -1.40625 8.460938 -1.828125 9.140625 -2.328125 C 9.828125 -2.835938 10.414062 -3.40625 10.90625 -4.03125 C 11.3125 -4.550781 11.671875 -5.144531 11.984375 -5.8125 C 12.304688 -6.488281 12.570312 -7.203125 12.78125 -7.953125 C 13 -8.710938 13.132812 -9.460938 13.1875 -10.203125 Z M 4.90625 -9.75 C 5.019531 -9.519531 5.15625 -9.222656 5.3125 -8.859375 C 5.46875 -8.503906 5.625 -8.125 5.78125 -7.71875 C 5.945312 -7.320312 6.101562 -6.941406 6.25 -6.578125 C 6.394531 -6.210938 6.507812 -5.90625 6.59375 -5.65625 L 4.390625 -4.828125 C 4.316406 -5.066406 4.210938 -5.378906 4.078125 -5.765625 C 3.941406 -6.148438 3.789062 -6.550781 3.625 -6.96875 C 3.46875 -7.382812 3.3125 -7.773438 3.15625 -8.140625 C 3 -8.503906 2.863281 -8.785156 2.75 -8.984375 Z M 4.90625 -9.75 "/></g></g></g><g fill="#00a0e9" fill-opacity="1"><g transform="translate(87.101329, 44.249996)"><g><path d="M 15.640625 -6.625 L 14.609375 -4.140625 C 14.003906 -4.460938 13.316406 -4.785156 12.546875 -5.109375 C 11.785156 -5.441406 11.019531 -5.753906 10.25 -6.046875 C 9.476562 -6.347656 8.769531 -6.609375 8.125 -6.828125 L 8.125 -1.734375 C 8.125 -1.554688 8.128906 -1.316406 8.140625 -1.015625 C 8.160156 -0.710938 8.179688 -0.398438 8.203125 -0.078125 C 8.234375 0.242188 8.257812 0.53125 8.28125 0.78125 L 5.46875 0.78125 C 5.53125 0.425781 5.578125 0.0078125 5.609375 -0.46875 C 5.640625 -0.945312 5.65625 -1.367188 5.65625 -1.734375 L 5.65625 -12.0625 C 5.65625 -12.382812 5.640625 -12.75 5.609375 -13.15625 C 5.578125 -13.5625 5.53125 -13.921875 5.46875 -14.234375 L 8.28125 -14.234375 C 8.238281 -13.921875 8.203125 -13.578125 8.171875 -13.203125 C 8.140625 -12.828125 8.125 -12.445312 8.125 -12.0625 L 8.125 -9.40625 C 8.71875 -9.226562 9.363281 -9.019531 10.0625 -8.78125 C 10.769531 -8.550781 11.472656 -8.304688 12.171875 -8.046875 C 12.867188 -7.796875 13.519531 -7.546875 14.125 -7.296875 C 14.726562 -7.054688 15.234375 -6.832031 15.640625 -6.625 Z M 15.640625 -6.625 "/></g></g></g><g mask="url(#894867c683)"><g transform="matrix(1, 0, 0, 1, -0, 0)"><g clip-path="url(#d423eb7a6c)"><g clip-path="url(#344c7b7cc7)"><g clip-path="url(#5332a11853)"><g transform="matrix(1, 0, 0, 1, -0, 0)"><g clip-path="url(#ccb4e8db3b)"><g clip-path="url(#411612639e)"><g clip-path="url(#0b93bba448)"><path fill="#000000" d="M 0 0 L 119.929688 0 L 119.929688 51 L 0 51 Z M 0 0 " fill-opacity="1" fill-rule="nonzero"/></g></g></g></g></g></g></g></g></g></svg>